<svg id="Layer_1" data-name="Layer 1" xmlns="http://www.w3.org/2000/svg" viewBox="0 0 40 40"><defs><style>.cls-1{fill:none;stroke:#1d1d1b;stroke-linecap:round;stroke-linejoin:round;stroke-width:0.35px;}</style></defs><path class="cls-1" d="M20,16.94a8.48,8.48,0,0,0,3.55-6.51A6.88,6.88,0,0,0,20,4.5a6.89,6.89,0,0,0-3.56,5.93A8.48,8.48,0,0,0,20,16.94Z"/><path class="cls-1" d="M12.4,23.24a8.84,8.84,0,0,0,6.07,2.19,9,9,0,0,0,1.45-.11h.16a8.89,8.89,0,0,0,1.45.11,8.84,8.84,0,0,0,6.07-2.19,6.55,6.55,0,0,0,1.78-6.69l0-.09-.09,0a7.73,7.73,0,0,0-7.11,1.66A7.27,7.27,0,0,0,20,22a7.27,7.27,0,0,0-2.15-3.9,7.73,7.73,0,0,0-7.11-1.66l-.09,0,0,.09A6.55,6.55,0,0,0,12.4,23.24Z"/><path class="cls-1" d="M29.35,26.53l-.09,0a7.75,7.75,0,0,0-7.11,1.67A7.27,7.27,0,0,0,20,32.07a7.27,7.27,0,0,0-2.15-3.9,7.75,7.75,0,0,0-7.11-1.67l-.09,0,0,.09a6.57,6.57,0,0,0,1.78,6.7,8.83,8.83,0,0,0,6.07,2.18,7.82,7.82,0,0,0,1.45-.11h.16a7.7,7.7,0,0,0,1.45.11,8.83,8.83,0,0,0,6.07-2.18,6.57,6.57,0,0,0,1.78-6.7Z"/></svg>