<svg height="400" viewBox="0 0 2400 400" width="2400" xmlns="http://www.w3.org/2000/svg"><g fill="#a28f85" fill-rule="evenodd" opacity=".7" transform="translate(710 41)"><g fill-rule="nonzero"><path d="m690.390173 224.355882c.884395-.796131 1.717299-1.645624 2.493859-2.543529 11.476369-14.680714 24.005645-28.539424 37.492413-41.470588 14.756503-14.413334 30.142341-28.13549 46.157515-41.166471.50395-.400903.975049-.839997 1.408959-1.313235 1.930275-2.045883 4.100072-3.303824 6.96026-2.488235.370182.092436.74699.157133 1.127168.193529 4.635477.552941 5.635838 1.548235 5.509032 6.096176-.171459 4.608311-1.227883 9.14347-3.113801 13.367353-4.226879 9.510589-9.39776 18.482059-14.371387 27.647059-3.945087 7.215883-7.3125 14.735883-10.947616 22.117647-.887644 1.797059-1.803468 3.580294-2.691113 5.349706-.36512.708333-1.213641 1.035386-1.972543.760294-1.338511-.497647-2.09935-.622059-3.325144-1.064412-.284105-.124273-.561561-.262688-.831287-.414705-4.015534-2.985883-5.424494-4.147059-7.326589-7.47853-1.17556-2.372812-1.440655-5.08167-.746749-7.630588 1.134339-4.754326 3.037019-9.299864 5.635838-13.464118 3.198339-5.529411 6.467125-11.058823 9.651373-16.588235.648122-1.133529 1.084899-2.363824 1.620304-3.552647l-.817197-.539118c-1.000361.981471-1.958454 2.018236-3.015173 2.944412-8.01698 6.911765-15.104046 14.708235-22.543353 22.214412-4.226878 4.312941-8.383309 8.73647-12.342485 13.312059-4.691836 5.418823-9.313223 10.920588-13.624639 16.588235-5.142702 6.801176-10.482659 13.602353-15.68172 20.362059-5.19906 6.759706-9.270953 13.823529-14.625 20.389706-1.408959 1.68647-6.157153 9.67647-10.398121 7.423235-3.170159-1.686471-6.734827-3.912059-8.524205-7.063824-.887645-1.575882-1.479408-3.317647-2.310694-4.921176-2.465679-4.824412-1.282153-9.980588.225434-14.874118 3.719653-11.943529 7.044797-24.01147 11.271676-35.747647 4.043714-11.155588 9.101878-21.951764 13.680997-32.913823 2.169798-5.197647 4.226879-10.422941 6.354407-15.648236.112717-.290294 0-.691176-.197254-1.92147-1.549855 2.612647-2.691113 4.575588-3.860549 6.510882-2.817919 4.603235-5.396315 9.344706-8.453757 13.754412-5.22724 7.506176-10.722182 14.818823-16.160766 22.117647-4.443954 5.803683-9.533555 11.10318-15.174494 15.800294-4.52276 3.912059-9.144148 8.211177-14.089596 11.846765-3.413272 2.466834-7.147172 4.475189-11.102601 5.971765-16.907514 5.68147-35.703035-7.00853-35.604407-24.426177v-1.382353c0-1.285588-1.493497-.677353-2.536128.096765-1.761199 1.285588-4.931358 5.819706-6.143063 7.409412-4.353685 5.626176-5.494942 7.008529-11.271676 14.791176-2.888367 3.912059-6.509393 9.095882-9.510477 12.952647-6.354408 8.155882-12.525651 16.422353-18.837789 24.619706-.732659.953824-2.071171 2.764706-2.817919 3.718529-1.975363 2.699656-4.091626 5.297336-6.340318 7.782647-2.682279 3.102254-5.919679 5.697609-9.552746 7.658236-1.549855.732647-4.226879 2.598823-5.945809 1.492941-2.043073-1.267557-3.821786-2.904784-5.24133-4.824412-.818912-1.471785-1.525333-3.001183-2.113439-4.575588-.970896-2.203611-1.6207-4.530373-1.930275-6.911765-.46158-2.830441-.523215-5.709805-.183164-8.556764.726114-5.063673 2.079323-10.021492 4.029624-14.76353 4.339595-12.192353 10.186777-23.693529 16.118497-35.180882 6.26987-12.137059 12.17341-24.467647 18.203757-36.742941 2.817919-5.741373 5.57948-11.501177 8.284682-17.279412v-.110588l-3.141979-2.460589c-.43236.282305-.842147.59655-1.225795.94-6.593931 6.040883-13.187861 12.109412-19.542269 18.385294-4.128251 4.064118-7.974711 8.41853-11.722543 12.814412-5.382226 6.30353-10.553107 12.786765-15.850795 19.173236-2.493859 2.999705-5.156792 5.861176-7.594292 8.902352-4.071893 5.073236-8.00289 10.270883-12.060694 15.357942-2.352962 2.944411-4.691835 5.91647-7.28432 8.653529-2.592486 2.737059-4.734105 2.156471-6.593931-1.036765-1.592124-2.695588-3.282876-5.363529-4.621387-8.183529-2.564307-5.418824-2.057081-11.058824-.084538-16.422353 1.563945-4.340588 3.451951-8.584412 5.438584-12.772941 3.099711-6.561569 6.312139-13.077059 9.637283-19.546471 4.339595-8.473823 8.848266-16.864706 13.187861-25.338529 4.339596-8.473824 8.763729-16.892353 12.807443-25.504412 3.311054-7.022353 6.114884-14.265882 9.130057-21.426471.126807-.317941.577674-1.009117 0-1.520588-.958092-.760294-2.057081-.138235-2.817919.248824-6.509393 3.262353-12.934248 6.690588-19.429552 9.980588-6.602114 3.325136-12.786874 7.393643-18.429191 12.123235-2.916546 2.460589-5.790823 4.976471-8.453757 7.602941-.891403.867185-1.397768 2.044609-1.408959 3.276177.619942 6.192941-1.902096 11.971176-4.579119 17.403823-3.184248 6.497059-6.720737 12.814412-10.384032 19.062648-4.623061 8.095974-9.830727 15.856973-15.583092 23.223529-8.36922 10.450588-15.794436 21.979412-28.925939 27.094118-5.635838 2.211764-11.384393 2.087353-17.217486 1.548235-6.044436-.566765-10.045881-8.874706-11.370303-13.82353-1.541136-5.654993-2.568992-11.432741-3.071532-17.265588-1.098989-10.353823 5.156792-20.735294 11.158959-28.739117 4.635477-6.192942 8.862356-12.703824 13.59646-18.813824 4.156431-5.363529 8.636922-10.492059 13.187861-15.537647 4.311416-4.769118 8.72146-9.455294 13.399205-13.823529 3.39056-3.198485 7.053043-6.107364 10.947616-8.695 3.761922-2.502059 7.044798-1.382353 9.05961 2.557353 3.043352 6.096176 5.029985 10.630294 4.593208 17.66647-.027311 1.610929-.839238 3.111609-2.183887 4.036471-3.052812 2.224724-5.883433 4.728804-8.453758 7.478529-7.016618 8.05451-13.868858 16.251863-20.556719 24.592059-2.215503 3.025153-4.220766 6.193306-6.002168 9.482941-3.14198 5.280588-6.26987 10.575-9.256864 15.93853-2.24504 3.8588-3.798646 8.066902-4.593208 12.441176-.211344 1.216471 1.718931 3.829118 2.817919 3.359118l.239523-.110589c4.042441-2.136438 7.656244-4.97476 10.665824-8.377058 6.016257-6.607647 12.117052-13.16 17.851517-20.002647 5.449407-6.788414 10.135543-14.134447 13.976879-21.910295 1.831647-3.525 4.438222-6.911764 4.536849-11.058823.183165-7.077647 4.846821-11.252353 9.77818-15.205882 15.082795-12.159544 31.752385-22.28948 49.567196-30.1214711 2.310694-1.0367647 4.635477-2.0597058 6.97435-3.0273529 2.606575-1.0782353 5.100433-2.1564706 6.410766-4.9626471.657716-.8789871 1.706565-1.3935082 2.817919-1.3823529 7.044798.6082353 16.907514.7326471 19.190029 9.0129412.005554.7230561-.173677 1.4359488-.521315 2.0735294-.831286 1.6726474-1.845737 3.2485294-2.634755 4.9350004-3.916907 8.377058-7.692919 16.837058-11.708453 25.172647-2.972905 6.179117-6.29805 12.206176-9.341402 18.357647-1.817558 3.663235-3.339234 7.478529-5.100434 11.183235-2.254335 4.727647-4.621387 9.413824-6.94617 14.127647-1.141257 2.294706-2.282515 4.575588-3.437861 6.911765l.732659.566764c.958092-.884705 1.958453-1.727941 2.817919-2.62647 8.820086-8.667353 17.485187-17.500588 26.502529-25.946765 5.06225-4.559955 10.35737-8.864621 15.864884-12.897353 2.169128-1.537981 4.538462-2.783963 7.044798-3.704706 5.368135-2.15647 10.412211-.359411 15.343569 1.714118 1.972543.815588 2.183887 2.515882 2.197977 4.368235.213295 6.648167-1.086271 13.259406-3.804191 19.352941-3.83237 8.294118-7.777457 16.491471-11.525289 24.799412-3.14198 6.911765-5.93172 14.044706-9.158237 20.956471-4.424133 9.510588-9.214595 18.869117-13.666907 28.365882-3.301832 6.609615-5.916902 13.528634-7.805636 20.652353-.112717.456177-.605853 2.004412 0 2.35 1.408959.165882 4.720014-2.474412 5.861271-3.469706 6.157154-5.363529 8.284682-8.294117 12.849711-13.643823 14.089596-16.588236 21.458454-29.471765 34.519509-45.797353 5.635838-6.911765 9.327312-13.82353 14.202312-19.173236 2.479769-2.764705 5.044075-5.957941 7.284321-8.985294 2.662934-3.594117 4.353685-5.21147 6.777095-8.100588 5.142703-6.137647 10.299495-12.247647 15.498555-18.302353 3.619821-4.374309 7.721308-8.342713 12.229769-11.832941 10.651734-7.907059 28.080564-19.726176 42.156069-19.117941 6.518442.363237 12.946675 1.667458 19.077313 3.870588 5.311777 1.893824 7.932442-.746471 10.313583-3.981176 1.648483-2.225589 3.198339-4.534118 4.663656-6.911765 12.052717-19.6887484 22.965943-40.027703 32.687862-60.9202942 3.916907-8.2941177 7.326589-16.8647059 12.849711-24.2464706 2.2599-2.7882961 4.727665-5.4081427 7.382948-7.8379412 4.649566-4.65852941 13.723266-15.09529412 18.316474-3.88441176 1.282153 3.12411764 2.986994 4.58941176 2.395231 7.96235296-.422688 2.3914706-1.014451 7.1605882-2.028902 9.3308823-2.944725 6.3726471-5.170881 12.7867647-8.834176 18.8552941-5.903541 9.7732353-10.059971 20.5694118-14.779986 30.9232353-10.919436 23.942353-23.388728 47.3594121-32.941474 72.0482351-2.028901 5.252941-4.226878 10.450588-6.509393 15.592941-3.776011 8.377059-7.481575 16.781765-11.271676 25.158824-5.551301 12.330588-11.046243 24.592059-16.35802 37.033235-.123633.451434-.194537.915198-.211344 1.382353zm3.282876-99.44647c.450243-.656094.509121-1.498139.154418-2.208411-.354703-.710273-1.068991-1.18065-1.873349-1.233648h-.704479c-3.874639-.179706-7.044798 1.755588-11.962067 3.704706-1.056719.414706-2.099349.857059-3.170159 1.257941-12.356575 4.520294-18.739162 16.076765-26.079841 25.780882-4.903179 6.455589-9.087789 14.279706-13.173771 21.274412-4.818642 8.294118-9.440029 16.961471-13.441474 25.615-2.197755 4.904091-3.937895 9.993542-5.199061 15.205882-.112717.414706-.309971 1.009118-.422688 1.617353-.098731.530738.088671 1.073891.495686 1.436662.407014.36277.976018.493798 1.505037.346574 1.047134-.448803 2.002064-1.081208 2.817919-1.866177 7.869269-5.949164 15.259971-12.483968 22.106575-19.54647 7.974711-8.377059 14.455925-17.81853 21.134393-27.163236 2.07117-2.916764 4.057803-5.888823 5.93172-8.93 6.495303-10.492058 12.920158-21.025588 19.401372-31.517647.71857-1.230294 1.535766-2.419117 2.479769-3.773823z"/><path d="m230.717124 128.835294-12.018425 1.382353c-8.453757.995294-16.907514 2.087353-25.361271 2.958235-8.101518.843236-16.231214 1.465294-24.346821 2.170294-2.291888.164335-4.442639 1.148081-6.044436 2.764706-15.783355 14.985289-32.457027 29.040755-49.933526 42.092647-6.030347 4.561765-11.976157 9.247942-18.3164745 13.464118-6.3403179 4.216177-13.3146676 8.211177-19.9790462 12.330588-4.0718931 2.502059-7.9465318 5.36353-12.1734104 7.589118-4.7763729 2.502059-9.158237 5.322059-14.5263729 7.658235-2.3233683 1.133687-4.7134295 2.130742-7.1575144 2.985883-3.4670056 1.218954-7.1238427 1.836408-10.8067197 1.824705-2.9099847.094449-5.8228904-.053533-8.7073699-.442352-3.9873555-.539118-14.47001446-2.253236-18.97868498-4.686177-.98627167-.511471-1.69075144-.594412-1.69075144-1.382353 0-.566765 2.00072254-.926176 2.81791907-.953823 4.95953758-.179706 9.18641615-2.709412 13.41329485-4.89353 9.6231936-4.948823 19.1477601-10.118823 28.4750722-15.565294 4.1141619-2.405294 8.0310694-5.100882 11.8916185-7.865588 2.367052-1.686471 4.9031792-3.137941 7.2561416-4.838235 1.5216763-1.092059 2.9024567-2.363824 4.3959538-3.511177s3.1842485-2.460588 4.8468208-3.594118c15.3858381-10.450588 30.7763726-20.887353 46.1716036-31.310294 1.127168-.774117 2.155709-1.68647 3.761922-2.944411-.820619-.239478-1.667127-.383312-2.522037-.42853-1.77441.181886-3.537987.454115-5.283598.815588-8.679191 1.83853-17.3724715 3.690883-26.0516623 5.626177-10.3699422 2.308529-21.4725433 3.56647-31.5184248 7.063823-1.976544.908162-3.8877575 1.947331-5.7203758 3.110294-1.8390472.846341-3.9932196.700636-5.6964906-.385302s-2.7139844-2.958039-2.672729-4.95058c-.0845376-3.746176-.2958815-7.492353-.1831648-11.238529.0845376-2.764706 1.5075867-3.497353 4.5791185-3.179412 1.1982144.137731 2.4087221.137731 3.6069365 0 13.7373554-1.838529 27.4606213-3.898235 41.226156-5.529412 13.7655343-1.631176 27.5733383-2.999706 41.3670523-4.465 2.028901-.221176 4.057803-.373235 6.086705-.552941 3.48013-.304118 5.635838-2.902941 7.932442-4.879706 7.739885-6.45098 15.371749-13.058627 22.895593-19.822941 6.114884-5.4556863 12.126445-11.0357844 18.034682-16.7402942 15.118136-14.5008823 30.053107-29.1814706 45.283959-43.5717647 6.128974-5.7920588 12.821532-11.0588235 19.246388-16.5882353 8.890534-7.6167647 16.329841-17.0305882 28.88367-17.7494117 5.044075-.2764706 9.862717.6635294 13.652818 3.995 4.128251 3.5664705 8.946893 7.0638235 8.538295 13.422647-.160745 4.4955799-1.030529 8.9395761-2.578396 13.1738235-2.536127 6.4002942-4.860911 12.8835295-7.32659 19.3529412-3.184248 8.2941177-6.424855 16.5191177-9.651373 24.7855883-1.549855 3.9397058-3.071531 7.9070588-4.720014 11.8191176-2.972905 6.9947063-6.030347 13.9617643-9.031431 20.9426473-.296456.85484-.536476 1.727529-.718569 2.612647 4.071893.193529 7.129335-.276471 12.229769-.387059 15.738078-.345588 19.330925-.511471 34.716763-.857059 2.409321 0 6.847543-.221176 9.04552-.317941 1.821095.044115 3.524183-.881241 4.452312-2.419118 6.044437-6.911764 14.681358 2.211765 14.089595 8.805589-.958092 9.939117-8.143786 16.781764-12.920158 25.034411-3.747833 6.469412-7.636561 12.855883-11.483021 19.352942-1.408959 2.322352-2.817919 4.603235-4.494581 7.174411 1.7612.414706 2.310694-.774117 3.001084-1.465294 8.962208-9.056243 18.42596-17.621369 28.348266-25.65647 11.271676-8.999118 22.881503-17.542059 36.013006-23.845589.901734-.442353 1.690751-1.105882 2.564306-1.617353 2.282515-1.299411 7.594292-1.617353 10.045882-.898529 6.199422 1.797059 2.395231 6.248235-1.04263 10.035882-2.606575 2.861471-5.523122 5.529412-8.453758 8.072942-1.612183 1.733429-3.519173 3.178759-5.635838 4.27147-2.113439.815588-4.677745.566765-7.044797.566765-.464957 0-1.028541-.995294-1.40896-1.631177-.470605-1.035783-.879884-2.097352-1.225795-3.179411-2.888367 2.059705-5.56539 3.884411-8.143786 5.833529-6.354407 4.796765-12.821532 9.441471-18.922326 14.514706-4.959538 4.147059-9.595015 8.681176-14.089596 13.284412-4.114162 4.147058-8.059248 8.473823-11.877529 12.897353-8.723149 9.905051-16.673388 20.440742-23.783237 31.517647-4.325506 6.828823-7.749277 12.26147-13.286488 20.472647-1.000361 1.479117-2.817919 4.423529-4.903179 4.561764-3.50831.235-5.001807-8.957647-5.706286-11.307647-1.592125-5.363529-.084538-9.67647 2.338872-14.196764 8.01698-14.901765 15.808526-29.927942 23.952312-44.774412 4.161128-7.602941 8.388006-15.173628 12.680636-22.712059 3.550578-6.289706 6.706648-12.800588 10.539018-18.938235 1.779322-2.674587 3.406798-5.443506 4.875-8.294118-1.845737-.069118-3.15607-.235-4.466402-.152059-10.299494.608236-20.119942.801765-30.419436 1.382353-6.354408.387059-12.680636.787941-19.077313 1.022941-2.326058-.096426-4.445036 1.304493-5.22724 3.455883-6.96026 14.708235-13.526011 28.158529-20.556719 42.852941-1.944364 4.064118-3.663295 8.294118-5.635838 12.316765-4.55094 9.67647-9.285044 19.352941-13.695087 29.153823-3.451951 7.616765-6.368497 15.46853-9.862717 23.099118-4.15643 9.234117-8.228323 18.509706-13.821893 27.06647-1.761199 2.695589-2.817919 5.847353-4.579118 8.529118-1.765467 2.571178-3.785382 4.965045-6.030347 7.146765-.969124.544623-2.132701.64565-3.184249.27647-1.450842-.476912-2.801732-1.20751-3.987355-2.15647-3.068396-2.173486-5.960706-4.576743-8.651012-7.188236-3.856-3.810062-5.621001-9.200338-4.748193-14.500882 1.190999-6.526365 3.22699-12.876697 6.058526-18.896765 7.678829-17.141176 15.244942-34.35147 23.430997-51.257647 8.636922-17.818529 17.964234-35.319117 26.967485-52.971764.746749-1.396177 1.310333-2.833824 2.367052-4.948824zm-55.907514-2.142647c3.592847 0 6.509393.207353 9.39776 0 11.919798-.981471 23.825506-2.128823 35.731214-3.137941 3.677384-.304118 7.805636-.857059 11.46893-1.285588 3.240607-.387059 3.677385-1.382353 4.522761-2.764706 1.493497-2.30853 2.691112-4.810588 4.001445-7.229706 8.34104-15.5791178 16.400289-30.4117648 24.586344-46.0600001 7.594291-14.542353 14.878612-29.2367647 22.289739-43.8758824.241536-.3889935.322196-.8539231.225434-1.2994117-.450867-1.0229412-1.634393-3.3314706-3.522399-3.2070589-.703199.1913438-1.343928.5580448-1.859826 1.0644118-19.485911 17.9705882-37.210622 38.2220588-55.696171 57.4367647-5.494942 5.7229412-10.947616 11.487353-16.541185 17.0997059-4.607298 4.6308823-9.38367 9.1097057-14.089595 13.6161767-6.312139 5.971764-12.680636 11.888235-18.978685 17.832353-.543545.577123-1.056158 1.181565-1.535766 1.810882z"/><path d="m867.39776 127.093529c1.888006 3.29 4.846821 4.23 7.608382 5.377353 13.864161 5.695294 17.668352 23.265 13.850072 36.120883-2.933673 10.088767-7.531352 19.638148-13.610549 28.269117-5.08945 7.139019-10.618148 13.966706-16.555275 20.445-11.271676 12.302942-24.290462 22.269706-39.817196 28.794412-4.875 2.045882-9.862717 3.95353-15.414018 3.95353-7.048833.13975-13.970532-1.853626-19.82406-5.709118-2.817919-1.907647-4.917269-5.017941-6.903902-7.879412-6.678468-9.67647-7.439306-20.292941-4.226879-31.199706 2.4375-8.211176 6.791185-15.537647 11.5112-22.725882 7.092086-10.705662 15.569604-20.46354 25.220375-29.029412 7.67883-6.911765 15.498555-13.726765 25.037211-18.260882 3.621026-1.727941 7.044798-3.925883 11.102602-6.248236-.919669-.247385-1.865073-.391155-2.81792-.428529-5.776734.81098-11.548771 1.677255-17.316112 2.598824-2.719292.428529-5.452674-2.902942-7.805636-5.529412 1.563945-2.101177 3.916907-2.474412 6.030347-3.01353 5.156792-1.313235 10.355852-2.612647 15.611271-3.497353 4.114162-.677352 8.36922-.539117 12.511561-1.092058 17.654767-2.382139 35.429899-3.808124 53.244581-4.271471 63.079119-1.645 69.856214 4.077941 69.870303 4.326765-1.747109.179706-3.494219.456176-5.255419.51147-3.423771.138236-6.875722 0-10.299494.221177-13.469653.566765-26.939306 1.050588-40.38078 1.810882-12.441113.705-24.854046 1.631177-37.26698 2.654118-3.541635.397664-7.049579 1.044427-10.496748 1.935294-1.253974.345588-3.621026.663529-3.606937 1.866176zm-9.862717 6.676765c-5.466763-1.769412-21.500722 11.777647-24.896315 14.957059-5.700271 5.146114-10.889735 10.811528-15.498555 16.92-3.916907 5.363529-8.059248 10.561176-12.102962 15.814118-.464957.594411-1.000361 1.133529-1.40896 1.727941-2.001572 2.3814-3.855352 4.878752-5.5513 7.478529-4.804552 8.294118-9.566835 16.698824-12.300217 26.002059-1.408959 4.838235-2.719292 9.607353-2.014812 14.694412.422688 3.137941.929913 3.787647 4.128251 4.451176 1.240693.267576 2.505822.411152 3.776012.42853 6.129873.148386 12.192409-1.281434 17.583815-4.147059 7.707009-4.147059 15.287211-8.363235 21.92341-14.155294 6.914073-6.070861 13.334922-12.661638 19.204119-19.712353 6.326228-7.547647 12.328396-15.275 16.188945-24.370883 3.170159-7.437058 5.325867-15.053823 4.804552-23.265-.603837-7.864497-6.081552-14.552117-13.779624-16.823235z"/></g><path d="m783.733743 111.044412c-7.439307-1.202647 3.635115-18.4267649 5.523121-20.6385296 2.817919-3.2485295 6.946171-7.5061765 11.708454-7.1744118 4.79256.1748748 9.020395 3.1284779 10.756573 7.5146365 1.736177 4.3861586.648314 9.3651629-2.767773 12.6677169-5.762644 5.529411-10.848988 12.22-25.149927 7.644411z"/></g></svg>