<svg height="400" viewBox="0 0 2400 400" width="2400" xmlns="http://www.w3.org/2000/svg" xmlns:xlink="http://www.w3.org/1999/xlink"><mask id="a" fill="#fff"><path d="m.23966621.1258927h1181.39161379v259.1793023h-1181.39161379z" fill="#fff" fill-rule="evenodd"/></mask><g fill="#008da7" fill-rule="evenodd" transform="translate(637 42)"><path d="m743.82186 175.639569c-.232525 7.235003-.107958 14.483333-.651623 21.706121-.195431 2.593607-.348787 5.219419-.710861 7.795814-.652176 4.646948-2.476387 10.214514-5.781004 13.675433-2.035697 2.132189-4.831529 3.004498-7.631236 3.621389-19.10577 4.211627-41.177336-1.521405-58.314952-10.249496-1.861304-.947824-3.860462-2.902885-4.833744-4.76744-1.041931-1.99726.08692-3.593625 1.62878-4.904033 4.06309-3.454256 8.540296-6.525385 12.870236-9.629829 9.588871-6.874641 19.47781-13.32229 29.622525-19.339614 2.540608-1.502526 5.098379-2.976735 7.671651-4.42207 2.221163-1.247108 5.388481-2.319865 6.765912-4.608636 1.256186-2.087212 1.030859-4.974551 1.231273-7.314405.276815-3.240482.557505-6.480409.839303-9.719781.282351-3.239371.56581-6.479298.849268-9.719225.147266-1.685761.291763-3.372078.442351-5.057839.13121-1.460882.679304-3.354865.363181-4.776324-.811068.311499-1.577845 1.394806-2.195696 1.983379-.669893.637436-1.337017 1.278203-2.015214 1.906754-1.464905 1.358159-3.069878 2.569731-4.463364 4.003961-2.942544 3.028374-5.538515 6.454312-8.357599 9.604842-5.713461 6.384905-11.639516 12.574914-17.677405 18.651095-11.905259 11.981899-24.082904 23.747803-36.868988 34.785209-12.311623 10.628737-25.245527 21.429603-40.201841 28.093247-3.546 1.579707-7.262518 3.139425-11.096405 3.836829-3.701017.673527-7.526046.569138-11.214329-.136039-6.769234-1.293749-13.343036-4.523126-18.423699-9.213385-4.812705-4.44317-7.980576-10.341114-8.813235-16.864277-.420205-3.288234-.261867-6.638102.312801-9.897463.332731-1.886764.817158-3.736882 1.388504-5.564234.311693-.995577.62228-1.98449.857019-3.002277.262974-1.138833.817158-2.670232.732452-3.821836-1.201377.377575-13.23231 8.720872-16.097345 10.49714-5.728963 3.552537-11.464569 7.095079-17.253878 10.54767-2.894378 1.72574-5.803703 3.425938-8.727977 5.100039-2.54559 1.45755-4.999832 2.481445-7.992202 2.344851-5.62931-.257084-10.009076-3.993411-13.784833-7.839123-2.306976-2.349294-4.223643-5.086713-4.19264-8.512096.035986-4.026171 1.962619-7.999593 3.548769-11.601547 5.35028-12.151808 10.968517-24.192564 17.031319-36.004554 3.412021-6.646986 6.969094-13.220123 10.705542-19.689982 1.781582-3.085565 3.698802-6.103389 5.336993-9.270022.87086-1.682985 1.677499-3.39762 2.491889-5.108368.581311-1.219345 1.439992-2.894557.944493-4.297692-2.413827-1.069426-4.770076 1.440338-6.487436 2.71854-2.564968 1.908975-5.133811 3.813508-7.700993 5.719706-4.910145 3.646931-9.814199 7.302745-14.672302 11.019638-4.917341 3.761314-9.894475 7.509856-14.574309 11.567677-4.374231 3.792408-8.32881 8.037351-12.228025 12.310056-16.526409 18.106388-33.342919 35.986786-48.662414 55.150939-7.568122 9.466583-14.950778 19.080864-22.528865 28.548003-2.672372 3.335431-7.875387 1.395362-10.886026-.602454-3.124134-2.072776-5.696853-5.226638-7.996632-8.158952-1.530233-1.951175-2.288706-4.282701-1.662551-6.732496.720273-2.815155 2.821852-5.362121 4.311117-7.806364 3.35389-5.504821 6.694494-11.017972 10.035097-16.531122 6.60702-10.903589 13.213487-21.807734 19.92016-32.649689 7.318435-11.832535 14.827872-23.540692 22.405405-35.207205 3.857694-5.939033 7.723692-11.872513 11.564223-17.82154 1.814246-2.809603 3.77022-5.572008 5.360246-8.517649.771206-1.427566 1.441652-2.9051061 2.101026-4.387088.594044-1.3359493 1.47487-3.3026709.879164-4.7890949-1.795976-.6590905-4.00053.9689241-5.416162 1.8145811-2.04677 1.223232-4.099076 2.4359141-6.1464 3.6574803-3.973402 2.3698385-7.934071 4.7624425-11.822768 7.2705405-7.389853 4.766884-14.558808 9.930223-21.359598 15.511114-6.948057 5.701383-13.334732 12.01466-19.705906 18.345704-3.383233 3.361528-6.796361 6.663089-10.031221 10.167873-6.673456 7.230007-13.307604 14.516649-19.728051 21.973756-4.401912 5.112254-8.539189 10.423291-13.356877 15.164079-2.959706 2.911769-6.124808 5.647522-9.569494 7.969609-3.128563 2.108312-6.839545 3.925114-10.713847 3.270466-4.325511-.730164-8.674275-3.907346-12.019307-6.595903-3.057698-2.458124-5.762181-5.421533-7.509437-8.966296-1.542967-3.131096-2.228914-6.619778-2.060057-10.104018.096331-1.983935.450101-3.94788.987122-5.858521.275708-.980584.59626-1.949509.96387-2.898999.338821-.875085 1.044146-2.066668.862002-3.033926-1.241239.17213-2.274866 1.980048-3.00455 2.84736-1.089544 1.295415-2.182409 2.587499-3.274721 3.880694-2.366769 2.802384-4.735198 5.603657-7.091447 8.414925-4.068626 4.854615-8.06196 9.768643-12.049756 14.688779-6.384461 7.876881-12.858056 15.682134-19.524869 23.320254-7.521616 8.61815-15.277419 17.026968-23.16111 25.313074-3.34171 3.512003-6.625843 7.070092-9.943194 10.603195-2.546698 2.711877-5.939342 6.51539-9.872883 6.970701-2.229468.258194-4.198177-1.335394-5.963149-2.483667-2.674033-1.73851-5.125506-3.749097-7.547084-5.819652-4.292847-3.66803-9.151503-7.515964-11.727544-12.662089-1.489818-2.975069-2.742682-6.186123-2.152513-9.540988.390309-2.217698 1.043593-4.392086 1.728433-6.534269 4.700318-14.687113 11.405885-28.818968 17.899964-42.77092 3.894234-8.366063 7.893103-16.683263 11.979446-24.956598 1.605527-3.249922 3.224894-6.493735 4.864746-9.726444.678751-1.337059 1.360823-2.673009 2.048431-4.005071.427956-.828999 1.892308-2.747969 1.375217-3.671917-.893005.03165-1.844695 1.394251-2.356249 1.960614-.819926.905624-1.626011 1.82291-2.418809 2.752966-1.629887 1.913417-3.203303 3.87292-4.775059 5.834089-3.25313 4.060042-6.560515 8.049011-10.158003 11.809214-3.541571 3.701346-7.223764 7.263877-10.779175 10.950231-3.32787 3.450924-6.516779 7.015677-10.000772 10.314461-6.913178 6.547595-14.509535 12.360584-22.627965 17.326251-3.798455 2.323197-7.870957 5.075052-12.419027 5.479835-4.066966.362028-7.673312-1.580263-10.203401-4.699699-2.806904-3.459808-3.556519-7.842455-3.162888-12.187899.214809-2.370394.725809-4.706362 1.328712-7.003461.280137-1.068315.585741-2.128302.897434-3.187178.310033-1.051657.931759-2.523644.720273-3.628051-.868646.242092-1.740059 1.303189-2.367876 1.932851-.998194 1.000573-1.991407 2.005034-2.987387 3.006718-2.182963 2.195488-4.364265 4.391531-6.543353 6.590905-3.961222 3.998409-7.914694 8.005701-11.851003 12.029096-8.068603 8.247793-16.068556 16.563883-23.927887 25.012679-6.598716 7.093413-12.8265 14.588833-19.9218216 21.19584-5.9393424 5.530364-12.2562604 10.771438-19.012207 15.274575-2.4055222 1.603584-4.9328431 3.25825-7.6638998 4.254937-3.4297377 1.251551-6.804666-.381461-9.6597358-2.29821-7.6644534-5.14557-12.3404122-13.1596-11.4241546-22.539562.5159832-5.278832 2.4691897-9.993523 4.7739513-14.707658 2.4686361-5.048955 5.1482052-9.992967 8.0021677-14.833145 5.8120075-9.858595 12.1029049-19.461216 18.3340103-29.056619 7.1285396-10.977438 14.3993621-21.862704 21.9973795-32.519203 3.79458-5.321032 7.643969-10.602085 11.481179-15.890911 1.835837-2.529753 3.668352-5.061727 5.491456-7.600363.94726-1.319292 2.027946-2.624147 2.8368-4.03339.55529-.968369 1.369127-2.473671 1.409541-3.568639-1.139924.146588-2.667389 1.053323-3.612989 1.704085-1.117779.769031-2.110437 1.75961-3.136867 2.641914-2.480262 2.131078-4.962186 4.26049-7.443002 6.390458-4.854781 4.167206-9.706794 8.3383-14.5311256 12.540487-9.2589077 8.063448-18.4408609 16.137446-26.802888 25.148718-8.4218192 9.076237-16.7572722 18.231876-25.1381228 27.345315-4.2164459 4.585315-8.4229264 9.196173-12.829821 13.598808-4.3149921 4.311574-8.8342736 8.407707-13.2699569 12.592682-1.6049733 1.514187-2.9054502 2.393715-5.1720113 2.277111-2.16469319-.111052-4.35097797-.995021-5.97145291-2.435914-3.57257424-3.174962-4.97159719-7.77749-3.68496113-12.370024 2.95915223-10.561551 10.23495734-19.397361 16.20530304-28.35755 7.0266717-10.544892 13.9409564-21.168077 20.8552412-31.787374 3.4673846-5.326029 6.9248038-10.659276 10.3694895-16.000296 1.5557002-2.412594 3.2763822-4.656944 4.0475887-7.455441.5691317-2.067779.7640094-5.216643 3.2403963-5.842418 1.5390913-.389236 3.6833002-.052195 5.2373396.156582 1.2500965.167688 2.4985321.426438 3.6124356 1.044439 1.8961826 1.053324 3.1894623 2.90011 3.6583869 5.010088.6067784 2.729645-.2878876 5.39488-1.1515504 7.963501-1.0208937 3.035592-2.3036543 5.97568-3.7414314 8.8347-2.8744468 5.71804-6.3434922 11.106258-9.6248571 16.59109-1.7638651 2.947862-3.5349274 5.891281-5.307097 8.834145-.8874688 1.473653-1.774384 2.947306-2.6590847 4.422625-.7180581 1.19769-2.3772872 3.067242-2.2870455 4.549779.7667775-.114938 1.4593686-.942272 1.9814417-1.454774.860341-.846212 1.705734-1.708527 2.5538951-2.565844 1.5988834-1.614689 3.1855869-3.241038 4.772844-4.867387 3.1722998-3.249366 6.3468141-6.498177 9.6187672-9.647041 6.8932469-6.63366 14.3589471-12.663755 21.7526754-18.721058 7.4513059-6.103944 14.9729228-12.120158 22.4823595-18.150808 3.691605-2.964519 7.281895-6.160026 11.12298-8.926318 3.197767-2.302652 6.997329-3.423162 10.881597-3.799071 3.243718-.313165 7.048264-.545263 9.730601 1.671325 2.226146 1.839012 2.798599 4.787984 2.359017 7.535398-.654391 4.086139-2.5013 8.218364-4.034302 12.03798-6.072767 15.135205-15.223163 29.455848-23.136196 43.699866-5.541283 9.976309-11.154537 19.91264-16.8375487 29.808437-2.781437 4.84351-5.7411429 9.612615-8.3841724 14.532751-1.6896787 3.145533-7.2215494 10.241167-7.2215494 13.688205-1.2357021 2.304318-2.4808159 4.603083-3.6844075 6.924615-.6150829 1.185474-1.2207541 2.375391-1.8280862 3.564752-.4943916.967814-1.514178 2.332081-1.3724487 3.465361.971067.293731 2.1198492-.982805 2.7786688-1.540839 1.0646305-.900627 2.1408872-1.787374 3.2143757-2.676896 2.1442089-1.777934 4.2939541-3.549205 6.4414848-5.323252 4.0780384-3.369302 8.1488796-6.749154 12.156607-10.203965 8.3005746-7.156157 16.2379676-14.728757 24.1615196-22.298581 15.937346-15.227378 31.949986-30.298174 48.664628-44.672677 8.35483-7.185031 16.809314-14.254012 25.336876-21.232487 7.762446-6.352144 15.627867-12.525496 23.993216-18.06863 8.197599-5.431528 16.782739-10.422736 25.881648-14.1807183 4.047589-1.6713247 8.438428-2.5675101 12.72131-1.2282293 1.109474.3470358 2.176319.830665 3.178389 1.4192378.887469.5213867 2.927042 2.4170358 3.848282 2.8279258 2.273759 1.014455 37.485732-53.5801157 53.813941-78.5444874 2.657424-4.0628182 5.441629-8.0429031 8.432338-11.8664054 1.399577-1.78959451 2.860606-3.52033175 4.435684-5.15834101 1.465458-1.5241815 3.219912-3.73854792 5.148205-4.66971454 2.719984-1.31373895 6.418232.41311149 8.792751 1.75183702 2.21452 1.24877384 6.227784 3.63082799 6.067785 6.6386572-.061453 1.14827223-.909061 2.21825323-1.457154 3.19717193-.694806 1.2415555-1.391826 2.483111-2.092168 3.7224455-26.666695 47.1696694-54.396913 93.3665277-77.849786 142.3679917-8.042583 16.803198-16.414576 33.582521-23.306715 50.863241-.933974 2.371504-1.850785 4.749116-2.770918 7.126173-.476676 1.233227-1.053558 2.47034-1.303799 3.776306-.198199 1.03722-.575221 2.510874-.321659 3.52755 1.274456-.219327 2.897699-1.569713 3.873195-2.424254 1.582275-1.387033 3.024481-2.976179 4.509317-4.468156 2.720537-2.731311 5.42502-5.478169 8.135592-8.21892 5.508065-5.569786 11.083672-11.0685 16.684747-16.543338 11.06817-10.81919 22.200008-21.573415 33.191224-32.470896 10.943604-10.85084 21.577175-22.031502 32.95261-32.434805 5.597753-5.120028 11.552043-9.822503 17.410002-14.634918 5.323706-4.372652 10.164093-9.388292 15.811672-13.3533848 2.68732-1.8867646 5.593324-3.6952379 8.887422-4.2160693 1.53577-.2432027 3.101435-.1998926 4.618935.1365933 1.087329.2404265 2.732717.6080069 3.423648 1.6174648.916257 1.3381702.108511 3.2654686-.509894 4.545892-.925669 1.916193-2.211198 3.668586-3.558179 5.306595-1.380754 1.676877-2.919845 3.107775-4.511531 4.581428-2.73161 2.530308-5.405643 5.123916-8.030957 7.765275-5.370764 5.402654-10.567689 10.98077-15.498871 16.790983-4.735751 5.579781-9.769908 11.156786-13.608778 17.412316-3.571467 5.820208-6.172974 12.174573-8.325488 18.642211-.512108 1.538063-.998748 3.084455-1.469334 4.635844-.421312 1.385922-1.100063 2.912325-.978818 4.385978.1982 2.406485 2.448706 3.113883 4.533676 2.640249 8.762302-1.992264 15.540947-10.682597 20.859671-17.341799 15.096382-18.900961 29.834565-41.391661 37.394936-64.558664.736328-2.2560109.844286-6.0917289 3.548215-7.0523241 2.301993-1.0733125 3.939631 9.6603681 3.321226 14.1390741-.497713 3.601954-1.261169 6.424883-2.586559 10.288364-.636675 1.85567-1.275564 3.242703-2.00248 5.065057-.571346 1.432009-1.480406 3.405949-2.197357 5.594218 1.21411.042755 2.658531-1.656888 3.514997-2.367617 1.281653-1.063318 2.561092-2.128857 3.83887-3.196061 2.769811-2.313203 5.534085-4.632513 8.313861-6.932944 4.994296-4.132781 10.05226-8.186715 15.221503-12.098503 9.91662-7.5043034 20.282234-14.4872202 31.458916-19.9753841 4.652706-2.2848841 9.5933-4.8096394 14.935829-3.8923542 4.036517.6929612 7.352207 3.2982288 9.574477 6.6686411 5.616023 8.5182034 4.656028 19.5539442.594599 28.4697112-2.577701 5.658628-6.098788 10.843066-9.246174 16.188529-1.954314 3.319884-4.001084 6.584242-6.047854 9.84749-1.022555 1.630235-2.044556 3.261026-3.057699 4.897925-.782279 1.263766-2.053413 2.82737-1.84857 4.431509 1.322622-.323715 2.522892-2.008366 3.439149-2.924541 1.369127-1.369819 2.755417-2.722426 4.15444-4.060597 2.696178-2.578615 5.447719-5.099483 8.246872-7.565381 5.577268-4.912918 11.346093-9.605398 17.262182-14.102427 11.842699-9.001833 24.265049-17.21409 36.972518-24.9316118 5.310972-3.2260454 11.891971-8.4832222 18.517815-6.564808 3.014515.8723094 5.954844 3.1355384 7.597464 5.8218736 1.548503 2.5319737 1.60442 5.4076512.733006 8.1883802-2.375626 7.580929-5.906124 14.689334-9.70458 21.636159-3.781292 6.915176-7.266947 13.923079-10.639107 21.047586-3.98226 8.412705-7.927427 16.843178-11.861522 25.279203-1.997497 4.2827-3.991672 8.566511-5.986401 12.850877-.967192 2.076662-1.93383 4.15388-2.902128 6.230543-.633907 1.359825-2.387806 4.043939-1.941581 5.661959 1.162623.166577 2.758185-.643543 3.790705-1.118843 1.204145-.555258 2.400539-1.128283 3.591951-1.710193 2.727181-1.330397 5.422252-2.726314 8.085766-4.179978 5.201907-2.837365 10.282569-5.894057 15.258596-9.111218 4.873604-3.149975 9.647002-6.454312 14.34566-9.860816 2.166354-1.570823 4.2934-3.199393 6.484667-4.7369 2.44317-1.71519 4.947792-3.283237 7.252-5.192767 8.211439-6.807456 13.913828-15.721002 20.304933-24.128154 6.492972-8.539859 13.702895-16.560552 21.820218-23.580671 4.184889-3.618612 8.606178-6.930167 13.225666-9.968535 4.730215-3.111107 9.314271-5.9490279 15.026625-6.7225014 11.890311-1.6096911 23.657163 1.7485055 31.033729 9.9518784 11.374327 12.659312-33.333508 37.860779-40.675195 42.451092-9.536276 5.962353-19.493311 11.131244-29.445917 16.344001-2.620885 1.373151-5.686888 2.576394-7.735872 4.7791-1.67307 1.797923-2.631957 4.22773-3.762469 6.38546-1.4793 2.824039-2.949187 5.65363-4.339906 8.5232-2.54393 5.249404-4.824331 10.647616-6.381139 16.280702-.732452 2.650243-1.098955 5.297711-1.184214 8.048456-.044844 1.43645-.035433 2.874012-.035986 4.311018-.000554 1.325955-.219791 2.822928.235292 4.091136 1.719575 4.78854 9.461537 2.004479 12.653213.83011 10.227207-3.76409 19.566945-9.614281 27.839284-16.686039 9.532954-8.149513 18.69996-16.765997 27.961082-25.223122 9.345827-8.534861 18.680029-17.081383 28.080112-25.556276 18.37664-16.56888 36.929888-32.903997 53.728129-51.115328 7.134629-7.7352908 14.919774-14.4222554 24.077921-19.9304086 8.847561-5.3215867 18.407089-3.3859594 23.615087-2.0522312 3.936309 1.0077921 10.745404 4.5880917 6.039549 8.4338043-3.374375 2.7496345-8.24964 2.3959355-12.31716 2.7984971-8.476628.8401045-17.18855 6.67697-21.153648 14.2623414-5.124399 9.804179-8.346525 20.892114-10.501253 31.702975-.574114 2.880675-1.06297 5.778008-1.472656 8.686446-.187127 1.327065-.357091 2.656351-.512107 3.987303-.149481 1.283755-.766778 3.359308-.302282 4.58365 1.179231.265968 2.607597-.709619 3.639563-1.206574 1.426151-.687409 2.858392-1.363157 4.287864-2.044458 2.727735-1.299857 5.45547-2.598604 8.183759-3.897907 5.455469-2.599159 10.910386-5.19943 16.360873-7.808584 5.450487-2.60971 10.897098-5.227748 16.335959-7.861334 2.61867-1.267653 5.295471-2.464232 7.81947-3.915675 2.352374-1.352052 4.594575-2.887894 6.966326-4.20663 2.190714-1.217679 3.681639-1.994485 6.111521-1.037776 2.068362.814007 3.70157 2.521424 5.154296 4.156101 2.623098 2.951749 4.300044 6.485407 3.979492 10.507136-.412455 5.179441-3.359427 10.157878-5.475401 14.79039-2.463653 5.393215-5.008136 10.748673-7.594142 16.084141-2.877215 5.936812-5.686887 11.934702-8.786661 17.758797-1.551272 2.91399-3.214376 5.766347-4.881356 8.614818-.83432 1.425345-1.669748 2.850136-2.494103 4.281034-.690377 1.197135-1.908362 2.714098-1.881788 4.149994 1.352518.139369 2.816869-1.437562 3.75804-2.227693 1.581167-1.327065 3.161227-2.655796 4.734644-3.9923 2.832371-2.405931 5.652562-4.824632 8.487147-7.227786 5.887855-4.992319 11.863737-9.859705 18.037265-14.493328 12.388024-9.300005 24.853003-18.498954 37.497912-27.445817 24.587814-17.396213 49.895901-35.668068 77.620583-47.6255352 13.718398-5.9168226 27.958314-10.6970334 42.69373-13.2773144 3.801777-.6651983 7.401479-.5102815 11.234259-.3209388 5.365786.2648578 9.730046 3.1538619 11.900826 8.1639492.4263.9833609.07308 2.7946104-.77508 3.5486499-1.2047 1.0705363-2.92981.955598-4.27513.2937312-3.30406-1.6257936-4.305025-2.1666143-8.029848-2.4919951-15.286277-1.3348387-29.651314 7.5753762-41.951311 15.5916272-9.056833 5.902386-15.326693 11.192323-23.256335 18.49951-4.224196 3.892909-8.571853 7.683652-12.359235 12.020212-2.448152 2.803494-4.57243 5.879065-6.862797 8.811379-12.572384 16.096356-22.88042 31.919525-30.632347 50.938756-.688162 1.687983-1.434455 3.371523-2.050092 5.087824-.405811 1.13217-1.097848 3.366525-.566363 4.50869 1.776598.334265 4.339351-1.444225 5.829723-2.233246 1.944902-1.030002 3.836102-2.159951 5.672493-3.372633 3.655065-2.414259 7.088678-5.155009 10.334611-8.096208 22.422568-20.314091 42.557536-43.619909 63.535683-65.415426 6.91041-7.178923 12.803247-15.222937 18.718783-23.237522 1.943242-2.633585 4.175478-6.27885 7.99331-5.294934 3.459634.892854 7.803968 1.667438 10.644085 3.998964 2.67293 2.193822 3.85881 5.580336 3.46351 8.985175-.5121 4.411519-3.39818 8.521534-5.392352 12.385015-4.656582 9.021267-9.357454 18.019768-13.868985 27.115439-4.954988 9.98908-9.377938 20.106425-13.350786 30.528051-2.014106 5.282163-4.039285 10.558219-6.199549 15.782635-1.051343 2.541969-2.117081 5.077829-3.164549 7.620908-.747954 1.816802-2.783651 5.095597-1.98421 7.156712 1.583382-.056636 3.493959-2.003369 4.695336-2.884562 1.702412-1.248219 3.403717-2.499213 5.102808-3.751874 3.512228-2.589165 7.018921-5.185549 10.529488-7.775824 6.909302-5.097263 13.83466-10.172871 20.845829-15.129098 12.89903-9.116216 26.15791-17.724371 39.79492-25.691204 13.56781-7.926854 27.50268-15.225712 41.78024-21.781636 14.36892-6.598123 29.13201-12.735939 44.23725-17.433971 8.72798-2.714653 17.68294-4.710248 26.76248-5.775787 4.55526-.534713 9.13821-.828444 13.72448-.873976 2.36899-.02332 4.73908-.009439 7.09699.247645 1.8912.206001 4.89907.302616 6.36176 1.749061-.96443.757926-2.73438.986692-3.91195 1.227674-1.34975.277074-2.70338.535268-4.05756.789021-23.83044 4.462048-46.44789 11.945252-68.7243 21.993189-19.34771 8.72698-38.39202 18.201892-56.36175 29.550798-21.11766 13.337282-40.18633 29.530808-59.317018 45.521665-8.860294 7.406578-17.58661 15.355088-27.374788 21.531771-2.084417 1.315405-4.240252 2.519203-6.478024 3.551426-2.312513 1.066649-4.678174 2.198264-7.279127 1.989487-1.937705-.155472-3.907521-.771808-5.54239-1.835125-2.644691-1.721298-5.726195-3.86126-7.778501-6.182236-3.428631-3.877918-6.166885-7.55039-6.20896-13.257325-.043184-5.949028 2.598739-11.770901 4.405787-17.340133 2.030715-6.254974 4.213678-12.453312 6.908195-18.456755 1.295494-2.885673 2.698392-5.723593 4.228072-8.491551.768992-1.39203 1.608849-2.739085 2.4022-4.115568.713076-1.237113 1.618261-3.080012 1.711824-4.518129-1.425597.800126-2.777561 2.384275-3.842745 3.604731-1.240685 1.421459-2.461993 2.860686-3.679979 4.302134-2.522338 2.986174-5.019763 5.993448-7.588052 8.940199-5.116649 5.870181-10.661806 11.297822-16.45942 16.488368-10.668449 9.550427-34.550386 36.053417-49.407046 18.266302-4.221429-5.055063-5.286613-12.733162-4.626132-19.093636.711414-6.856318 3.183372-13.632123 5.78488-19.970942 2.60649-6.349368 5.837474-12.432768 9.543473-18.203558 4.153886-6.469303 8.897941-12.544374 14.007946-18.280183 2.542822-2.854578 5.154849-5.665291 7.909711-8.31609 1.509749-1.451998 3.064896-2.855688 4.613399-4.266042 1.030859-.939495 3.98835-2.862907 4.009942-4.430954-1.476531-.435322-3.707107 1.70353-4.834297 2.42592-2.001926 1.283755-4.008281 2.560847-6.012975 3.839604-3.655065 2.332081-7.306255 4.67027-10.91703 7.071758-7.341133 4.882378-14.489604 10.068482-21.571638 15.320107-13.980264 10.368321-27.041503 21.67114-40.011392 33.266024-6.356226 5.68306-12.70304 11.43386-19.274628 16.866498-5.423913 4.484259-12.019307 10.090137-19.46563 10.046827-3.306832-.019434-6.752625-1.012234-9.202437-3.324881-2.980191-2.812934-3.178944-6.585352-3.372714-10.454386-.174947-3.47369.129549-7.214459 1.999158-10.238946 2.305315-3.730774 4.602879-7.467101 6.890478-11.20898 5.155956-8.433805 10.289767-16.905922 14.981781-25.610692 2.224485-4.125562 4.060322-8.442133 5.802042-12.790353.899649-2.245461 1.775492-4.500361 2.672926-6.746933.543111-1.360936 2.497978-4.40208 1.539091-5.881841-1.253418-.123822-2.547251.779026-3.613543 1.341502-1.276117.672416-2.558324 1.335394-3.837763 2.002813-2.813547 1.467545-5.626541 2.935091-8.439535 4.403746-5.114434 2.669678-10.227207 5.341576-15.338319 8.017917-5.366889 2.810713-10.729902 5.628089-16.091255 8.449351-2.298671 1.209351-4.540873 2.494216-6.774216 3.821282-2.195143 1.304299-4.626686 2.35318-6.737123 3.781858-1.393487.943937-2.360125 2.250458-2.528982 3.95954-.299514 3.046697-.46062 6.099502-.559166 9.155084m-570.937004 7.520961c.243597 1.2199 1.073489 2.101094 2.750434 2.426474 5.091181.988359 13.929884-7.482648 17.546195-10.483814 23.974946-19.899314 44.533442-43.266765 65.606813-66.097283.484426-.524718.698681-1.299857 1.03861-1.958393-.649408.03165-1.300477.041089-1.948224.098836-10.655163.951711-19.017743 7.322734-27.64053 12.558256-7.647845 4.643618-14.445314 10.770883-21.332471 16.583872-10.446444 8.816932-20.067979 18.528384-27.588489 30.00833-1.541305 2.353181-9.374062 12.144589-8.432338 16.863722m490.557128-76.031948c.460067-1.847341-.288441-3.373744-3.794026-3.721335-2.814101-.278739-6.051176 1.881767-8.402442 3.285458-5.949308 3.550871-10.944158 8.484333-15.579148 13.586593-7.132968 7.851894-13.689608 16.200744-20.123896 24.631217-.777296 1.018342-4.472223 8.011809-4.937826 8.132299.759581-.196561 1.557362-.525273 2.20677-.988913 4.381981-3.128875 8.664309-6.402673 13.113279-9.431602 6.992347-4.759666 13.53736-10.242833 19.827704-15.8898 4.810491-4.318792 9.783749-8.537082 13.902202-13.552722 1.365252-1.662996 3.288009-4.045605 3.787383-6.051195m61.048224 66.714174c-.961655.340928-3.051608 2.327083-3.883161 2.868459-5.061285 3.295453-10.095996 6.634215-15.085309 10.037943-3.791812 2.586944-7.571997 5.189436-11.340003 7.810806-3.480672 2.420367-11.660001 6.354365-11.140142 7.926854.172732.521942 7.745837.99169 8.524794 1.093857 5.869031.768476 11.826644.208222 17.661903-.585797 4.700873-.639101 9.654754-2.315423 11.336682-7.237779 1.435562-4.200522 4.077484-20.996503 3.925236-21.914343" mask="url(#a)" transform="translate(73 7)"/><path d="m165.93149 15.0822727c-.367796 1.7179432-1.438553 3.5343707-2.090077 5.158809-.858376 2.1378848-1.727259 4.2718966-2.679105 6.3704983-1.832896 4.0422843-4.172411 7.827292-6.502524 11.5957013-6.917885 11.1884851-12.98901 22.9070151-19.651926 34.2498661-18.861027 32.1075546-39.0367172 63.2584846-56.9768707 95.9220886-4.440654 8.084568-9.0499964 16.09721-12.9879035 24.442375-3.8621356 8.183053-8.2353142 16.136493-12.4403575 24.147475-4.2857924 8.165901-8.6119595 16.311331-12.8800535 24.486637-1.0447621 2.000671-2.0685074 4.011854-3.044688 6.046275-.5597138 1.166874-1.2698644 3.345701-2.8378373 3.490661-1.3041552.120063-2.4324319-1.261484-3.2863826-2.033867-1.533129-1.386527-3.1658118-2.655758-4.8001539-3.919456-5.1944977-4.014067-12.8645674-9.747736-11.882856-17.295067.5060653-3.889025 2.5325389-7.452167 4.3493963-10.857069 4.2028309-7.875428 8.7253403-15.58321 12.9735235-23.43706 8.744698-16.164157 17.9396005-32.040055 27.3020853-47.852877 11.3153991-19.108176 22.5091214-38.288278 33.8079282-57.4058589 9.7391297-16.4778688 20.3554397-32.4118606 29.9988877-48.9467175 1.497732-2.5677856 2.98385-5.1427638 4.430146-7.7398733.852844-1.5320402 3.137605-4.4810376 2.604439-6.3378547-1.051953-.1289149-2.107776 1.0462578-2.783083 1.6803199-1.152059 1.0822212-2.300247 2.1688687-3.452859 3.2516431-2.296375 2.157803-4.594962 4.3139461-6.89189 6.4711958-4.384794 4.1191906-8.764609 8.243914-13.119536 12.3940884-8.7137258 8.3036685-17.2963722 16.7379117-25.6876541 25.3674638-16.8832237 17.3620147-33.2299629 35.2701194-49.2288167 53.4487794-4.4688609 5.078583-8.8763303 10.22522-13.4580188 15.202552-2.1365359 2.321575-4.4235086 4.576202-6.79288983 6.660972-1.44518979 1.271444-6.01415759 2.2668-7.51576122.598099-1.32683135-1.475052.93525294-3.859701 1.90479664-4.896553 1.5668667-1.674787 3.14147647-3.342935 4.7100024-5.016615 3.22665031-3.444186 6.45219441-6.888925 9.67773861-10.333664 6.3542998-6.78546 12.7074935-13.57092 19.0678772-20.349741 12.6228728-13.4536254 25.2722933-26.8823526 38.0035692-40.2336202 12.2694566-12.8671452 24.8801617-25.3353734 38.0649606-37.2658108 6.593229-5.9666018 13.284906-11.8236537 20.038527-17.6076723 3.432395-2.9395916 6.880829-5.86092483 10.340878-8.76731946 2.803546-2.35532494 5.825005-4.39638525 9.434938-5.25065391 3.09004-.73143989 6.853175-1.05732346 9.123555 1.56357723 1.586778 1.8319194 2.387633 4.26636379 3.299104 6.48060162.719553 1.74782042 2.270933 4.49874252 1.858891 6.51767152"/><path d="m902.616241 112.950633c-2.593419.304475-5.056097-.768353-6.754613-4.086607-2.625541-5.130192-4.546656-10.7621078-.650891-15.6623673 2.745013-3.4524295 8.259834-6.6227472 12.629538-4.5332848 2.814328 1.3463386 6.032152 5.1565684 6.87352 8.2036055.453088 1.6439322.338689 3.3830486-.135813 5.0086316-1.355882 4.646818-6.90677 10.475982-11.961741 11.070022"/></g></svg>