<svg id="Capa_1" data-name="Capa 1" xmlns="http://www.w3.org/2000/svg" viewBox="0 0 737.21 164.48"><path d="M384.93,97.08a2.2,2.2,0,0,0-1.74-.54c-.53,0-1.05,0-1.57,0a66.71,66.71,0,0,0-14,2.9,82.29,82.29,0,0,0-11.75,5.73c-3.13,1.71-6.21,3.5-9.26,5.34-2.44,1.47-4.86,3-7.28,4.48-.28.11-.56.23-.83.32,2-4.07,4.74-7.91,7.08-11.78q3.34-5.52,6.67-11A68.05,68.05,0,0,1,361,81.44a2.11,2.11,0,0,0-.16-3.13c-2.42-.93-4-3.6-7-3.26a9.61,9.61,0,0,0-6.05,3.34c-3.72,4.15-6.94,8.73-10.83,12.77a120.34,120.34,0,0,1-14.13,12.56q-3.78,2.85-7.76,5.41c-1.64,1-5.13,3.54-7.22,2.56-.28-.13-.41-1.15-.24-1.62a24.14,24.14,0,0,1,2.55-6c4.52-6.57,10.2-12.13,15.54-18,2.75-3,6.34-5.24,9.51-7.88a34.21,34.21,0,0,1,7.53-4.82,26.49,26.49,0,0,1,8.41-2.3,27,27,0,0,1,3.48-.11c.57,0,1.15.09,1.72.08a6.54,6.54,0,0,1,2,.19A2.44,2.44,0,0,1,360,72.48a7.27,7.27,0,0,0,.47,1.23,1.88,1.88,0,0,0,1.12.71,2.83,2.83,0,0,0,1.68,0,2.15,2.15,0,0,0,1.05-3,5.38,5.38,0,0,0-2.67-2.3c-5.85-3-12-2.62-18-1-12.93,3.47-23.8,10.88-34,19.21-12.34,10.09-22.76,22.3-35.09,32.42-2.75,2.27-5.58,4.44-8.77,7,1.58-7.52,5.58-13.29,9.17-19.07,4.87-7.84,9.52-15.77,13.85-23.9.89-1.66,2.1-3.47.62-5.18-1.62-1.87-3.86-2-6.25-1.33-4.93,1.36-8.86,4.39-12.74,7.46-3.59,2.85-10.47,9.44-13.94,12.45,2.62-6.31,8.6-16.07,12.7-21.55.9-1.21,2.2-3.19,1.06-4.17a10.78,10.78,0,0,0-6.35-2.81,5.87,5.87,0,0,0-5.52,3.64,8.56,8.56,0,0,1-2.86,3.2,232.35,232.35,0,0,0-29,25.29,135.75,135.75,0,0,1-16.06,14.75c1-2.93,1.46-5.3,2.54-7.34,4.23-8,8.6-15.87,13-23.74,1.65-2.92,0-3.76-2.36-3.93a7.23,7.23,0,0,0-3.79.88c-7.58,4.14-14.33,9.5-21,14.91-3.25,2.62-6.2,5.6-9.91,9,1.16-1.75,1.83-2.83,2.57-3.86,3.59-5,7.58-9.75,10.69-15,2.75-4.68,9.67-8.13,5-15.59-1.46-2.33-2.67-4.47-5.36-4.45-2,0-3.34,2-4.32,3.63-4,6.66-8.08,13.38-13.35,19-4.11,4.41-9.43,7.73-14.35,11.34L166.21,103c-3.6,2.62-7.23,5.21-11,7.67s-7.51,4.77-11.44,6.84c-2,1-4,2-6,2.93-1,.45-2.06.88-3.11,1.3a8.9,8.9,0,0,1-3.18.89h-.29c-.8-.07-1.88-.48-1.87-1.39s-.09-2.11,0-3.17a27.19,27.19,0,0,1,1.62-6.52,12.7,12.7,0,0,1,1.9-3.65c1.28-1.6,3.06-2.14,4.86-2.91s3.87-1.72,5.76-2.67a98.37,98.37,0,0,0,10.87-6.37,97.18,97.18,0,0,0,13.7-11.24c1.95-1.92,4.33-4.17,3.2-7.43-1.43-4.13-10.28-7.3-14.22-5.37a106.19,106.19,0,0,0-14,8.61c-1,.77-23.57,13.89-24.42,14.55-5.34,4.12-10.78,7.46-15.93,11.5-.91.71-1.53,1.27-2.31,1.95A65.72,65.72,0,0,1,91.84,115c.24-.42.51-.87.74-1.28,1.74-3.17,3.7-6.1,5.52-9.22.73-1.26,1.63-2.44,2.44-3.66,3.28-5,7.45-10.23,10.46-15.1,1.49-2.41.51-3.2-1.06-4.35a4.12,4.12,0,0,0-.68-.38c-.85-.58-1.33-1.1-2.42-.9a3.57,3.57,0,0,0-2.42,1.78C99.07,89,93.67,96.5,89,104.06A58.72,58.72,0,0,0,85,111.5a9.12,9.12,0,0,0,.36,8.76,4.21,4.21,0,0,0,3.91,2.07,7.16,7.16,0,0,0,2.47-.5,28.71,28.71,0,0,0,7-3.71c3.58-2.69,6.67-5.35,10-8.1,2.68-2.19,5.31-4.3,8-6.45,0,0,7.48-5.18,9.78-6.79-.79,1.38-1.57,2.71-2.24,4.08-2.56,5.21-5.57,10.48-4.74,16.46,1.49,10.64,9.37,13.52,17.14,10.07A150.51,150.51,0,0,0,155.34,117c7.53-4.74,14.71-10,22.07-15.47-1,2.18-2,4-2.8,6-2.32,5.61-6.17,10.8-4.4,17.52a6.6,6.6,0,0,0,3.63,4.48c1.49.74,2.31-.51,3.46-1.59,4.73-4.43,8.2-9.87,12.4-14.72,5.34-6.16,10.67-12.26,17.36-17,2.69-1.92,5.25-4,8.83-6.75l-1,1.53c-4.43,6.77-9.37,13.34-10.05,21.8-.27,3.27.63,6.47,3.66,8.18,2.45,1.39,4.68-.56,6.29-2,5.73-5.27,11.17-10.84,16.78-16.25,4.08-3.94,8.24-7.81,12.37-11.71-2.22,4.61-4.76,8.89-6.85,13.43-2.74,5.95-4.61,11.74,2.1,16.47a1.28,1.28,0,0,1,.5.73c.36,1.79,1.93,1.49,3.09,1.66,1,.15,1.43-.86,1.93-1.61,2.64-4,5.06-8.12,8-11.84,5.05-6.31,10.26-12.54,16.45-17.8,4.06-3.45,8.25-6.75,13.39-10.92-4.06,7.63-7.91,13.8-11.55,20.09-4.11,7.09-9.26,13.8-10.29,22.31-.34,2.84.3,5.63,2.89,7.22s4.88.35,6.9-1.38c3.41-2.91,6.69-6,10.06-9,8-7.08,15.62-14.67,24-21.54-2.5,5.62-4,11.59,1.31,15.92,6.81,5.59,13.55-1.59,19.07-4-.56.25-.68,1.85-.75,2.36a22.34,22.34,0,0,0-.18,3.06,22.09,22.09,0,0,0,.85,5.94,9,9,0,0,0,1.2,2.77c1.28,1.83,3.08,1.76,5.13,1.79.9,0,2.26.18,3-.39,1.2-.92,2.49-1.73,3.77-2.54s2.28-1.64,3.46-2.43l8.17-5.56c1.6-1.09,3.21-2.18,4.84-3.22,3.11-2,5.87-4.22,9.19-5.85a84.21,84.21,0,0,1,13.94-5.6,19.46,19.46,0,0,1,4.77-1.12,4.73,4.73,0,0,0,2.18-.78A1.54,1.54,0,0,0,384.93,97.08ZM151.85,83.74c3.49-3.37,7.61-5.84,11.37-8.82.89-.71,1.52,0,2.2.33a1.16,1.16,0,0,1,.52,1.72c-2.64,5.66-7,9.78-11.91,13.43a194.72,194.72,0,0,1-18.9,12.71A121.19,121.19,0,0,1,151.85,83.74ZM609.47,98.21c.12.28-1.77,2.76-2,3.14-.65,1.08-1.27,2.17-1.89,3.27-1.25,2.2-2.48,4.42-3.86,6.55-2.73,4.24-6.28,7.84-11.14,9.6-2.76,1-6,1-8.45-.63a9.26,9.26,0,0,1-3.23-4.45c-.55-1.43-1.45-3.79-1.36-5.34a3.15,3.15,0,0,0-.79.56c-4.9,4.53-9.88,8.65-16.39,11-5.31,1.88-9.5-1.74-9.45-7.66.07-8.22,3.77-15.61,7.46-23.07.74-1.5,2-3.6,2.82-5.14-2.76,2.16-6.19,4.42-8.61,6.87-5.07,5.13-9.42,10.23-14.32,15.43s-9.45,10.8-13.82,16.48a69.72,69.72,0,0,1-6.53,7.67c-1.84,1.78-3.67,1.36-4.84-.91-2.05-4-1.64-7.9.17-12C518.43,108,524.37,97,530.67,85.85c.32-.56,1.09-1.66,1.49-2.28a168.62,168.62,0,0,0-12.28,12.68c-6.55,7.15-12.9,13.87-19.46,21-2.28,2.47-4.18,5.3-7.65,6.3-1.93.56-3.93.56-5-1.59-3.24-6.64-.54-11.8,2.61-18,1.15-2.24,2.37-4.38,3.57-6.54-2.63,1.15-4.65,3.49-6.88,5.07-4.87,3.46-9.21,7.58-14.18,10.65-2.46,1.53-5.28,2.91-7.57.7-2.6-2.5-2.17-5.84-.57-8.94,3.76-7.28,9.45-13.19,14.83-19.38,2.84-3.28,5.89-6.37,7.62-10.39.56-1.29,1.77-1,2.67-.53,1.82,1,3.09,2.33,2.65,4.43-1,4.66-4.2,7.51-7.17,11.06C480.31,96.16,475,102,470.53,108.61c4.64-3.22,9.75-6.63,14.25-9.86,5.28-3.78,10.2-7.36,15.29-11.14,1.93-1.45,2.7-4,4.8-5.08,1.31-.66,2.82-.81,3.66.43,2,2.91,3.44,4.53,1.24,8.17-3.44,5.69-7.27,12.43-10.52,18.47,2.86-2.72,6.14-5.79,9-8.48,10.26-9.81,19.68-19.84,31.31-28,2-1.37,4.14-1.35,5.62.6s1.06,3.7,0,5.72c-2.77,5-5.53,10.09-8.29,15.16A152.76,152.76,0,0,0,528.26,112c4.08-4.35,7.93-8.8,12.15-13.07A141.07,141.07,0,0,1,561.17,81c2.07-1.4,5-2.12,6.84-.24,2.35,2.37.7,5.27-.45,7.76-4,8.65-8.12,17-10.36,26.16-.24,1-.66,2.33-.1,2.88.91.9,1.93-.15,2.74-.64,7.74-4.66,15.61-7.61,19.88-16.27,4.61-9.33,11.79-16.51,20.56-22.59,5.12-3.55,13.2-4.73,19.49-3.74a3.21,3.21,0,0,1,2.58,3.32c-.22,1.47-1.07,1.76-2.33,2a1.29,1.29,0,0,1-.86-.21,8.42,8.42,0,0,0-2.56-1c-2.78-.54-5.62.87-8,2.15A30.91,30.91,0,0,0,602,85.42a52.85,52.85,0,0,0-9.73,13,63.37,63.37,0,0,0-3.72,7.47c-1,2.41-2.25,4.51-2.19,7.21a2.53,2.53,0,0,0,.4,1.53,2.37,2.37,0,0,0,2.5.52c2.78-.75,4.44-3.3,6.12-5.42q3-3.78,5.89-7.63,3.33-4.44,6.54-9,1.63-2.31,3.23-4.64c.83-1.21,1.27-2.82,3-2.37,4.17,1.1,6.18,2.15,4.65,6.63-3.48,10.15-7.15,20.64-11.27,30.6a113.37,113.37,0,0,1,16.18-1.11c.57,0,.72-.17.6-.78-2.24-11.53,1-20.29,7.66-29.7a42.1,42.1,0,0,1,9.21-10,101.48,101.48,0,0,1,10-6.38c3.21-1.8,6.45-3.47,10.14-4a6.51,6.51,0,0,1,6.63,3.27c.88,1.4-.18,2.71-1.33,3.39-1.74,1-4,1.15-5.51,2.4a112.5,112.5,0,0,0-24.93,29.32c-1.76,3.08-4.31,6.16-4.24,9.91,0,3.48,1.66,4.58,4.87,2.67,7.36-4.38,13.49-10.59,19.49-16.88a47.92,47.92,0,0,0,9.56-14.65c.49-1.19.7-3-.5-3.41a2.51,2.51,0,0,0-1.41,0l-6.61,1.39c-.76.16-1.72.25-2.16-.4-.66-1,.67-2.06,1.77-2.46a90,90,0,0,1,14.21-3.54c24-4.5,49.3-7.22,72.45.56.68.23,1.47,1,.89,1.47-23.09-3.87-47-3.86-69.72,1.85a3,3,0,0,0-1.72.87,3.18,3.18,0,0,0-.46,1.51c-1,7.13-4.78,13.58-9.11,19.32a96.27,96.27,0,0,1-17.58,17.87c-4.94,3.85-11.3,6.13-16.74,1.69-3.26-2.66-6-2.46-9.52-2-4.68.66-8.89,1.53-13.28,2.5-2.63.58-2.59,3.2-3.6,4.94-7.06,12.06-15.36,21.76-27,29.4-7.34,4.83-15.18,7.66-23.57,9.88-3.91,1-7.64,1-11.75.89a3.33,3.33,0,0,1-3.56-3.17c-.82-6.85,3.7-11.09,8-15.62a104.16,104.16,0,0,1,24.91-19.06c9.33-5.27,18.73-8.11,29.11-10.17a2.14,2.14,0,0,0,1.74-1.37c4.06-7.92,6.69-16.26,9.07-24.86A5.32,5.32,0,0,0,609.47,98.21Zm-12,31.77a9.14,9.14,0,0,0-1.2.16,109.73,109.73,0,0,0-26.89,11.09,118.53,118.53,0,0,0-13,8.71c-5.23,4-10.46,8.94-13.73,13.69-.41.54-.62,2,.68,2a21.33,21.33,0,0,0,4.59-.9c12-3.58,23-8.27,33.17-15.83C588,143.77,593,137.19,597.47,130ZM51,126.55c3.51-4.46,6.33-8,9.09-11.55C71.91,99.7,82.87,83.71,95.32,68.86,106.6,55.4,118,42.05,131,30.16c9.9-9.09,20.65-17,33.9-20.75a21.59,21.59,0,0,1,10.14,0l.09,0,.28.06a5,5,0,0,1,.85.21,1,1,0,0,1,.31.2,1.79,1.79,0,0,1,.18.32,1.27,1.27,0,0,1,0,.67,2.77,2.77,0,0,1-.25.69A2.58,2.58,0,0,1,175.17,13c-3.53,1.6-7.11,3.08-10.64,4.66-11.52,5.16-21.48,12.61-30.76,21C124.2,47.34,115.28,56.7,106.34,66a300,300,0,0,0-20.89,24.8c-8.14,10.61-16.66,20.93-24.72,31.59A53.62,53.62,0,0,1,50.4,132.51a4.71,4.71,0,0,1-5.43.06c-7.46-4.37-7.82-5.24-6.11-13.41,1.35-6.47,3.92-12.5,6.39-18.61,6.09-15,13.8-29.24,22-43.19,6-10.31,11.36-21,16.9-31.55.3-.59.65-1.15,1.21-2.1.12-.19,0-.42-.25-.31-3.92,2.07-7.42,3.82-10.81,5.77-10.47,6-20.16,13.2-30,20.12C37,54.35,29.42,58.9,21.83,63.42c-5.12,3-9.19,2.39-12.88-1.37a5.91,5.91,0,0,1-1.55-4,1.89,1.89,0,0,1,1.14-2,2,2,0,0,1,2.48.79c2.32,3.18,4.71,1.72,7.24.39C31.88,50.16,43.93,40.63,56.57,32c9.27-6.33,18.78-12.25,29.64-15.49,3.34-1,6.85-1.87,10.19.5s4.54,8.65,3,12.26C94.65,40,87.46,49.35,82.08,59.73c-5,9.59-10.59,18.85-15.41,28.52C60.7,100.24,54.63,112.24,51,126.55Zm372.52,1.18c6-1.61,11.59-3.45,17.35-4.62,11.14-2.27,22.29-5.1,33.8-2.69a26.76,26.76,0,0,1,5.15,1.89,2.09,2.09,0,0,1,1.24,2.45c-.62,1.69-2.39.83-3.48.81-6.91-.11-13.77.49-20.65,1-9.72.73-19,3.44-28.46,5.38-6.95,1.42-13.63,3.85-20.39,6a9.72,9.72,0,0,1-4.59.59,3.83,3.83,0,0,1-2.34-1.16c-.52-.59-1-1.8-.27-2.42a3.44,3.44,0,0,1,1.17-.52c1.11-.35,2.25-.71,3.37-1.11s2.23-.87,3.34-1.32l.31-.12c.71-.25,1.42-.49,2.11-.78a15.94,15.94,0,0,0,2.94-1.7,23,23,0,0,0,6-7,34.86,34.86,0,0,0,1.72-3.91c.74-1.61,1.5-3.2,2.27-4.79q4.64-9.53,10.07-18.63c.49-.82,1-1.64,1.48-2.45,5.45-9,10.15-18.43,15.11-27.7,7-13,14.85-25.42,22.48-38,2.62-4.34,7.62-4.51,10-.16,1.45,2.71-.13,5.71-1,8.5C479.69,43.75,474,50.52,469.54,58c-6.85,11.44-14.17,22.59-20.84,34.16-4.32,7.49-9.51,14.49-14.5,21.57C430.87,118.41,428,123.47,423.48,127.73ZM122.89,61.42c1.34.26,3.11,1.8,3.16,3.09.22,5-4,10.09-8.1,10.18-2.39,0-3.49-1.51-3.55-3.66-.13-4.37,3.3-9.65,8.11-9.65A1.69,1.69,0,0,1,122.89,61.42Z" transform="translate(-7.4 -8.81)"/></svg>