<svg id="레이어_1" data-name="레이어 1" xmlns="http://www.w3.org/2000/svg" viewBox="0 0 2400 400"><defs><style>.cls-1{fill:#393435;}</style></defs><path class="cls-1" d="M635.19,146.69c.79,3.1-.31,3.9-2.24,5.78-1.67,1.62-3.32,3.39-5,5-1.93,1.79-4.86,3.74-7.33,1.75a9.36,9.36,0,0,1-3.16-6.59,14.78,14.78,0,0,1,.34-4.72,7.81,7.81,0,0,1,7.44-6.52c4.41-.3,8.74.38,10,5.3M857.7,162.94a123,123,0,0,0-17.37,16.39c-11,12.54-21.1,25.91-31.31,39.07-4.31,5.56-8.34,11.24-12.25,17.1-2.86,4.29-8.9,16-15.09,16.09-4.68.1-8.47-6.79-9.69-10.43-2.41-7.2,1-14.28,4-20.7,7.25-15.32,15.29-30.27,23.73-45,4.47-7.77,9.12-15.14,12.37-23.5,2.73-7,8.07-5.24,13-1,12.55,10.8,1,27.85-4.21,39.4a191.89,191.89,0,0,1,33.13-33c5.22-4,28.45-21.85,32.22-9,1.1,3.74.54,9.49-2.65,12.13-2,1.61-5,2.17-7.05.61-2.24-1.66-1.39-6.49-3.34-7.55-2.78-1.52-13.06,7.51-15.52,9.41M588.58,281.07c-2,7.28-20.42,2.66-25.14,1-17.63-6.06-33.9-21-45.88-34.83-14.44-16.69-24.75-35.53-33.56-55.56-.93-2.13-1.06-2.6-3-2.39-4.47.5-11.82,1.25-20.71,2.17-11.86,23.16-22.29,47.07-33.9,70.34-2.82,5.64-5.52,14-12.06,16.48-6.74,2.57-10.11-5.55-11.06-11.05-1.25-7.17,1.61-14.38,3.94-21,2.84-8.12,6.23-16,9.86-23.85,14.29-30.79,29.46-62.27,50-89.44,11.24-14.9,22.47-29.75,33.49-44.81,2.77-3.77,5.43-7.92,8.88-11.11,2.84-2.64,4-2.32,7.19-.53,5.12,2.89,9.19,5.79,9,12.34-.13,3.79-5.06,8.91-7.08,11.83q-4.62,6.63-9.2,13.24c-12.47,18-25.47,35.71-36.49,54.62-2.13,3.65-4.18,7.32-6.19,11,23-5.47,45.92-14.65,67.6-22.52,21.31-7.73,42.9-17,62.53-28.55,13.75-8.08,35-22.17,25.67-40.92-9-17.94-35.23-23.15-53.14-25.67-43.74-6.18-92.62-6.32-134.15,10.26-18.58,7.43-38.28,17-51.47,32.43-3.37,4-3.81,5.19-3.06,10,.51,3.22-.88,7-5.16,5.85-8.35-2.31-3.86-17-1-21.45,5.61-8.65,15.85-14.86,24.41-20.27A202.69,202.69,0,0,1,428,63.55a200.08,200.08,0,0,1,64.2-15,341.26,341.26,0,0,1,68.6,1.88c20.19,2.67,42.35,7.5,59,20,14.48,10.92,23.12,28,16.58,46-6.32,17.35-27,29.7-42.36,38.08A304.31,304.31,0,0,1,533.48,179c-5.3,1.53-28.66,7-28.86,7.63-.56,1.7,14.26,21.38,16.71,24.64,13.74,18.3,28,35.18,46,49.45,3.87,3.07,7.87,6,11.64,9.18,2.6,2.21,10.73,7.09,9.64,11.17m76.22-60.89c-.17.29-.3.55-.41.75-1.58,3.27-3.36,7.41-6.19,9.77-2.47,2.05-5.74,2.64-8.89,2.59-3.78-.07-6.48-2.22-8.16-5.56a4.47,4.47,0,0,1-.56-3.06,4.09,4.09,0,0,1,2-2.29,62.25,62.25,0,0,1,14-5.83c1.4-.44,2.74-1.05,4.15-1.49s3.59-1.27,5-.59c1.84.9.07,4-.91,5.71M805.53,109.64c2.5-2.09,6.28-1.9,9.35-2.24q5.58-.62,11.18-1.09c17.94-1.49,36.41-2.69,53.31,4.75a59.08,59.08,0,0,1,7.72,4c1.75,1.08,3.43,2.25,5.06,3.49.71.56,4.1,4.25,4.61,3.92,1.29-.87-2.87-10.43-12.08-16.14a71.06,71.06,0,0,0-21-8.73c-13.76-3.29-27.87-3.31-41.93-3.15-1.89,0-8.84,1-9.44,0s4.67-9.3,5.26-11.13a15.6,15.6,0,0,0-.18-11.27c-2.14-5.26-6.93-10.63-12.52-6.58s-10,11.6-13.72,17.45c-2.25,3.53-4.14,7.26-6.3,10.85-1.64,2.75-2.07,2.94-5.29,3.25-18.1,1.81-36.14,3.49-54.2,5.64-9.1,1.08-18.22,1.86-27.35,2.5-6.16.43-14.79,2-20.1-1.86a7.24,7.24,0,0,1-3.18-7.45c.42-2.71,3.76-5.71,3.48-8.31-.73-7-9.61,4.23-10.53,6.27-6.27,14.07,2.57,32.61,17.83,35.52,5.87,1.14,11.92.46,17.84-.33q21.1-2.84,41.91-7.46c3.62-.81,7.22-1.67,10.83-2.53s15.7-3.84,16.59-4.16c-1.61,3.81-4.09,7.52-6.06,11.19-9.27,17.33-18,34.95-26,52.89-.9,2-1.71,4.05-2.5,6.11s-1.65,4.07-2.54,6.09a10.44,10.44,0,0,1-2.36,3.72c-2.28,2-6,2.62-8.87,3.26a88.69,88.69,0,0,1-10.66,1.6c-2.46.23-4.93.4-7.41.56-3.38.22-6.77.55-10.17.69a31.17,31.17,0,0,1-6.69-.07s-.76-.14-.74-.21c2.47-10.49,8-20.89,12-30.86,3.61-9.1,7.27-18.43,15.36-24.52,2.84-2.14,6.26-4.07,2.19-7.46-2.23-1.86-6.57-2.45-9-1.08-1.36.77-2.09,2.33-3.25,3.31a27.21,27.21,0,0,1-5.72,3.28C695,146,690,148.91,685.12,152c-19,12.07-36.77,26.63-53.19,42-8.71,8.17-17.12,16.64-25.6,25-6.53,6.47-13.21,14.85-21.59,19.27a1.37,1.37,0,0,1-1.89-1.74c1.89-4.36,5.74-8.83,8-12.48,3.73-6,7.46-12,11.1-18.05,5.62-9.28,14.08-21.15,13.49-32.62-.16-3-3.13-8.59-7-7.75-3.24.69-5.2,7.6-6.54,10.09-5.57,10.41-11.49,20.63-18.07,30.43-5.22,7.75-11.84,15.46-12.08,25.26-.22,9.06,7.46,20.28,17.12,14.36,9.29-5.7,17.06-15,24.65-22.69Q626,210.49,639,198.43a406.51,406.51,0,0,1,54.34-42.72c-2.45,7.29-5.85,14.07-9,21q-4.14,9-7.48,18.35c-1.24,3.46-2.35,9.3-6,11.12a75.91,75.91,0,0,1-8.06,2.38l-18,4.42a66,66,0,0,0-13,4.48,5.18,5.18,0,0,0-2.89,2.9,6.24,6.24,0,0,0,0,3.73c1,3.9,3.51,7.36,6,10.42a38.49,38.49,0,0,0,7,7c4.9,3.42,10.66,5.87,16.88,5.7,10.81-.29,18.71-11.69,22.1-20.86a94.37,94.37,0,0,0,2.64-9.29c.53-2.06,1.06-4,3-5.19a9.34,9.34,0,0,1,3.84-1.06c7.21-1,14.37-2.4,21.46-4,1.44-.31,2.87-.65,4.3-1,2.88-.68,12.49-3,12.91-3.09,1.79-.41-2.56,8.48-3.37,10.59-1.07,2.82-2.16,5.63-3.22,8.45-1.78,4.76-3.5,9.54-5,14.38-3.12,10-4.85,20.64.24,30.33,1.29,2.47,4.3,8.25,7.6,8.51,3.69.29,7.2-5.2,8.93-7.88,5.11-7.87,7.87-17.61,11.21-26.32a1179.4,1179.4,0,0,1,55.22-122.56c1.48-2.87,2.45-6.45,5-8.6m99.62,55.08c1.52-1.77,3.07-3.53,4.64-5.26q4.62-5.11,9.48-10c3-3,6.23-5.83,10.45-7.06l.21,0c1.94-.54,6.56,0,7.74,2,2.34,3.86-6.48,11.54-9,14.12-5.14,5.33-10.8,10.56-16.12,15.68-9.81,9.45-39.62,38.42-32.8,25.5,3.49-6.6,8.25-12.86,12.64-18.89,4-5.52,8.3-10.88,12.76-16.07m222-34.63a55.1,55.1,0,0,0-6.31-1.29,130.76,130.76,0,0,0-21.58-1.16c-7,.1-14.09.94-21.07.73a14.77,14.77,0,0,1-3.85-.58,1.19,1.19,0,0,1-.57-.29,1.23,1.23,0,0,1-.29-.62c-.65-2.72,1.14-5.06,2.37-7.32,2.37-4.37,6.15-8.59,7.37-13.47,1.12-4.39,0-11.59-1.89-15.68-6.19-13.09-15.46,2.69-19.4,8.74-8,12.3-13.9,36-32.85,31.6,2.23.52,5.39-6.78,6.12-8.16,1.86-3.46,4.69-7.64,4.59-11.69-.18-7.23-6.84-16.91-14.57-11.25-4.36,3.17-7.47,9.28-10.56,13.56-2,2.72-4,5.42-5.84,8.2-7.93,11.88-9.13,13.91-20.4,14.55-9.38.52-21.5,2.83-30.66.53-4.19-1.25-4.76-4.34-7.67-6.67-3.48-2.79-5,1.12-5,4.53.21,10.12,8.13,16.53,17.66,17.37,2,.17,27-.52,27.14-.89-2.53,6.58-6.54,12.84-9.8,19.09-7.68,14.75-19.06,22.84-32.2,32.44-9.8,7.15-20,13.69-30.3,20.13-9.7,6.08-19.77,11.57-31,14.22-3,.72-6.31,1.91-9.25.38-4-2.07-5.62-8.6-5.56-12.52.06-5.93-.48-8.08,6.53-11.44a84.3,84.3,0,0,0,12.44-7.25A303.57,303.57,0,0,0,938.68,163c4.76-5.26,11.12-11.21,7.08-18.94-2.83-5.4-10-7.31-15.61-7.74-6.81-.52-12.91,1-18.14,5.43a220.49,220.49,0,0,0-23.56,22.89c-7.7,8.74-15.39,17.85-21.09,28a66.8,66.8,0,0,0-4.27,9.35,29.47,29.47,0,0,0-2,8.06c-.14,1,0,2.13-.59,3-.42.62-3.59,2.22-4.24,2.52-1.44.62-11.81,5.86-12.65,7.26-2.41,4,13.14-.3,16.47-1.05a71.32,71.32,0,0,0,2.43,11.57,35,35,0,0,0,4.41,9.23c9.18,12.93,25.87,7.57,38,2.5,19.82-8.27,36-21.77,53.8-33.46-2.05,12.19-12.11,23.89-8.52,36.68,1.19,4.25,3.58,11.53,8.82,11.91,6.57.5,8.4-7.38,10.28-12a846,846,0,0,1,37.07-79.36c1.66-3.14,4.56-8.19,6.36-11.25,6-10.17,4.77-10.58,15.56-14.59a38.08,38.08,0,0,1,6-1.68c3.93-.76,4.56-.21,2.84,3.67-11.42,25.89-20.38,52.41-29.1,79.3-3.66,11.33-9,22.85-11.63,34.43-1.27,5.58-.7,11,2.58,15.78a12.38,12.38,0,0,0,5.93,5c2,.8,9.24-.18,10.73-4.17q1.86-5,3.61-10c2.58-7.37,5-14.82,7.25-22.28,4.3-14,8.36-28.11,13.06-42a276,276,0,0,1,14.63-35.31c3.68-7.3,7.39-18.07,13.59-23.68,7.62-6.87,22.17-4.67,31.63-4.87a160.65,160.65,0,0,1,35.14,3.12c23.64,4.75,1.94,40.84-5.44,51.46A127.9,127.9,0,0,1,1107.39,216c-7.32,6.28-23.82,18.63-27.42,16.58-5-2,6.84-25.5,11.43-36.92,4.09-10.18,9.22-20.37,16.68-28.62a55,55,0,0,1,13.11-10.72c3.73-2.17,11-2,13.2-6.3,0-.08.08-.14.11-.21,1.83-4.44-4.44-5.1-7.65-4.83-7.76.62-14.84,5.57-21.1,9.8-16.5,11.14-30.4,26-38.66,44.24-6.72,15-12.77,42.12,7.79,49.54,10,3.63,20.78-.41,29.49-5.57,11.26-6.68,21.15-15.67,30.19-25.06,8.74-9.09,16.63-19.38,21.59-31a59,59,0,0,0,4.33-15.24c1.46-10.74-3-21-10.51-28.56a49.55,49.55,0,0,0-22.86-13"/><path class="cls-1" d="M1592.76,142.81c5.27,1.42,10.91,5.59,10.91,11.67,0,8-11.05,8.72-16.67,10.11-7.11.07-10.14-5.58-7.77-11.8,2.63-6.88,5.63-12.12,13.53-10m-273-87.2a10.1,10.1,0,0,1,3.52,1.47c1,.6,2,1.28,3.09,1.87a28.25,28.25,0,0,1,6.37,4.69,23.09,23.09,0,0,1,6.29,12c2,10.93-1.15,22.5-4.8,32.74-3.56,10-8.22,19.52-12.83,29.07q-13.07,27-27.51,53.38c-9.44,17.28-20.48,33.35-31,50s-19,33.78-27.2,51.56c-2.34,5.06-7.9,19.38-15.58,15.13-7.88-4.36-7.13-16.54-5.64-23.89,3.9-19.29,11.3-36.81,19.78-54.47,8.8-18.35,17.56-36.73,27.21-54.65,10.85-20.15,22.15-40,32.7-60.34,5.14-9.85,10.13-19.78,14.86-29.83,2.41-5.09,5.39-10.34,7.16-15.7.75-2.27.58-4.7.73-7.05.11-1.77-.22-5.48,2-6a2.53,2.53,0,0,1,.88,0m107.48,143.82c-11.8,11-35.59,32.93-38.34,29.13s17.29-27.14,28.9-38.78a120.9,120.9,0,0,1,16.82-14.32,85.08,85.08,0,0,1,9.07-5.49c2-1,8.21-5,10.41-4.37,4.75,1.36-7.4,14.24-9.4,16.47-5.49,6.1-11.48,11.77-17.46,17.36M1530,165.3c3.46-6.89,7.17-13.66,11.18-20.24,7.92-13,16.88-25.49,25.91-37.73,8.82-12,18.49-23.36,28.24-34.56a141.24,141.24,0,0,1,14.77-15c2-1.69,4.74-4.73,7.28-5.55,1.77-.58,12.89-1.23-3,25.34-1.9,3.18-3.65,6.44-5.52,9.63A219.4,219.4,0,0,1,1584,121.07c-10.27,11.71-21.13,22.92-31.85,34.22-5.25,5.53-10.49,11.08-15.82,16.53-4.54,4.65-14.15,16.6-15.79,15.11-2.3-.78,6.32-15.55,9.37-21.63m-24.38,116.47c-8.63,1.54-3.29-22.14-2.72-26.27a286.91,286.91,0,0,1,8-37.39c3.32-12.07,9.45-19.64,18.34-28.28,16.3-15.88,32.72-31.44,48.15-48.19,15-16.28,29.84-32.57,40.85-51.89,5.31-9.32,11.25-19.6,14.15-30,.94-3.36,2.9-11.58.86-14.75-1.29-2-4.92-2.4-7-2.73-8.29-1.25-14.68,1.51-21.39,6.32a224.65,224.65,0,0,0-23,19.57c-15.61,14.82-29.7,31.6-43.17,48.37a265.13,265.13,0,0,0-33,52.81A230.55,230.55,0,0,0,1494,198.61c-2.38,7.6-4.13,15.81-9.71,21.85-3.24,3.5-7.61,5.67-11.37,8.54-4.16,3.18-8,6.69-12,10.08-8,6.78-15.13,14.4-23.62,20.57a.86.86,0,0,1-.68.25c-.25,0-.42-.29-.53-.52-1.44-2.84-.28-6.56.2-9.5,1.74-10.85,6.59-20.76,11.45-30.55q4.65-9.36,10-18.35c3.3-5.55,6.42-11.72,10.53-16.7,2.11-2.54,4.49-5,5.71-8.14,1.49-3.95-.56-7.3-3.25-10.14-3.29-3.48-6.12-3.46-10.5-4.58s-8.05-3.49-12.88-3.27-9.37,2-13.59,4.11c-8.94,4.39-17.25,10.16-25.27,16-32.75,23.91-63.33,50.34-89.34,81.52-3.26,1.55-1.72-2.45-.31-5.43.85-1.8,1.68-3.62,2.58-5.42,1.94-3.84,4.08-7.58,6-11.43,4.37-8.61,8.28-17.44,12.19-26.28s8-17.83,12.54-26.51c3.64-7,7-15.61,13.82-20.08,5.59-3.68,12.61-5.43,18.77-8,8.8-3.59,18-5.91,27-8.87,17.68-5.81,35.46-8.2,54-12-4.86-4.72-12.35-4.94-18.78-5a165.87,165.87,0,0,0-22.6,1.33c-16,2-31.7,5.92-47.24,10.2,4-6.57,7.66-14.18,12.27-20.32,3.37-4.51,8.35-7,3.28-12.89-1.75-2-4.19-3.3-6.48-4.62-3.86-2.23-4.42-3.1-7.62.16-5.91,6-10.51,13.49-15.1,20.53-5.35,8.18-10.71,19.79-18.5,26-3.54,2.82-11,5.79-15.49,3.31-3.27-1.82-4.9-10.06-8.86-3.57s.6,15.16,5.87,19.44c1.88,1.54,4,1.53,6,2.63a1.7,1.7,0,0,1,1.09,1.91c-.13,1.38-1.22,2.84-1.88,4-1.4,2.46-2.81,4.89-4.11,7.39-3.49,6.67-7,13.33-10.34,20.06-7,13.93-13.83,28.17-18.85,43-2.54,7.46-1.77,12.46,2.9,18.77,2.9,3.89,6.23,10.57,12,8.48,6.22-2.25,12.32-8.4,17.16-12.75,5.09-4.58,9.86-9.49,14.59-14.43,11.23-11.71,30.82-31.11,41.84-43-4.29,5.92-7.63,17.32-6.75,22.41s3.72,10.7,9.43,11.4c6.49.79,12.2-4.64,16.92-8.25,5.76-4.42,11.73-8.53,17.58-12.83-5,9-13.39,19.23-13.85,29.84-.24,5.35,2.2,10.38,5.6,14.37,3.13,3.69,7.87,8,12.83,8.82a16.23,16.23,0,0,0,11.12-2.51c2.83-1.81,5-4.24,7.5-6.41s5.26-4.46,7.87-6.71q11.27-9.77,22.58-19.46c1-.84,2-1.68,2.94-2.53.42-.36,2.69-1.82,2.72-2.32-1.05,16.23-3.9,35.84,6.91,49.6,2.27,2.88,5.85,7,9.33,8.45,3.88,1.57,9.23-1.66,12.59-3.6,6.87-4,19.83-17.42,17.83-19s-9.25,6.5-14,9c-2.54,1.33-7.48,4.56-10.42,5.09m336-143.76c8-3.65,36.58-3.59,51.61,7.71a.56.56,0,0,1-.42,1l-51-7.25c-1.5-.21-1.59-.83-.21-1.46m187.68,9.77c-1.07-3-5.51.6-7.76,1.44a70.79,70.79,0,0,1-13.45,3.51c-19.51,3.3-40.29,3.47-59.94,1.55-8-.77-16.13-.94-24.1-1.85-9.36-1.08-12.81-7.65-20.13-12.36-14.83-9.51-35-12.85-52.06-8.61a82.24,82.24,0,0,0-14.2,4.49c-2.41,1.08-6.11,2.82-3.46,5.84,2.16,2.48,8.92,3.53,12.27,4.33,5,1.17,10.07,2,15.16,2.75,9.14,1.22,18.23,2.5,27.34,3.9,3.2.5,7.76,1.12,10.63,2.82,3.21,1.91,4.37,5.41,5.22,8.89,4.07,16.89-8.87,35.11-16.2,49.34-8.18,15.85-18.72,27.65-31.79,39.58-5.78,5.26-12.37,11.4-20.09,13.6-10.41,3-10.15-5.63-9.37-13.45,1.86-18.45,12.29-34.18,23-48.72,5.09-6.9,9.69-14.27,15.14-20.88a62.53,62.53,0,0,1,10.21-9.5c2.37-1.83,7.58-4.65,8.58-7.62,1.38-4.1-2.62-5.21-5.52-4.16-4.37,1.57-8.7,4.84-12.63,7.28-7.23,4.47-13.28,10.43-19.68,16-14.07,12.12-29,22.76-42.37,35.78-12.74,12.43-24.87,25.41-37.68,37.76a.57.57,0,0,1-.93-.58c5.06-14.85,12.53-28.66,20.17-42.33,3.78-6.75,7.41-13.6,11.14-20.4,2-3.76,6.65-9,5.36-13.68-1.76-6.34-9.12-8.19-14.28-5.39-7.43,4.06-14.2,10-20.58,15.49-12.5,10.8-24.2,22.37-35.69,34.24,0-3.6,3.85-8,5.58-11q3.13-5.34,6.28-10.67c4.78-8.06,10.21-15.8,14.64-24a71.42,71.42,0,0,0,4.38-10.08c1.32-3.73,1.77-5.85-1.58-8.83-4.21-3.77-11.39-10.61-17.62-9.58-3.85.63-6.43,4.57-8.94,7.16-3.07,3.15-6.24,6.2-9.32,9.33-6,6.09-11.5,12.62-17,19.17-10.72,12.89-20.23,26.55-29.65,40.37a.55.55,0,0,1-1-.5c2.86-7.59,5.83-15.13,9.21-22.5s8.49-14.43,10.35-22.33c1.37-5.73,0-11.1-5.17-14.3-7.84-4.83-11.67-.17-17.07,5.49-12.74,13.38-24.27,27.79-38.15,40-6.72,5.92-13.65,11.58-20.57,17.26-5.92,4.88-12.94,12.88-20.11,15.92a.57.57,0,0,1-.77-.55c0-4.09,5.28-11.09,7.14-14.23a180.4,180.4,0,0,1,11.11-16.51c7.51-10,17.12-18.07,25.8-27a133.26,133.26,0,0,1,29.59-23.1c5.78-3.28,11-3.63,17.19-5.35,4.94-1.37,16.62-3.64,13-8.22-7.43-9.4-30.76-.08-39.07,4-14.78,7.2-28.33,17.49-41.29,27.52q-20.92,16.18-40.63,33.85-10,9-20.21,17.78c-4.48,3.89-9.16,7.8-14.9,9.47a.57.57,0,0,1-.65-.8,229.7,229.7,0,0,1,16.34-27.2c5.88-8.45,11.72-17.2,15.81-26.7,2-4.58,2.68-10-1.19-13.9-2.09-2.08-7.93-4.44-10.56-2.7-2.18,1.44-3.76,9-4.87,11.26a141.66,141.66,0,0,1-8.18,13.79c-5.41,8.5-11.09,16.88-15.43,26-3.53,7.42-10.48,21.65-1.5,28.07,7.73,5.52,20-5.08,25.67-9.4,8.86-6.72,17.56-13.62,26.33-20.45a.55.55,0,0,1,.84.66c-4,9.09-7.48,19-3.11,28.65,4.48,9.91,13.07,11.77,22.08,6.74,9.73-5.42,17.65-13.56,25.88-20.92s16.13-14.5,24.18-21.76a.55.55,0,0,1,.89.61c-4.69,11.69-13.92,28-5.82,39.19,2.77,3.83,10.49,10.65,15.59,8.67s9-11.71,11.75-15.89c18.08-27.84,37-55.51,58.12-81.16a.57.57,0,0,1,.94.63c-4.42,8.36-10.22,16.25-15,24.35-5.81,10-11.56,20-17.45,29.93-5.45,9.21-11.92,18.07-16.81,27.58-4.13,8-4.38,16.12,1.35,23.52,3.25,4.2,6.32,6.09,10.32,1.86,3.48-3.7,6.35-8.32,9.41-12.39,7.11-9.48,14.24-19,22.14-27.81,7.53-8.44,15.72-16.27,23.79-24.19,7.46-7.3,14.53-15.41,23.38-21.09a.55.55,0,0,1,.76.75c-3.71,6.11-7.14,12.58-10.75,18.75-4.05,6.91-7.88,13.93-11.41,21.12-3.31,6.74-8.77,14.68-5.68,22.48,1.22,3.09,3.63,5.52,5,8.55,1,2.28,1.26,5,3.73,6.33,10,5.23,25.47-15,31-20.78,10.94-11.33,21-23.5,32.68-34.1a.57.57,0,0,1,.89.65c-2.9,6.54-6.06,12.94-7.87,19.92-4,15.55-2.35,31.84,12.09,41.14,15.23,9.82,28.54-.23,41.27-9.8a137,137,0,0,0,35.3-39.19c8.92-14.91,17.9-31.3,18.15-49.09.06-4.77-.81-7.43-1.31-12.12-.21-2-.48-3.82,1.48-5,2.88-1.66,9.44-1.23,12.58-.93,4.84.49,9.7.78,14.57.95a281.74,281.74,0,0,0,59.09-3.63c3.4-.59,22.5-3.3,20.5-8.87"/></svg>