<?xml version="1.0" encoding="utf-8"?>
<!-- Generator: Adobe Illustrator 25.4.1, SVG Export Plug-In . SVG Version: 6.00 Build 0)  -->
<svg version="1.1" id="Capa_1" xmlns="http://www.w3.org/2000/svg" xmlns:xlink="http://www.w3.org/1999/xlink" x="0px" y="0px"
	 viewBox="0 0 737.2 164.5" style="enable-background:new 0 0 737.2 164.5;" xml:space="preserve">
<style type="text/css">
	.st0{fill:#FFFFFF;}
</style>
<path class="st0" d="M377.5,88.3c-0.5-0.4-1.1-0.6-1.7-0.5c-0.5,0-1,0-1.6,0c-4.8,0.5-9.5,1.4-14,2.9c-4.1,1.6-8,3.5-11.8,5.7
	c-3.1,1.7-6.2,3.5-9.3,5.3c-2.4,1.5-4.9,3-7.3,4.5c-0.3,0.1-0.6,0.2-0.8,0.3c2-4.1,4.7-7.9,7.1-11.8c2.2-3.7,4.5-7.3,6.7-11
	c2.5-4,5.5-7.7,8.8-11.1c0.8-0.8,0.8-2.2,0-3c-0.1-0.1-0.1-0.1-0.2-0.1c-2.4-0.9-4-3.6-7-3.3c-2.4,0.3-4.5,1.5-6,3.3
	c-3.7,4.2-6.9,8.7-10.8,12.8c-4.4,4.6-9.1,8.8-14.1,12.6c-2.5,1.9-5.1,3.7-7.8,5.4c-1.6,1-5.1,3.5-7.2,2.6c-0.3-0.1-0.4-1.2-0.2-1.6
	c0.6-2.1,1.4-4.1,2.5-6c4.5-6.6,10.2-12.1,15.5-18c2.8-3,6.3-5.2,9.5-7.9c2.3-1.9,4.8-3.5,7.5-4.8c2.7-1.2,5.5-2,8.4-2.3
	c1.2-0.1,2.3-0.1,3.5-0.1c0.6,0,1.1,0.1,1.7,0.1c0.7,0,1.3,0,2,0.2c0.7,0.2,1.3,0.6,1.6,1.2c0.1,0.4,0.3,0.8,0.5,1.2
	c0.3,0.4,0.7,0.6,1.1,0.7c0.5,0.2,1.1,0.2,1.7,0c1.1-0.5,1.6-1.7,1.1-2.8c0-0.1-0.1-0.1-0.1-0.2c-0.6-1-1.5-1.9-2.7-2.3
	c-5.9-3-12-2.6-18-1c-12.9,3.5-23.8,10.9-34,19.2c-12.3,10.1-22.8,22.3-35.1,32.4c-2.8,2.3-5.6,4.4-8.8,7c1.6-7.5,5.6-13.3,9.2-19.1
	c4.9-7.8,9.5-15.8,13.9-23.9c0.9-1.7,2.1-3.5,0.6-5.2c-1.6-1.9-3.9-2-6.2-1.3c-4.9,1.4-8.9,4.4-12.7,7.5
	c-3.6,2.8-10.5,9.4-13.9,12.4c2.6-6.3,8.6-16.1,12.7-21.6c0.9-1.2,2.2-3.2,1.1-4.2c-1.7-1.6-4-2.6-6.4-2.8c-2.4,0-4.6,1.4-5.5,3.6
	c-0.7,1.3-1.7,2.4-2.9,3.2c-10.3,7.6-20,16.1-29,25.3c-4.9,5.3-10.3,10.3-16.1,14.8c1-2.9,1.5-5.3,2.5-7.3c4.2-8,8.6-15.9,13-23.7
	c1.6-2.9,0-3.8-2.4-3.9c-1.3-0.1-2.6,0.2-3.8,0.9c-7.6,4.1-14.3,9.5-21,14.9c-3.2,2.6-6.2,5.6-9.9,9c1.2-1.8,1.8-2.8,2.6-3.9
	c3.6-5,7.6-9.8,10.7-15c2.8-4.7,9.7-8.1,5-15.6c-1.5-2.3-2.7-4.5-5.4-4.4c-2,0-3.3,2-4.3,3.6c-4,6.7-8.1,13.4-13.4,19
	c-4.1,4.4-9.4,7.7-14.4,11.3l-3.6,2.6c-3.6,2.6-7.2,5.2-11,7.7s-7.5,4.8-11.4,6.8c-2,1-4,2-6,2.9c-1,0.4-2.1,0.9-3.1,1.3
	c-1,0.5-2.1,0.8-3.2,0.9h-0.3c-0.8-0.1-1.9-0.5-1.9-1.4s-0.1-2.1,0-3.2c0.3-2.2,0.8-4.4,1.6-6.5c0.4-1.3,1.1-2.5,1.9-3.7
	c1.3-1.6,3.1-2.1,4.9-2.9s3.9-1.7,5.8-2.7c3.8-1.9,7.4-4,10.9-6.4c4.9-3.3,9.5-7.1,13.7-11.2c1.9-1.9,4.3-4.2,3.2-7.4
	c-1.4-4.1-10.3-7.3-14.2-5.4c-4.9,2.5-9.6,5.4-14,8.6c-1,0.8-23.6,13.9-24.4,14.6c-5.3,4.1-10.8,7.5-15.9,11.5
	c-0.9,0.7-1.5,1.3-2.3,1.9c-2.7,2.4-5.5,4.6-8.5,6.5c0.2-0.4,0.5-0.9,0.7-1.3c1.7-3.2,3.7-6.1,5.5-9.2c0.7-1.3,1.6-2.4,2.4-3.7
	c3.3-5,7.4-10.2,10.5-15.1c1.5-2.4,0.5-3.2-1.1-4.3c-0.2-0.1-0.4-0.3-0.7-0.4c-0.8-0.6-1.3-1.1-2.4-0.9c-1,0.2-1.9,0.9-2.4,1.8
	c-5.3,7.1-10.8,14.6-15.4,22.2c-1.5,2.4-2.8,4.9-4,7.4c-1.4,2.8-1.2,6.1,0.4,8.8c0.8,1.4,2.3,2.2,3.9,2.1c0.8,0,1.7-0.2,2.5-0.5
	c2.5-0.9,4.8-2.2,7-3.7c3.6-2.7,6.7-5.3,10-8.1c2.7-2.2,5.3-4.3,8-6.4c0,0,7.5-5.2,9.8-6.8c-0.8,1.4-1.6,2.7-2.2,4.1
	c-2.6,5.2-5.6,10.5-4.7,16.5c1.5,10.6,9.4,13.5,17.1,10.1c6.5-3,12.7-6.5,18.7-10.4c7.5-4.7,14.7-10,22.1-15.5c-1,2.2-2,4-2.8,6
	c-2.3,5.6-6.2,10.8-4.4,17.5c0.5,2,1.8,3.6,3.6,4.5c1.5,0.7,2.3-0.5,3.5-1.6c4.7-4.4,8.2-9.9,12.4-14.7c5.3-6.2,10.7-12.3,17.4-17
	c2.7-1.9,5.2-4,8.8-6.8l-1,1.5c-4.4,6.8-9.4,13.3-10.1,21.8c-0.3,3.3,0.6,6.5,3.7,8.2c2.4,1.4,4.7-0.6,6.3-2
	c5.7-5.3,11.2-10.8,16.8-16.2c4.1-3.9,8.2-7.8,12.4-11.7c-2.2,4.6-4.8,8.9-6.9,13.4c-2.7,5.9-4.6,11.7,2.1,16.5
	c0.2,0.2,0.4,0.4,0.5,0.7c0.4,1.8,1.9,1.5,3.1,1.7c1,0.2,1.4-0.9,1.9-1.6c2.6-4,5.1-8.1,8-11.8c5-6.3,10.3-12.5,16.5-17.8
	c4.1-3.4,8.2-6.8,13.4-10.9c-4.1,7.6-7.9,13.8-11.5,20.1c-4.1,7.1-9.3,13.8-10.3,22.3c-0.3,2.8,0.3,5.6,2.9,7.2s4.9,0.4,6.9-1.4
	c3.4-2.9,6.7-6,10.1-9c8-7.1,15.6-14.7,24-21.5c-2.5,5.6-4,11.6,1.3,15.9c6.8,5.6,13.5-1.6,19.1-4c-0.6,0.2-0.7,1.8-0.8,2.4
	c-0.1,1-0.2,2-0.2,3.1c0,2,0.3,4,0.9,5.9c0.2,1,0.6,1.9,1.2,2.8c1.3,1.8,3.1,1.8,5.1,1.8c0.9,0,2.3,0.2,3-0.4
	c1.2-0.9,2.5-1.7,3.8-2.5s2.3-1.6,3.5-2.4l8.2-5.6c1.6-1.1,3.2-2.2,4.8-3.2c3.1-2,5.9-4.2,9.2-5.8c4.5-2.3,9.1-4.2,13.9-5.6
	c1.5-0.6,3.1-0.9,4.8-1.1c0.8-0.1,1.5-0.3,2.2-0.8C377.8,89.9,378,89,377.5,88.3z M144.5,74.9c3.5-3.4,7.6-5.8,11.4-8.8
	c0.9-0.7,1.5,0,2.2,0.3c0.6,0.2,0.9,0.9,0.6,1.5c0,0.1-0.1,0.1-0.1,0.2c-2.6,5.7-7,9.8-11.9,13.4c-6,4.6-12.4,8.8-18.9,12.7
	C132.6,87.3,138.2,80.8,144.5,74.9z M602.1,89.4c0.1,0.3-1.8,2.8-2,3.1c-0.7,1.1-1.3,2.2-1.9,3.3c-1.2,2.2-2.5,4.4-3.9,6.6
	c-2.7,4.2-6.3,7.8-11.1,9.6c-2.8,1-6,1-8.5-0.6c-1.5-1.1-2.6-2.7-3.2-4.4c-0.5-1.4-1.5-3.8-1.4-5.3c-0.3,0.1-0.6,0.3-0.8,0.6
	c-4.9,4.5-9.9,8.7-16.4,11c-5.3,1.9-9.5-1.7-9.5-7.7c0.1-8.2,3.8-15.6,7.5-23.1c0.7-1.5,2-3.6,2.8-5.1c-2.8,2.2-6.2,4.4-8.6,6.9
	c-5.1,5.1-9.4,10.2-14.3,15.4s-9.5,10.8-13.8,16.5c-2,2.7-4.2,5.3-6.5,7.7c-1.8,1.8-3.7,1.4-4.8-0.9c-2-4-1.6-7.9,0.2-12
	C511,99.2,517,88.2,523.3,77c0.3-0.6,1.1-1.7,1.5-2.3c-4.3,4-8.4,8.2-12.3,12.7c-6.5,7.2-12.9,13.9-19.5,21
	c-2.3,2.5-4.2,5.3-7.6,6.3c-1.9,0.6-3.9,0.6-5-1.6c-3.2-6.6-0.5-11.8,2.6-18c1.1-2.2,2.4-4.4,3.6-6.5c-2.6,1.2-4.6,3.5-6.9,5.1
	c-4.9,3.5-9.2,7.6-14.2,10.7c-2.5,1.5-5.3,2.9-7.6,0.7c-2.6-2.5-2.2-5.8-0.6-8.9c3.8-7.3,9.5-13.2,14.8-19.4
	c2.8-3.3,5.9-6.4,7.6-10.4c0.6-1.3,1.8-1,2.7-0.5c1.8,1,3.1,2.3,2.6,4.4c-1,4.7-4.2,7.5-7.2,11.1c-5,6.1-10.3,11.9-14.8,18.5
	c4.6-3.2,9.8-6.6,14.2-9.9c5.3-3.8,10.2-7.4,15.3-11.1c1.9-1.4,2.7-4,4.8-5.1c1.3-0.7,2.8-0.8,3.7,0.4c2,2.9,3.4,4.5,1.2,8.2
	c-3.4,5.7-7.3,12.4-10.5,18.5c2.9-2.7,6.1-5.8,9-8.5c10.3-9.8,19.7-19.8,31.3-28c2-1.4,4.1-1.4,5.6,0.6c1.5,1.9,1.1,3.7,0,5.7
	c-2.8,5-5.5,10.1-8.3,15.2c-3.2,5.6-6.1,11.4-8.6,17.4c4.1-4.3,7.9-8.8,12.2-13.1c6.3-6.6,13.3-12.6,20.8-17.9
	c2.1-1.4,5-2.1,6.8-0.2c2.3,2.4,0.7,5.3-0.5,7.8c-4,8.7-8.1,17-10.4,26.2c-0.2,1-0.7,2.3-0.1,2.9c0.9,0.9,1.9-0.2,2.7-0.6
	c7.7-4.7,15.6-7.6,19.9-16.3c4.6-9.3,11.8-16.5,20.6-22.6c5.1-3.6,13.2-4.7,19.5-3.7c1.6,0.3,2.7,1.7,2.6,3.3
	c-0.2,1.5-1.1,1.8-2.3,2c-0.3,0-0.6,0-0.9-0.2c-0.8-0.5-1.7-0.8-2.6-1c-2.8-0.5-5.6,0.9-8,2.2c-2.4,1.3-4.6,2.9-6.6,4.8
	c-3.9,3.8-7.2,8.2-9.7,13c-1.4,2.4-2.6,4.9-3.7,7.5c-1,2.4-2.2,4.5-2.2,7.2c0,0.5,0.1,1.1,0.4,1.5c0.7,0.6,1.6,0.8,2.5,0.5
	c2.8-0.8,4.4-3.3,6.1-5.4c2-2.5,4-5.1,5.9-7.6c2.2-3,4.4-6,6.5-9c1.1-1.5,2.2-3.1,3.2-4.6c0.8-1.2,1.3-2.8,3-2.4
	c4.2,1.1,6.2,2.2,4.7,6.6c-3.5,10.2-7.2,20.6-11.3,30.6c5.4-0.8,10.8-1.1,16.2-1.1c0.6,0,0.7-0.2,0.6-0.8c-2.2-11.5,1-20.3,7.7-29.7
	c2.5-3.8,5.6-7.2,9.2-10c3.2-2.3,6.5-4.5,10-6.4c3.2-1.8,6.5-3.5,10.1-4c2.7-0.4,5.3,0.9,6.6,3.3c0.9,1.4-0.2,2.7-1.3,3.4
	c-1.7,1-4,1.2-5.5,2.4c-9.9,8.3-18.4,18.2-24.9,29.3c-1.8,3.1-4.3,6.2-4.2,9.9c0,3.5,1.7,4.6,4.9,2.7c7.4-4.4,13.5-10.6,19.5-16.9
	c4.1-4.3,7.3-9.2,9.6-14.7c0.5-1.2,0.7-3-0.5-3.4c-0.5-0.1-0.9-0.1-1.4,0l-6.6,1.4c-0.8,0.2-1.7,0.2-2.2-0.4c-0.7-1,0.7-2.1,1.8-2.5
	c4.6-1.6,9.4-2.7,14.2-3.5c24-4.5,49.3-7.2,72.5,0.6c0.7,0.2,1.5,1,0.9,1.5c-23.1-3.9-47-3.9-69.7,1.8c-0.7,0.1-1.3,0.4-1.7,0.9
	c-0.3,0.5-0.4,1-0.5,1.5c-1,7.1-4.8,13.6-9.1,19.3c-5.1,6.7-11,12.7-17.6,17.9c-4.9,3.9-11.3,6.1-16.7,1.7c-3.3-2.7-6-2.5-9.5-2
	c-4.7,0.7-8.9,1.5-13.3,2.5c-2.6,0.6-2.6,3.2-3.6,4.9c-7.1,12.1-15.4,21.8-27,29.4c-7.3,4.8-15.2,7.7-23.6,9.9
	c-3.9,1-7.6,1-11.8,0.9c-1.8,0.1-3.4-1.3-3.6-3.1c0,0,0-0.1,0-0.1c-0.8-6.9,3.7-11.1,8-15.6c7.3-7.6,15.7-14,24.9-19.1
	c9.3-5.3,18.7-8.1,29.1-10.2c0.8-0.1,1.5-0.6,1.7-1.4c4.1-7.9,6.7-16.3,9.1-24.9C602.2,89.8,602.1,89.6,602.1,89.4z M590.1,121.2
	c-0.4,0-0.8,0.1-1.2,0.2c-9.4,2.5-18.5,6.2-26.9,11.1c-4.5,2.6-8.9,5.5-13,8.7c-5.2,4-10.5,8.9-13.7,13.7c-0.4,0.5-0.6,2,0.7,2
	c1.6-0.1,3.1-0.4,4.6-0.9c12-3.6,23-8.3,33.2-15.8C580.6,135,585.6,128.4,590.1,121.2L590.1,121.2z M43.6,117.7
	c3.5-4.5,6.3-8,9.1-11.6C64.5,90.9,75.5,74.9,87.9,60c11.3-13.5,22.7-26.8,35.7-38.7c9.9-9.1,20.7-17,33.9-20.8
	c3.3-0.8,6.8-0.8,10.1,0h0.1l0.3,0.1c0.3,0,0.6,0.1,0.9,0.2c0.1,0,0.2,0.1,0.3,0.2c0.1,0.1,0.1,0.2,0.2,0.3c0.1,0.2,0.1,0.5,0,0.7
	c-0.1,0.2-0.1,0.5-0.2,0.7c-0.2,0.6-0.7,1.2-1.3,1.4c-3.5,1.6-7.1,3.1-10.6,4.7c-11.5,5.2-21.5,12.6-30.8,21
	c-9.6,8.7-18.5,18-27.4,27.3C91.5,65.1,84.6,73.4,78,82c-8.1,10.6-16.7,20.9-24.7,31.6c-3,3.8-6.4,7.2-10.3,10.1
	c-1.6,1.2-3.8,1.2-5.4,0.1c-7.5-4.4-7.8-5.2-6.1-13.4c1.3-6.5,3.9-12.5,6.4-18.6c6.1-15,13.8-29.2,22-43.2c6-10.3,11.4-21,16.9-31.5
	c0.3-0.6,0.7-1.1,1.2-2.1c0.1-0.2,0-0.4-0.2-0.3c-3.9,2.1-7.4,3.8-10.8,5.8c-10.5,6-20.2,13.2-30,20.1c-7.3,5.1-14.9,9.6-22.5,14.1
	c-5.1,3-9.2,2.4-12.9-1.4c-1-1.1-1.6-2.5-1.6-4c-0.1-0.8,0.4-1.7,1.1-2c0.9-0.4,2,0,2.5,0.8c2.3,3.2,4.7,1.7,7.2,0.4
	c13.6-7.1,25.7-16.6,38.3-25.2c9.3-6.3,18.8-12.2,29.6-15.5c3.3-1,6.8-1.9,10.2,0.5s4.5,8.6,3,12.3c-4.8,10.7-11.9,20.1-17.3,30.5
	c-5,9.6-10.6,18.9-15.4,28.5C53.3,91.4,47.2,103.4,43.6,117.7z M416.1,118.9c6-1.6,11.6-3.4,17.4-4.6c11.1-2.3,22.3-5.1,33.8-2.7
	c1.8,0.5,3.5,1.1,5.1,1.9c1,0.4,1.5,1.4,1.2,2.4c-0.6,1.7-2.4,0.8-3.5,0.8c-6.9-0.1-13.8,0.5-20.6,1c-9.7,0.7-19,3.4-28.5,5.4
	c-7,1.4-13.6,3.9-20.4,6c-1.5,0.6-3,0.8-4.6,0.6c-0.9-0.1-1.7-0.5-2.3-1.2c-0.5-0.6-1-1.8-0.3-2.4c0.4-0.2,0.8-0.4,1.2-0.5
	c1.1-0.4,2.2-0.7,3.4-1.1s2.2-0.9,3.3-1.3l0.3-0.1c0.7-0.2,1.4-0.5,2.1-0.8c1-0.5,2-1,2.9-1.7c2.5-1.9,4.5-4.3,6-7
	c0.7-1.3,1.2-2.6,1.7-3.9c0.7-1.6,1.5-3.2,2.3-4.8c3.1-6.4,6.5-12.6,10.1-18.6c0.5-0.8,1-1.6,1.5-2.4c5.5-9,10.1-18.4,15.1-27.7
	c7-13,14.9-25.4,22.5-38c2.6-4.3,7.6-4.5,10-0.2c1.5,2.7-0.1,5.7-1,8.5c-2.6,8.5-8.2,15.3-12.7,22.7c-6.9,11.4-14.2,22.6-20.8,34.2
	c-4.3,7.5-9.5,14.5-14.5,21.6C423.5,109.6,420.6,114.7,416.1,118.9L416.1,118.9z M115.5,52.6c1.3,0.3,3.1,1.8,3.2,3.1
	c0.2,5-4,10.1-8.1,10.2c-2.4,0-3.5-1.5-3.6-3.7c-0.1-4.4,3.3-9.7,8.1-9.7C115.2,52.6,115.4,52.6,115.5,52.6z"/>
</svg>
