<svg height="400" viewBox="0 0 2400 400" width="2400" xmlns="http://www.w3.org/2000/svg" xmlns:xlink="http://www.w3.org/1999/xlink"><mask id="a" fill="#fff"><path d="m.20685679.36690041h624.19499821v360.04411659h-624.19499821z" fill="#fff" fill-rule="evenodd"/></mask><mask id="b" fill="#fff"><path d="m0 .39434254h255.26238v236.01288246h-255.26238z" fill="#fff" fill-rule="evenodd"/></mask><g fill="#000" fill-rule="evenodd" transform="translate(693 26)"><path d="m503.467093 92.4271557 8.085936 1.980763c2.098362 3.3480287.563776 6.4489613.669764 10.0001583 1.663961.926485 3.561295 1.990247 5.466093 3.041529 4.991883 2.755996 10.11364 5.301337 14.949776 8.30992 6.501092 4.044391 12.150798 9.098132 16.873482 15.227615 6.767804 8.784644 9.188111 18.707928 7.828679 29.528245-.625976 4.978864-2.106324 9.849903-3.287618 15.167214.882736-.052914 1.926692.210156 2.481014-.197178 10.480866-7.695424 20.922919-15.445259 31.327653-23.243515 3.293091-2.467967 6.455811-5.110149 9.825034-7.789271.477692-2.118039.729476-4.348394 1.508711-6.374084.55482-1.442143 1.372868-2.782453 2.193404-4.138237.644387-1.065259 1.746562-1.769608 2.981595-1.897898 6.401574-.662418 12.642423-1.209524 18.525999 2.093079 1.939132 1.912874 1.916243 3.996469.437885 6.026651-.921051 1.264933-2.050096 2.423041-3.258259 3.417416-1.203685.99088-2.623327 1.716694-3.408036 2.215878-7.367407 13.512918-15.023917 26.866096-22.323652 40.416452-6.669777 12.381766-11.540247 26.803697-19.222633 38.493594-1.060875 1.614861-3.064694 2.470462-4.952573 2.076107-2.126228-.443775-4.149952-1.379745-5.984588-2.0192-.698127-1.117674-1.165868-1.941328-1.703769-2.715563-5.165047-7.438843-4.335555-15.084349-.315476-22.526187 3.617523-6.696557 7.734633-13.122555 11.651709-19.655379 2.085923-3.478316 4.661978-6.679585 6.249807-10.530791-.868305-.255083-1.621666-.725814-1.90231-.519651-2.606408 1.918365-43.017179 25.582693-44.373128 26.461756-15.244353 9.884347-31.937706 17.120023-47.576652 26.290037-6.26772 3.674995-12.813099 7.000061-19.538109 9.72361-5.532273 2.240339-11.508899 3.387963-17.310372 4.93843-.885223.237112-1.900319.130786-2.832317.008486-.903136-.118307-1.777413-.461247-2.575059-.680888-.656329-1.504042-.185106-2.674629.843425-3.504772 6.659826-5.374218 13.164899-10.971071 20.097407-15.969403 11.312349-8.15667 23.134236-15.612486 34.319698-23.933887 8.38101-6.235311 16.213172-13.236869 24.053296-20.166544 3.061211-2.706078 5.632289-6.026651 8.14714-9.284328 3.765309-4.877529 5.684537-10.55525 6.645395-16.632818.793666-5.021295-.294079-9.554886-3.304038-13.494947-1.907783-2.497419-4.152936-4.816129-6.568268-6.826344-6.136354-5.108153-13.206199-8.735225-20.389496-12.096732-1.666946-.780724-3.61603-.95444-5.592482-1.441145-3.155754-.760757-15.021927 27.168601-19.637628 34.814606-4.911273 8.136703-8.987082 16.753122-13.59731 25.059049-2.150112 3.873669-4.046451 7.888109-6.126402 11.801713-3.27269 6.159435-6.60111 12.289417-9.911616 18.428884-.903137 1.675262-2.044125 3.257676-2.70344 5.022792-4.358444 11.660943-11.056086 22.113861-16.780929 33.068959-3.818552 7.308556-7.119107 14.891664-10.94363 22.192732-4.712732 8.996798-8.744256 18.325053-12.579229 27.73218-4.031523 9.889838-8.503916 19.609455-13.072843 29.263678-3.494617 7.38543-6.463275 14.997491-9.274195 22.670951-1.801796 4.918961-3.822036 9.752562-5.768134 14.616114-.775752 1.939331-2.342682 2.923223-4.221605 3.534225-.308509-.041433-.661305.003993-.915577-.133782-7.134532-3.860691-12.640432-9.381668-16.338566-16.606362-2.584016-5.04825-3.006475-10.308653-.81755-15.676381 1.916242-4.699321 3.464761-9.573356 5.686527-14.119426 17.012312-34.807618 34.010193-69.627216 52.632726-103.610181 8.175503-14.919119 16.611249-29.694473 24.915132-44.542708 2.013771-3.600117 3.953898-7.245659 5.684537-10.991538 3.110971-6.733496 19.798352-31.26291 22.099236-37.701388-.408029-2.526372-1.861009-2.897266-3.552338-2.647174-1.241502.183699-2.487483.514659-3.659321.968417-9.340874 3.621582-18.711603 7.174276-27.943502 11.062921-4.082278 1.71969-8.075487 3.644544-12.082628 5.533457-4.340032 2.045657-8.747738 3.990479-12.468762 7.694426 1.618183 3.883653 3.426447 7.50823 5.776095 11.135802 3.564779 5.504005.027866 13.326222-2.394432 18.544195-4.965511 10.697518-11.459637 20.606824-17.987102 30.391335-7.636109 11.446294-15.430454 22.590083-26.620394 30.85258-4.441542 3.279142-9.318979 5.426632-14.503432 6.876263-3.638423 1.016839-7.436076 1.629338-11.203375 1.981762-6.667788.62398-12.245342-1.552963-17.091927-6.467431-7.80778-7.91856-10.034025-16.914858-8.248153-27.857476 2.081942-12.757651 6.416004-24.50695 12.516532-35.743088 3.468742-6.389059 6.898671-12.799583 10.22112-18.968502-.339858-1.221005-.820536-1.381243-1.549514-.844121-6.932508 5.110649-12.917594 11.273078-18.708616 17.573781-8.160576 8.877992-16.071358 17.993595-23.898046 27.171097-3.695149 4.333419-7.013119 8.997796-10.383337 13.600275-4.314656 5.891871-8.564126 11.825175-14.111327 16.689226-3.416494 2.995106-12.698651 3.393954-16.746097 1.709706-5.666127-2.358645-9.582705-8.311916-11.342703-14.012101-.715543-2.316714-.780728-4.775196-.339858-7.160299.856363-4.623943 2.331238-9.030742 4.204687-13.350183.683199-1.575425 2.293918-3.226228.970312-5.227457-.31448.003993-.704596-.111318-.852879.028952-3.180137 3.010081-6.43342 5.951774-9.466268 9.106119-3.950912 4.108786-7.916255 8.166155-12.18762 11.969939-4.066852 3.622081-8.663645 6.179901-13.307211 8.839554-5.307857 3.039034-10.641092 3.896133-16.819244 1.363772-6.156259-5.483539-8.417335-12.707733-6.664802-21.163415 1.028033-4.958896 2.357112-9.81546 4.319631-14.558708 6.577723-15.897521 15.03586-30.76772 23.830871-45.482673 1.777413-2.97364 3.277167-6.141962 4.613213-9.342732.680213-1.631334-.097529-3.073976-2.305363-3.718922-6.372215 4.241568-12.177171 9.412119-17.673119 14.969537-2.197384 2.221369-5.820879 5.834964-8.151619 7.915065-4.272857 3.812769-8.160575 7.907078-11.443714 12.781612-4.945607 7.342002-10.955074 13.953697-16.270893 21.05659-8.548203 11.423332-16.97748 22.938014-25.315697 34.516593-6.440386 8.942386-12.075164 18.43687-18.513559 27.380754-4.254446 5.910341-8.968174 11.505697-14.093911 16.675749-4.902814 4.944419-13.9575691 16.94381-21.8544185 11.414845-5.2954172-3.70794-7.5878423-13.181958-7.5530105-19.276498.0228894-4.078834.5821873-8.220067 2.2978985-12.078262 1.0300239-2.314717 1.7470598-4.770703 2.7910163-7.078432 8.505907-18.81026 17.2213022-37.51669 27.3513622-55.524263 5.446189-9.681678 10.856551-19.384322 16.175355-29.136884.828995-1.521014 2.469072-3.034541 1.111132-5.415151-.734452.341942-1.595293.539619-2.186437 1.050284-4.798319 4.149219-9.392125 8.480641-13.615223 13.263824-5.874619 6.654625-12.192596 12.915394-18.2861576 19.377334-6.4752175 6.866279-13.1410142 13.571322-19.2470154 20.761072-5.5636216 6.551294-11.2108392 13.027211-16.9710111 19.405787-8.9139358 9.871368-17.4775639 20.1935-27.0652447 29.479824-3.2303936 3.128887-7.5619673 6.9761-12.0149544 8.170648-2.128716.570568-8.2486499.954939-9.9036543-.447768-4.7619943-4.037402-7.40721494-9.406129-9.18214007-15.262558-1.0349998-3.413921-1.00365124-6.782416.28412735-10.25574 5.2989004-14.296138 10.62765662-28.579795 17.67063112-42.128155 7.6137173-14.647563 15.3911437-29.209765 23.0914426-43.812401.7309686-1.385736 2.1456342-4.462208 3.0228961-6.193379-1.0200719-.475723-1.7132232-1.019834-2.4611101-1.109687-2.7750932-.333954-8.0819552-1.775099-10.707272-2.009716-.6324446-.056407-1.1987089-.365402-1.632115-.831141-3.0024946-3.22523-5.2874557-6.788906-5.4058836-11.629495.709572-.690871 27.5011389-5.526968 33.3538637-6.512358 2.574562-1.643314 4.0394848-3.963024 5.2705374-6.640648 4.0807853-8.8794889 9.2911136-17.1534676 13.8913891-25.7584054 4.0210737-7.5202105 7.1474698-15.8895334 13.2176441-22.0669383 3.3911171-3.4508606 6.1229194-1.4775853 10.2440098.0579054 3.072656 1.1446294 5.878102 2.9327074 8.274027 5.1765405 1.566433 1.4671025 3.204519 3.0170695 4.806281 4.603477.900151.9654223 4.181797 4.6588865 2.341189 7.3539821-9.320969 8.112243-13.975483 19.5555424-19.7266979 30.9973447 5.2133139 1.222003 9.7384529-.577557 14.3262879-.940464 5.055078-.399846 10.125582-.661918 15.161752-1.228991 4.698302-.529135 13.950603-1.971778 19.064398-1.131651-1.517171 1.931843-3.967334 4.187158-5.900992 4.6509-7.069845 1.695729-18.898201 2.993608-25.870516 5.013307-9.111482 2.639187-17.5402615 4.400808-26.080005 8.567-1.1225767.547106-2.3655717 1.176078-3.107985 2.119536-9.7324812 12.370784-17.734821 25.263215-25.2042354 39.084628-6.4508353 11.934497-12.8349927 23.91392-18.6817464 36.160407-4.6336144 9.704141-8.6646401 19.665363-13.1121537 30.163706 1.4012305-.01847 2.4849948.303504 2.913425-.090851 3.9663381-3.65303 7.9515849-7.302566 11.6820626-11.193208 11.207356-11.689398 22.2131855-23.574475 33.4613444-35.223937 23.8179328-24.668687 47.5637145-49.411752 71.7120505-73.753473 8.767643-8.838057 16.701812-18.2002568 23.843311-28.3651454 3.456302-4.920459 6.351813-10.2033257 9.895692-15.0214519 8.547705-11.6215082 15.630985-23.6743115 24.40858-35.1241003 2.063033-2.6911022 5.636768-6.9266804 7.8864-9.4625363 5.41683-6.1055224 7.580876-9.8608854 13.163903-15.94094937 2.539233-1.96279241 3.598615-4.41578373 5.440716-4.71978693 1.017584-.16772591 3.524472 1.01284481 5.910943 2.79792763 3.932999 2.94219187 1.453478 1.86844659 5.440715 4.73526164 2.777084 1.99723612 2.611882 8.48812873 1.778409 11.26209553-4.709249 12.9882746-15.807134 22.2196886-24.020455 32.8937451-8.510385 11.0614234-15.332427 23.453672-23.138216 35.0157773-13.191272 19.53857-27.33942 39.178475-39.69274 59.549185-12.627495 20.822971-23.514897 42.636324-34.911339 64.143676-.719027 1.356284-1.326592 2.815399-.789685 5.251418 1.579867-1.514525 2.767629-2.414554 3.658326-3.549699 3.527458-4.495653 7.063873-8.991306 10.413192-13.620741 11.297919-15.618476 23.06109-30.923964 36.194142-45.023922 9.821054-10.542771 20.236734-20.450579 31.848636-29.025067 7.220119-5.331787 14.909471-9.64973 24.123954-10.340601 5.8373 1.450629 5.809932 1.513027 9.716559 5.884383.777742 4.149719.277161 8.393284-1.182786 12.745671-4.753535 14.170842-11.008815 27.711215-16.926725 41.392357-2.906459 6.71902-5.070504 13.630226-6.4996 20.426619 1.12606 2.278776 2.594466 2.309725 4.116612 1.406202 1.353461-.802688 2.592973-1.810541 3.831987-2.792936 16.159432-12.812562 32.301946-25.647087 48.467847-38.452161 4.337047-3.435885 4.644064-3.62907 7.659993-10.173874.41201-.894039 1.258421-1.567938 2.232216-1.690737 7.65054-.965423 20.647251 2.119536 22.855085 10.927143.183613.731804-.036822 1.528003-.486649 2.133513-10.799825 14.550222-21.212022 29.184806-26.631341 46.829471.476697 1.092715 1.377346.800193 2.099855.120803 1.614202-1.51752 3.143315-3.127389 4.677403-4.728772 14.054601-14.673022 27.927579-29.525749 42.29467-43.890275 9.501597-9.498977 20.331775-17.440499 31.351039-25.115456 5.246156-3.654029 8.900501-8.801617 13.533618-13.00325 1.149447-1.042796 2.058057-2.353155 2.861675-3.288127 3.270201-2.495422 20.388501.039436 19.25647 3.187791-.821034 1.208026-1.492789 2.650169-2.563615 3.671001-1.828666 1.742153-3.92056 3.204263-5.879595 4.811636-19.510742 16.003847-32.930907 36.741957-44.757273 58.611717-3.293588 6.090547-5.564616 12.768634-6.885236 19.689823-.856861 4.490162-2.896009 14.738914 1.913754 17.820877 2.812413 1.802055 5.960703 1.005357 8.450674-.871076 6.370225-4.802153 12.039834-10.32962 16.663994-16.873925 6.780742-9.597815 13.557005-19.199624 20.294953-28.827889 3.048771-4.35688 5.870638-8.851036 8.171522-13.947208.549346-1.216512.192072-2.674629-.829492-3.53073l-1.940127-1.625843c-.625479-.524643-1.08874-1.17508-1.362418-1.94582l-2.489473-7.009046c-.504563-1.421677-.220933-3.046022.798144-4.156208 1.895841-2.065624 4.307689-3.067986 7.032027-3.575657 1.241005-.231621 2.522315-.369396 3.782228-.34843 3.92454.065892 7.471405-1.291889 10.941142-2.866316 6.632955-3.009083 13.236055-6.084058 19.830198-9.179 16.05842-7.536683 32.430823-14.284157 49.317243-19.734749 2.11329-.681886 4.21215-1.322339 5.800477-3.001096-.527452-1.395719-1.869468-1.377249-2.968161-1.646309-12.261762-3.0010961-24.52004-6.0266517-37.288853-8.425232-5.097871 3.0230597-10.669454 2.7634839-16.813273 1.0937127-1.076798-1.3777485-2.409858-3.0824627-3.488148-4.4612095.105988-2.3915917 1.20866-3.5132587 2.812413-3.8991281 5.25959-1.2659312 10.491812-1.7191905 15.990249-1.005357 11.657183 1.5140258 22.968039 4.5580512 34.396327 7.0724422 7.71473 1.6972264 15.336408 3.8202569 23.222311 5.8090069 2.899989-1.6622835 5.908455-3.3859666 9.794183-5.6128275" mask="url(#a)" transform="translate(207.300847)"/><path d="m47.5616052 209.276587c.5706998-.007502.9272627.084016 1.1991668-.029506 6.7084619-2.812054 13.4179197-5.621608 20.1074579-8.479171 15.1454569-6.469775 30.2306568-13.085578 45.4333831-19.415826 14.632524-6.0927 29.805869-10.612091 45.020049-14.980451 2.735474-.785155 5.506307-1.510298 8.150649-2.547002 9.472322-3.712732 19.40977-5.812146 29.168438-8.511177 4.234931-1.171231 8.691469-1.533803 12.94134-2.245943-6.369328 8.993772-6.4012 8.918257-16.413346 13.179097-7.276174 3.09661-14.419882 6.505782-21.682112 9.635399-11.632615 5.012987-23.336941 9.858442-34.965573 14.880432-4.927141 2.127419-9.746716 4.506388-14.602146 6.798839-11.724246 5.533591-23.5137294 10.935155-35.1403688 16.669785-11.3333216 5.590102-22.954981 10.584586-33.7893138 17.225894-5.0825151 3.116114-10.7631197 5.303545-17.0821512 4.902966-3.3350582-.211041-6.0277056-1.374771-8.5744411-3.50519-4.2976784-3.595709-6.276204-8.722219-9.0789079-13.289119-1.3117132-2.138421-1.9959554-4.665419-3.1005036-7.347448.3321613-1.93288.5039688-4.167321 1.1140101-6.274236 2.8281015-9.769425 5.0436717-19.714885 8.7258309-29.238761 4.5900003-11.871339 9.9593593-23.374606 16.1992099-34.434285 9.838347-17.438937 19.8729032-34.768351 28.8985259-52.6518751 6.3150475-12.5139658 13.4209076-24.527333 21.5147856-35.9630863 3.4725043-4.9059667 6.7423254-9.9549616 9.946412-15.5660672-1.293786-.4095807-2.1358919-.9936958-2.824616-.8481671-13.9393183 2.9470807-27.5783468 6.9948783-41.0226601 11.6863027-5.0650855 1.7678483-10.0136405 3.8802646-14.9756414 5.9316688-7.0207034 2.9020718-13.9517681 6.0306883-21.0262547 8.7887318-3.4949139 1.3627685-7.0585509 2.9600832-11.3925828 2.273948-6.54312818-4.2368348-7.15715339-12.0038653-10.3104442-18.2781016.79778457-.6096201 1.28282962-1.2857533 1.68371387-1.2387441 4.57655442.5341053 8.78011223-.7941564 12.95130043-2.4039736 17.5039511-6.7553311 35.7449317-10.6841053 54.0745551-14.3138205 13.0558789-2.5850094 26.1082718-5.1320112 39.3892438-6.2707356 2.938656-.2515496 5.408202-1.3767713 7.544094-3.5672029 3.768312-3.8647615 7.822969-7.4464673 11.621659-11.28222312 2.438671-2.46248521 4.634322-5.16851842 6.696012-7.49197625 4.114915-1.59731474 7.388222-.15803114 10.158059 1.96738767 2.990447 2.2949522 6.09344 4.60740786 8.099355 7.9910746.954653 1.6108174 2.075137 3.1221152 3.331573 4.9934839 6.293634-.5706124 12.577805-1.1372241 18.861479-1.710337 4.731431-.431585 9.453399-1.055708 14.193793-1.2692501 11.722752-.5271038 23.45646-.8091594 35.180208-1.3122586 4.742884-.20304 9.471326-.7296437 14.207238-1.1032173 4.799157-.3785746 9.51515-.1155228 13.911431 2.106415 2.930688 1.481792 4.20555 3.7592408 2.762864 7.6840141-1.812694.7891555-4.061131 1.7678484-6.623803 2.8830681-1.458621-1.2442452-2.850511-2.4314791-4.410225-3.7617412-.743005-.1850365-1.6623-.6361254-2.567153-.6066196-14.569279.4720931-29.240149.0955189-43.676962 1.7603469-17.231051 1.9863914-34.542777 4.1423162-51.606004 8.8027345-6.515739 8.9007539-13.626579 17.4214328-19.549706 26.8402888-2.867941 4.5603986-5.854404 9.0497832-8.901623 13.4916584-7.380752 10.7596201-13.347204 22.3699079-20.1164213 33.4960999-.8744755 1.437284-1.4411914 2.793551-.4143301 4.541895 2.6981253 1.140225 5.5197534.118024 8.1944724-.410581 12.43289-2.455984 24.909603-4.535893 37.475955-6.227727 14.121086-1.9013744 28.132115-4.6159093 42.226309-6.7398278 9.706379-1.4627882 19.381384-3.29865 29.232679-3.5847063 1.197673-.0345068 2.405306.2520496 3.440135.370573.85605 2.2439421-.124996 3.5722039-1.675248 4.1153109-5.0616 1.771349-10.123199 3.6472186-15.324735 4.8929642-20.623876 4.939973-41.285102 9.717915-61.741653 15.342023-4.258337 1.171231-8.525638 2.303954-12.862657 3.241139-5.499834 1.188734-10.776068 3.558701-16.029893 5.712125-3.799685 1.557307-7.40117 3.60121-11.0992647 5.411566-3.1801824 1.556807-6.1362681 1.297256-8.7442567-1.22224-1.1020582-1.06471-2.1299155-2.206435-3.48595-3.620214-6.1347741 10.947657-12.1375801 21.386214-17.8724659 31.9718-5.7483316 10.612091-11.0086303 21.477732-15.4009273 32.738951-2.1926626 5.622108-4.2842326 11.286224-6.279192 16.981346-.2300727.655629.4561614 1.635322.7081458 2.43348" mask="url(#b)" transform="translate(0 27.525424)"/><path d="m905.278062 167.110707c-2.203237.630444-3.183782.649866-3.81157 1.12992-10.314158 7.889519-20.674652 15.722766-30.836846 23.805502-9.187129 7.307878-18.383724 14.531098-29.093986 19.580131-4.425906 2.086542-12.190048 4.408131-16.854613 1.599516-4.327253-2.623366-4.665062-12.047166-3.509633-16.268056 2.754793-10.060718 10.601146-18.296833 17.019033-26.220713 7.288319-8.998025 15.232826-17.477155 23.935662-25.124655 11.535853-10.136909 28.625139-20.892312 44.418989-21.846942 6.931078-.418802 13.479504 3.435076 20.300969 4.368293 4.351667-4.66011 6.014806-10.712078 10.220488-15.717787 4.175786-4.955911 20.349298 4.096395 23.5844 7.186369 3.052245 2.915184.217732 6.892561-1.460853 9.330678-.818616 1.189179-1.491744 2.47198-2.05476 3.800096-3.364645 7.930852-5.449299 16.344247-9.004273 24.199406-9.815416 21.691572-19.214797 42.74274-26.941571 65.354083-.509206 1.490458-.686581 3.083003.047333 4.582425 2.192774.67825 3.559956-.848063 5.066648-1.757377 11.12231-6.715279 22.222199-13.467409 33.303653-20.249915 16.241274-9.940207 33.264791-18.334181 50.792038-25.735181 1.08866-.459637 3.47326-1.185694 4.57488-1.541252.39411.914791-3.80958 8.83668-5.18424 10.066196-4.44035 4.115318-7.42334 6.089814-12.580171 9.14991-13.599083 8.06929-26.825978 16.75807-39.349351 26.411937-6.273396 4.8354-12.394329 9.882441-18.809226 14.532094-3.89378 2.823056-8.238471 4.954914-12.395823 7.350703-4.754746 2.738898-12.248841 11.972967-18.088266 11.187152-.799682-.108062-2.347727-.308748-3.89378-.52537-5.822484-.815694-9.849296-4.265211-12.649429-9.127501-2.745327-4.76618-6.605227-11.221015-6.556399-16.909955.071249-8.240098 2.973025-18.007505 5.960997-25.593754 4.06119-10.311203 7.895679-20.711544 11.812379-31.079019.550061-1.456098 1.013927-2.945062 2.037321-5.936934m15.321016-31.939033c-.619816-.068224-1.259562-.302773-1.814108-.173298-5.193201 1.217565-10.315652 2.854928-15.567647 3.682075-9.590209 1.510377-18.125634 5.069948-25.857889 10.972024-16.262698 12.41368-29.467172 27.612571-41.142035 44.256105-.539101.769381-1.146959 1.61346-1.296432 2.495385-.128049.754442.356743 1.612463.667647 2.793675 1.765778-.561723 3.393045-.752948 4.648621-1.538762 4.011864-2.511818 8.003798-5.08688 11.791452-7.920892 12.144708-9.087165 24.24856-18.231099 36.263226-27.490068 9.764096-7.524996 19.386192-15.233251 29.042169-22.897682 1.396081-1.108507 3.137944-2.033258 3.264996-4.178562"/><path d="m845.005364 108.711212c-.710391.418673-1.559332.587628-2.39011.513308-.839081-.075312-1.701513-.158056-2.538519-.345344-2.976999-.667399-5.145533-2.248446-6.314123-5.086008-1.136418-2.758286-2.394261-5.4491878-1.84629-8.5206114 1.349172-1.8357195 3.138381-3.1383123 5.121145-4.0222322 4.453304-1.9858471 8.673098-4.5082891 13.545165-5.9511002 1.09231-.323047 2.297225-.0827436 3.204802.5801964 1.260438.9210802 2.521394 1.851079 3.867453 2.648787 2.810428 1.664782 3.865377 3.9350294 3.165364 7.0728461-2.52814 4.5360353-6.089435 8.1475223-11.066841 10.4638483-1.614854.751629-3.132154 1.69451-4.748046 2.64631"/><path d="m511.909626 96.4928766c.130044-.3247501.260088-.6510131.390644-.9823187 4.246399-10.7565913 25.575159 6.2327821 20.117405 13.6858981-3.191199 4.356896-8.35661 11.384912-14.69805 7.532286-2.439605-1.482555-4.705136-3.124963-6.74693-4.985721-1.015266-.92584-1.578448-2.258123-1.696717-3.616627-.363509-4.181914 1.116126-7.833336 2.633648-11.6335174"/></g></svg>