<svg height="400" viewBox="0 0 2400 400" width="2400" xmlns="http://www.w3.org/2000/svg"><g fill="#b15529" fill-rule="evenodd" opacity=".65" transform="translate(705 37)"><path d="m413.72093 207.686047c-5.267442 4.651162-10.465116 9.430232-15.860465 13.872093-4.845261 4.18128-9.99946 7.990568-15.418605 11.395348-9.104651 5.348838-18.848837 9.988372-29.755813 7.127907-21.651163-5.697674-25.511628-19.767442-20.244187-41.406976-4.94186 2.569767-9.302325 5.023255-13.848837 7.174418-6.883721 3.290698-13.744186 6.651163-20.825581 9.441861-5.476744 2.151162-6.883721 6.837209-8.872093 11.453488-3.627907 8.441861-7.872093 16.651163-11.034884 25.267442-3.488372 9.534884-5.883721 19.476744-9.209302 29.069767-1.011628 2.906977-3.372093 5.430233-5.441861 7.848838-.69664.740576-1.534921 1.333699-2.465116 1.744186-.805218.412321-1.739124.495705-2.604651.232558-1.815549-.400097-3.599383-.932527-5.337209-1.593024-.251434-.126308-.489133-.278279-.709303-.453488-.860465-.732558-1.66279-1.72093-3.244186-3.081395-8.22093-6.651163-10.267442-10.918605-13.883721-17.534884-1.872093-3.488372.709303-6.72093 4.802326-9.151163 1.082491-.56842 1.978596-1.436269 2.581395-2.5 8.83721-19.127907 17.441861-38.372093 26.348837-57.476744 9.127907-19.709302 17.872093-39.627907 27.825582-58.918605 11.232558-21.755814 23.72093-42.8604647 35.488372-64.3372089 9.209302-16.7906977 18.162791-33.7209302 27.44186-51-5.22093 4.0116279-10.151162 7.7790698-15.116279 11.627907-6.976744 5.4186046-14.465116 10.3837209-20.930232 16.4069767-7.451086 7.1818559-14.515308 14.7545461-21.162791 22.6860465-7.139535 8.255814-13.953488 16.8255814-20.581395 25.4883717-9.395349 12.232559-18.348838 24.802326-27.813954 36.988373-7.569767 9.755813-15.918604 18.918604-23.348837 28.767441-7.232558 9.593024-13.569767 19.872093-20.325581 29.813954-3.406977 5.023256-6.686047 10.139535-9.930233 15.27907-3.372093 5.325581-7.569767 10.255814-10.232558 15.906976-3.337209 7.104652-9.174419 11.872093-14.116279 17.441861-2.802326 3.197674-5.953489 4.093023-10.151163 2.976744-8.790698-2.325581-16.558139-5.813953-21.988372-13.790698-5.430233-7.976744-5.523256-16.627907-3.395349-25.034883 2.946056-11.266499 6.656196-22.319218 11.104651-33.081396 4.77907-11.790697 10.465117-23.255814 16.011628-34.697674 6.27907-13.093023 12.55814-26.197675 19.232558-39.104651 6.162791-11.9302328 12.848838-23.5930235 19.267442-35.406977 1.840831-3.1979976 3.289272-6.6063253 4.313954-10.1511628-1.408112 1.0922066-2.758755 2.2565544-4.046512 3.4883721-7.94186 8.1395349-16.093023 16.2790697-23.686046 24.8023256-7.069768 8.0581395-13.604652 16.5930231-20.151163 25.0930231-9.418605 12.22093-18.604651 24.604651-27.906977 36.906977-11.360465 15-22.790698 29.94186-34.05814 45.011628-6.8255809 9.104651-13.2906972 18.488372-20.1162786 27.593023-4.4883721 5.988372-9.1744186 11.837209-13.9534884 17.593023-4.1627907 5.023256-8.4302325 9.965117-12.872093 14.732558-4.8023256 5.151163-9.3023256 10.674419-14.5581395 15.33721-6.8372093 6.081395-14.7209303 10.046511-24.3604652 8.918604-4.372093-.511628-12.23255809-7.058139-13.4069767-11.558139-.19767441-.790698.41860466-2.476744 1-2.662791 2.46511628-.790698 5.09302326-1.034884 7.59302326-1.732558 1.82571684-.411899 3.56259934-1.1484 5.12790694-2.174419 17.4418605-13.174418 30.5581396-30.546511 44.1860465-47.337209 14.3178295-17.612403 28.503876-35.341085 42.5581397-53.186046 18.674418-23.825582 37.104651-47.848838 55.651163-71.7906981 21.569767-27.8372093 45.348837-53.4883721 73.627907-74.7674419 3.093023-2.32558135 6.255814-5.10465112 9.825581-6.09302321 2.941861-.80232558 6.662791.3255814 9.802326 1.34883721 6.744186 2.18604651 12.790697 5.6046512 17.046511 11.627907.540278.7042631.763511 1.6014106.616279 2.4767442-4.872093 11.4186046-9.930232 22.7558139-14.779069 34.1860465-2.790698 6.5581395-5.151163 13.3023256-7.906977 19.8837209-3.22093 7.6627907-6.627907 15.255814-10.023256 22.8488372-4.360465 9.7674422-8.674419 19.5581392-13.209302 29.2325582-5.302326 11.313953-10.825582 22.523256-16.27907 33.790698-3.872093 8.058139-7.790698 16.093023-11.55814 24.197674-1.453488 3.104651-2.558139 6.395349-3.802325 9.593023-.081396.616279 2.034884-1.511628 2.72093-2.476744 11.988372-16.802325 23.488372-33.965116 35.965116-50.383721 15.825582-20.837209 31.965117-41.453488 48.83721-61.4418603 13.023255-15.4418604 26.813953-30.3255814 41.279069-44.4069767 13.923877-13.7289087 29.975977-25.1161614 47.534884-33.72093026 6.906977-3.32558139 12.976744 0 18.965116 2.54651163.941861.40697675 1.267442 4.02325582.709303 5.81395353-4.034884 12.6976744-8.209303 25.1627907-15.116279 36.9418604-9.209303 15.7790698-16.27907 32.8604651-24.069768 49.4302326-6.709302 14.1744181-13.174418 28.4651161-19.872093 42.6279071-5.883721 12.430232-12.197674 24.651163-17.837209 37.209302-4.55814 10.104651-8.406977 20.523256-13.011628 31.918605 7.372093-3.709302 13.790698-6.825582 20.116279-10.127907 6.755814-3.488372 13.465116-7.151163 20.104651-10.906977 1.381123-.88715 2.539037-2.080876 3.383721-3.488372 6.186047-9.453488 11.418605-19.686046 18.604651-28.290698 7.662791-9.16279 17.372093-16.523255 29.883721-18.488372 6.651163-1.058139 13.05814-.081395 18.186047 4.5 1.290697 1.162791 1.627907 4.313954 1.16279 6.290698-2.178234 9.685695-7.77134 18.263166-15.755814 24.162791-6.92248 5.310077-14.031007 10.372093-21.325581 15.186046-3.4123 2.318509-7.156396 4.106266-11.104651 5.302326-6.383721 1.802325-7.976744 7.116279-9.872093 12.139535-1.895349 5.023255-2.976744 10.302325-4.651163 15.395348-1.395349 4.162791 1.162791 6.360466 4.22093 6.488373 4.651163.186046 9.848838 0 14.093024-1.709303 16.953488-6.976744 29.581395-19.94186 42.686046-32.093023 9.370911-8.556793 18.297337-17.588007 26.744186-27.05814 4.395349-4.976744 7.104651-11.465116 10.465116-17.337209 17.441861-30.430232 34.186047-61.2674417 56.093024-88.860465 4.151162-5.2325581 8.244186-10.4651163 12.395349-15.744186 1.337209-1.6860466 2.511627-4.4534884 4.16279-4.7790698 4.651163-.9534884 9.151163-.2093023 12.686047 3.2093023 1.058139 1.0116279 1.686046 1.9651163 3.267442 3.5581395 3.616279 5.1627907 5.372093 8.1395349 6.255814 13.1046512 1.755813 9.9302326-6.802326 13.1162791-11.755814 18.6744186-.77643.6912223-1.513993 1.4249033-2.209303 2.1976744-8.139535 11.7790698-16.569767 23.4069768-24.418604 35.4302328-6.651163 10.244186-12.697675 20.930232-18.813954 31.476744-4.744186 8.209302-9.44186 16.465116-13.709302 24.930233-4.267442 8.465116-8.139535 17.44186-12.162791 26.069767-2.546512 5.418605-5.569767 10.639535-7.825581 16.174419-2.802326 6.872093-4.965117 13.953488-7.55814 20.930232-1.337209 3.593023-2.976744 7.069768-4.988372 11.755814 1.170602-.637497 2.290211-1.364466 3.348837-2.174419 22.093024-21.813953 44.360465-43.5 66.174419-65.616279 3.965116-4.034883 6.116279-9.848837 9.162791-14.813953 8.546511-13.953488 17.755814-27.511628 31.395348-37.034884 4.313954-3.011628 12.081396-6.313953 14.965117-6.081395 1.439966.32352 2.612596 1.364394 3.104651 2.755814.418605 2.081395.77907 5.22093-.383721 6.406977-3.162791 3.209302-7.139535 5.627907-10.767442 8.395348-1.583443 1.096488-3.080114 2.313262-4.476744 3.639535-3.488372 3.55814-7.139535 6.976744-10 10.953489-6.651163 9.232558-13.127907 18.604651-19.162791 28.267442-4.89372 7.532603-8.04765 16.060926-9.232558 24.965116-.511628 4.290697 1.732558 5.313953 4.651163 3.627907 5.976744-3.488372 12.395349-6.906977 17.081395-11.83721 10.360465-10.88372 20.453489-22.209302 24.837209-37.209302 1.212477-3.702283.613846-7.75919-1.616279-10.953488-1.16279-1.813954.139535-7.581396 1.732559-8.255814 11.476744-4.918605 23.255814-9.151163 35.046511-13.302326 23.686047-8.348837 47.22093-17.313953 72.093023-21.66279 9.372093-1.639535 18.872093-4.104652 28.220931-3.767442 6.22093.22093 12.476744 4.383721 18.325581 7.511628 3.139535 1.686046 2.732558 5.616279.872093 8.139534-3.262712 4.432539-6.879194 8.593438-10.813953 12.441861-5.162791 5.058139-10.639535 9.802326-16.186047 14.44186-8.22093 6.883721-16.604651 13.581396-24.953488 20.302326-12.313954 9.930233-24.709303 19.767442-36.988372 29.732558-10.395349 8.453488-20.755814 16.976744-30.976745 25.639535-9.558139 8.139535-18.906976 16.44186-28.325581 24.709302-1.418605 1.244186-2.686046 2.662791-4.058139 3.965117-4.733045 4.177145-9.115922 8.735025-13.104652 13.627907 5.302326-2.511628 10.465117-5.302326 15.941861-7.511628 25.906977-10.465117 51.546511-21.860465 77.906977-31 23.755814-8.220931 48.5-13.220931 73.988372-12.023256 10.874361.33831 21.447714 3.652286 30.569767 9.581395 1.254538.870712 2.422676 1.859736 3.488372 2.953489 1.253457 1.20667 1.595251 3.079516.848837 4.651162-1.290697 2.55814-3.488372 3.720931-6.860465 3.011628-.978493-.263688-1.903294-.696574-2.732558-1.279069-3.697674-2.767442-5.244186-3.651163-7.906977-4.05814-15.290697-2.325581-30.569767-1.255814-45.813953 1.034884-20.27907 3.058139-39.697675 9.22093-58.604651 16.883721-10.139535 4.116279-19.767442 9.465116-29.604651 14.325581-9.639535 4.755814-19.313954 9.453488-28.825582 14.453488-8.558139 4.511628-16.77907 9.674419-25.430232 13.953489-3.135681 1.778362-6.634806 2.820147-10.232559 3.046511-6.825581 0-6.976744.976745-10.313953-8.011628-.686047-2.069767-1.093023-4.197674-1.616279-6.302325-.209302-.837209-.534884-1.639535-.732558-2.465116-1.476744-6.267442-3.197675-12.546512-.33721-18.604652.851832-1.924424 2.104534-3.644909 3.674419-5.046511 7.790698-7.418605 15.627907-14.813954 23.72093-21.906977 11.139535-9.755814 22.348838-19.453488 33.860465-28.77907 10.651163-8.639535 21.825582-16.627907 32.55814-25.104651 15.313953-12.046511 30.488372-24.267442 45.709302-36.430232 4.05814-3.232559 8.139535-6.453489 12.104651-9.813954 1.391417-1.330047 2.696403-2.747665 3.906977-4.244186h.197675l-.162791.093023c-8.593023 2.174419-17.383721 3.755814-25.72093 6.639535-14.569768 5.023256-28.755814 11.151163-43.302326 16.27907-10.906977 3.813953-21.965116 7.604651-33.27907 9.662791-5.697674 1.023255-7.046511 3.232558-8.94186 7.918604-7.495034 18.757005-18.413244 35.956439-32.197675 50.720931-2.581005 2.823807-5.674505 5.132094-9.116279 6.802325-7.488372 3.418605-14.023255 3.569768-18.860465-6.255814-2.011628-4.116279-3.058139-8.709302-4.651163-13.383721-.606279.292424-1.141864.712957-1.569767 1.232558-10.267442 16.755814-25.058139 29.616279-37.976744 44.081396-6.906977 7.732558-13.953489 15.348837-20.848837 23.069767-4.895349 5.465116-10.046512 6.069768-15.988372 2.034884-1.790698-1.162791-4.046512-1.709302-6-2.697675-12.581396-6.372093-14.825582-18.744186-12.395349-29.534883 2.325581-10.255814 6.406976-20.116279 9.651163-30.232558.219059-1.082451.308835-2.18708.267441-3.290698v.151163zm-16.046511-57.906977c-7.395349-1.33721-12.790698 2.011628-16.988372 6.872093-5.976745 6.918604-11.290698 14.395349-16.813954 21.697674-.523256.697675-1.267442 1.593023-.813953 2.686047.639534.581395 2.093023-.093024 2.813953-.604651 6.465116-4.593024 12.988372-9.11628 19.22093-14.023256 5.593688-4.329307 9.935795-10.06795 12.581396-16.627907z" fill-rule="nonzero"/><path d="m746.860465 169.046512c-4.755814 4.953488-8.651163 9.465116-13.034884 13.476744-7.860465 7.197674-15.534883 14.755814-24.174418 20.930232-8.372093 5.976745-16.767442 2.139535-22.093023-8.232558-2.593024-5.023256-3.069768-9.790697-.430233-14.767442 7.383721-13.953488 14.848837-27.906976 22.244186-41.860465 1.430233-2.709302 2.709302-5.5 4.093023-8.232558 3-5.930232 3.011628-5.930232 9.104651-2.988372 4.104652 1.976744 6.383721 6.651163 4.651163 9.988372-1.848837 3.55814-4.034883 6.976744-5.988372 10.465116-6.44186 11.627907-12.94186 23.255814-19.232558 35-2.325581 4.27907-4.034884 8.848838-6.034884 13.27907l.976744.883721c2.709303-1.581395 5.697675-2.837209 8.081396-4.813953 11.988372-9.941861 23.848837-20.034884 35.686046-30.151163 5.081396-4.348837 10.593024-8.372093 14.848838-13.441861 6.16279-7.337209 10.686046-16.116279 17.174418-23.116279 5.813954-6.337209 13.127907-11.511628 20.27907-16.465116 6.558139-4.534884 13.802325-8.139535 21.302325-12.3953488-5.593023-.4767442-10.534883-.5930233-15.337209-1.4651163-1.870583-.5442465-3.622006-1.4357366-5.162791-2.627907-.430232-.2790698 0-3.9883721.465117-4.0465116 1.558139-.1627907 3.116279-.3372093 4.651163-.3953489 11.976744-.4767441 23.94186-1.1627907 35.930232-1.2906976 32.658915-.5116279 65.325582-.8992248 98-1.1627907 20.255814-.1860465 40.511628-.127907 60.767442-.1744186 1.837209 0 5.360465 2.0465116 5.360465 4.1511628-5.383721.4767441-10.767442 1.1627907-16.162791 1.3953488-15.72093.627907-31.395348 1.1627907-47.174418 1.5581395-23.174419.5581396-46.348837.8604651-69.523256 1.383721-7.290698.1627907-14.581395.6395348-21.860465 1.0116279-.857968-.0660649-1.678786.3617379-2.116052 1.1028666-.437266.7411286-.414802 1.6664682.057912 2.3855055 2.965117 5.5930234 6.546512 11.0232554 8.383721 16.9767444 2.325582 7.534883 2.116279 15.116279 1.348837 22.848837-.488372 4.860465-1.023255 9.72093-1.790697 14.546512-2.465116 15.534883-8.034884 28.523255-18.534884 40.290697-7.476744 8.372093-15.569767 16.139535-25.581395 21.395349-3.990054 2.071583-8.097842 3.908051-12.302326 5.5-9.162791 3.488372-16.77907 2.55814-24.488372-3.686046-14.348837-11.55814-21.674419-27.116279-22.383721-47.255814zm28.825582 23.011628c.325581 1.930232 4.16279 1.5 4.779069 1.395348 2.232558-.406976 4.790698-.918604 5.813954-1.16279 14.732558-4.325582 23.069767-14.267442 30.709302-26.744186 4.895349-7.976745 7.569768-15.33721 11.151163-24.023256 4.313953-10.465116 8.755814-30.069768 5.418605-41.8604653-.965117-3.4186047-2.709303-3.9883721-6-2.7209302-3.662791 1.7906976-6.976745 5.3372095-10.081396 8.3372095-8.883721 8.558139-18.313953 21.813953-24.127907 32.267442-5.5 9.906976-8.802325 19.058139-13.302325 29.488372-2.290698 5.197674-5.430233 18.813953-4.360465 25.023256z" fill-rule="nonzero"/><path d="m746.290698 81.744186c6.883721 0 16.476744 7.5697675 17.767442 14.1860466-.009118 1.541424-.768367 2.9818271-2.034884 3.8604651-3.406977 1.8372093-7.081396 3.1511623-10.651163 4.6511623s-6.802326 2.906977-10.209302 4.33721c-2.616279 1.16279-5.27907 3.104651-7.872093 3.023256-3.116279-.093024-6.197675-1.930233-9.302326-3.116279-.267442-.093024-.476744-1.081396-.302325-1.488373 4.360465-10.2441856 9.651162-19.7674414 20.38372-24.7558135.721979-.2873279 1.464339-.52053 2.220931-.6976745z"/></g></svg>