<svg height="400" viewBox="0 0 2400 400" width="2400" xmlns="http://www.w3.org/2000/svg"><g fill="#3d3425" fill-rule="evenodd" opacity=".5" transform="translate(132 68)"><path d="m50.9491525 178.576271c12.2146893-15.819209 23.7796611-32.129943 34.6949153-48.932203 12.6610169-19.474576 23.8135592-39.8135595 37.0000002-58.864407 7.237288-10.4915254 14.881356-20.6610169 22.457627-30.8983051 1.577247-1.8085698 2.693726-3.971748 3.254237-6.3050847 1.440678-9.0169492-13.440678.8644068-16.288135 3.3898305-5.452558 5.2173986-10.548759 10.7949069-15.254238 16.6949152-9.627118 11.6440678-18.5084743 23.9152543-26.9830505 36.3559323-25.0508475 36.6271188-50.8474577 72.2881358-77.0338983 108.0508478-3.38983054 4.694915-6.52542376 9.644067-10.42372884 15.542372l-1.08474577 1.694916c4.54237288 0 8.11864407.372881 12.44067801-1.694916 12.7457627-5.864406 22.779661-16.847457 31.6101695-27.915254 1.9322033-2.38983 3.8135593-4.779661 5.6101694-7.118644z"/><g fill-rule="nonzero"><path d="m682.542373 170.050847c-13.823349 2.642317-27.810444 4.341154-41.864407 5.084746-6.152542.322034-13-.118644-15.355932-6.779661-1.779661-4.966101 0-11.728813 5-14.118644 11.20339-5.355932 18.525424-8.169491 29.38983-14.169491 3.254238-1.796611 9.118644-5.508475 12.389831-10.254238 4.898305-7.101695 4-13.237288-3.762712-16.949152-6.428286-3.377138-14.162537-3.106439-20.338983.711864-19.898305 12.033898-39.59322 24.457627-59.322034 36.932204-6 3.813559-11.610169 8.254237-18.881356 13.474576.495137-1.361858 1.060875-2.697 1.694915-4 10.677967-16.457627 21.338983-32.932204 33.271187-48.491526 12.440678-16.2372877 26.677966-30.9999996 39.508474-46.932203.973613-1.1862438 1.637533-2.5956191 1.932204-4.1016949 1.220339-7.1525424-6.898305-4.1016949-9.779661-1.3728813-8.847458 8.3728813-17.508475 16.9491525-26.627119 25.0508474-16.237288 14.3559322-32.762712 28.3898308-49.152542 42.5593218-5.08642 4.621435-10.675007 8.657952-16.661017 12.033899 3.152542-8.220339 6.542373-15.254238 8.576271-22.779661 2.983051-10.898306-1.440678-16.8474581-12.677966-18.949153-15.254237-2.8644068-30.915254 3.288136-44.067797 10.677966-6.799119 3.887755-13.312767 8.254731-19.491525 13.067797-2.525424 1.932203-4.983051 3.932203-7.440678 5.932203-1.898305 1.542373-6.440678 4.694915-10.322034 8.254237.796999-2.953819 2.174042-5.719428 4.050847-8.135593 17.372882-24.983051 37.423729-47.7627117 57.525424-70.5423727 8.186441-9.2711865 16.288136-18.6440678 24.423729-27.8305085 3.271186-3.7288135 6.237288-7.9830508 6.949153-12.8813559.813559-5.3898305-4.677967-16.74576273-11.576272-15.25423731-1.368348.40889859-2.637705 1.09550552-3.728813 2.01694916-14.661017 10.93220335-27.474576 25.08474575-40.118644 38.23728815-18.073499 19.3388004-34.882321 39.8218988-50.322034 61.3220341-10.898305 14.745762-20.169492 30.661017-31.745763 44.915254-12.372881 15.254237-28.627118 25.61017-44.40678 37.033898-3.18644 2.305085-6.59322 4.322034-9.898305 6.457627 9.152543-21.288135 25.084746-38.135593 35.237289-58.491525.535764-1.076628.497423-2.349897-.102151-3.392338s-1.680881-1.715833-2.8809-1.794103c-3.503877-.07169-6.899422 1.216065-9.474577 3.593221-8.898305 7.067796-18.474576 13.271186-27.711864 19.949152-11.40678 8.254238-22.711864 16.644068-34.152542 24.864407-2.30491 1.495351-4.699221 2.848165-7.169492 4.050847l-1.237288-1.38983c4.135593-5.711864 8.186441-11.474576 12.440678-17.084746 14.322034-18.966102 28.898305-37.864407 40.271186-58.881356 5.661017-10.4576269 2.711865-17.4576269-9.152542-19.254237-5.890913-.7000251-11.86119-.2743984-17.59322 1.2542373-21.389831 5.2372881-39.983051 16.3559317-57.864407 28.8135597-1.694915 1.18644-4.186441 3.38983-5.389831 2.830508-6.457627-2.694915-11.864406.830509-17.050847 2.847458-18.644068 7.135593-37.186441 14.864406-55.762712 22.338983-1.983191.63233-3.997056 1.164081-6.033898 1.59322 3.79661-4.254237 6.949152-7.830508 9.966101-11.20339 23.728814-26.491525 38.796611-65.6101693 10.169492-94.915254-14.322034-14.7118644-34.559322-22.2881356-54.745763-25.9661017-46.662662-8.3635822-94.6812219-4.8191747-139.6101692 10.3050848-2.3050848.7966101-4.4745763 1.9322033-6.6949153 2.9322033-2.5084746 1.1355933-5.0847457 5.2542373-1.8135593 7.0677967.9091889.4300124 1.8938579.6776192 2.8983051.7288135 4.2408764.6535806 8.522863 1.0047488 12.8135593 1.0508475 4.1864407-.1186441 8.4745763-2.5254238 12.4576271-2.5254238 5.8385561-2.1770431 11.8329477-3.9107707 17.9322034-5.1864406 33.5932204-7.2542373 67.2881359-6.4576272 100.9491529-.5762712 21.355932 3.7288135 47.457627 14.118644 52.542373 37.7627118 6.440678 30.5084746-27.915255 59.4237287-49.81356 74.8983047-14.219777 9.843905-28.97093 18.897163-44.18644 27.118644-22.2542377 12.271187-44.9830513 23.728814-67.5254242 35.440678-4.4067796 2.288136-9 4.271187-13.3050847 8.033899.9262434.431142 1.898625.755269 2.8983051.966101 15.7108317.361589 31.3593128-2.095326 46.2033898-7.254237 27.665651-10.145379 54.589776-22.208565 80.576271-36.101695 22.966102-12.152542 46.474576-23.271186 69.79661-34.745762 2.904405-1.25141 5.874921-2.343428 8.898305-3.271187-2.802484 3.96372-6.113264 7.542326-9.847457 10.644068-6.589772 5.729327-12.653512 12.036979-18.118644 18.847458-6.542373 8.474576-11.40678 17.610169-9.372882 28.711864.415057 2.610847 1.386115 5.102071 2.847458 7.305085 3.949153 5.508474 9.983051 4.610169 15.644068 2.59322 1.946564-.953683 3.73565-2.199757 5.305085-3.694915 13.898305-10.694915 24.644067-24.288136 35.101694-38.152543 5.76767-7.774258 9.975083-16.591982 12.389831-25.966101 1.448302-6.09545 5.179024-11.403388 10.423729-14.830509 16.694915-11.118644 39.711864-25.0508472 60.745762-24.6440676-2 3.1186441-3.18644 5.3898305-4.762711 7.3728814-14.372882 18.0000002-28.81356 35.8983052-43.20339 53.9322032-8.915254 11.220339-13.915254 25.813559-5.711865 38.983051 3.033899 4.898305 6.474577 6.779661 12.033899 4.830508 6.66266-2.204993 13.040483-5.19193 19-8.898305 8.79661-5.813559 16.864406-12.711864 25.271186-19.118644 1.152543-.898305 2.40678-1.694915 3.627119-2.474576l1.220339-.779661c-.024014.570305-.09774 1.137427-.220339 1.694915-2.220339 9.627119-10.169492 18.389831-13.457627 27.847458-.983051 2.762712-1.779661 5.881356-.593221 8.576271 1.091863 1.998803 2.724896 3.649458 4.711865 4.762712.694762.549831 1.506634.93257 2.372881 1.118644 4.644068.61017 13.423729-9.372881 16.830509-11.966102 5.322033-4.067796 10.728813-8.022599 16.220339-11.864406 2.813559-1.949153 7.203389-5.271187 11.542372-8.796611-2.033898 7.61017-4.050847 13.559322-5.084745 19.576272-1.694916 10.033898 4.18644 18.050847 14 19.237288 1.798289-.118323 3.475468-.947765 4.661017-2.305085 2.610169-2.711864 4.813559-5.813559 7.508474-9.135593 8.101695 10 19.728814 10.169491 30.508475 9.084746 10.779661-1.084746 21.135593-4.677967 31.050847-8.779661 16.559322-6.779662 29.627119-18.644068 41.542373-31.915255 5.188571-5.469683 10.756025-10.567046 16.661017-15.254237 6-5.084746 12.779661-9.220339 18.491525-14.559322 10.644068-9.949153 17.983051-17.576271 28.372882-27.813559 1.82699-1.680557 3.745149-3.259219 5.745763-4.728814-2.558803 4.789797-5.560613 9.329397-8.966102 13.559322-7.830509 10.728814-15.711865 21.40678-23.254237 32.338983-2.262941 3.383644-3.952281 7.117372-5 11.050848-1.831669 5.884359.109076 12.290833 4.898305 16.169491 5.084745 4.305085 9.745762 1.271187 14.016949-1.694915 4.627118-3.254237 9.118644-6.779661 13.457627-10.40678 11.101695-9.355932 22.305085-18.644068 34.813559-26.050847-1.694915 4.033898-3.38983 8.050847-5.169491 12.084746-6.677966 15.728813 1.694915 31.474576 18.644068 33.898305 17.474576 2.491525 35.322033-2.084746 52.050847-6.779661 11.711412-3.261957 23.18012-7.33972 34.322034-12.20339 5.508474-2.423729 12.152542-4.677966 17.118644-8.169492 3.310926-1.931865 6.259144-4.426953 8.711864-7.372881-6 1.694915-8.474576 2.745763-15.474576 5.084746-15.557658 5.218751-31.453349 9.369639-47.576271 12.423728zm-18.288136-52.542372c.336325-.015096.658939.134507.864696.400978.205756.266472.268885.616437.169203.938005-2.644068 8.627118-16.949153 20.338983-29.627119 23.728813 4.847458-12.542373 18.966102-24.779661 28.59322-25.101695zm-440.847457 64.576271c.881356-12.525424 28.694915-46.305085 48.38983-59.322034-3.237288 15.423729-32.271186 51.355932-48.38983 59.288135zm317.627118-71.915254c-1.764445 6.500023-4.314307 12.760845-7.59322 18.644067-12.275916 20.450192-27.722655 38.82037-45.762712 54.423729-13.745763 11.864407-29.830508 19.440678-48.338983 20.525424-5.769163.740437-11.518245-1.508093-15.254237-5.966102-2.286892-2.13083-2.587299-5.647783-.694915-8.135593 1.792951-2.707027 3.745561-5.304848 5.847457-7.779661 10.644068-12.169492 20.915254-24.711864 32.20339-36.288136 16.886888-17.637409 37.357967-31.450474 60.033898-40.508474 4.012862-1.586005 8.21952-2.629119 12.508475-3.101695 7.338983-.830509 9.169491 1.237288 7.050847 8.186441z"/><path d="m2025.54237 119.79661c3.38983 6.186441 10.62712 3.389831 14.05085-1.016949 4.79661-6.288136-.38983-10.559322-6.77966-9.79661-8.15254 1-16.0678 5.847457-23.11864 9.830508-8.48598 4.747633-16.51951 10.262171-24 16.474577-11.61017 9.728813-21.47458 22.033898-32.30509 32.203389 3.54237-4.966101 6.61017-10.305084 10-15.440678 7.27119-10.966101 17.55932-22.305084 20.50848-35.59322 1.32203-5.915254-4.38984-13.711864-10.30509-14.033898-3.54237-.186441-5.81356 3.016949-8.10169 5.084746-3.49153 3.288135-7.42373 6.203389-11.1017 9.271186-20.69491 17.220339-41.16949 34.59322-61.11864 52.661017-4.51978 3.966102-9.09605 7.920904-13.72882 11.864407-3.84745 3.38983-8.16949 8.627118-12.57627 11-.79487.47807-1.82302.272441-2.37288-.474577 9.83051-20.830508 22.0339-41.237288 37.86441-58.118644 2.94915-3.169491 2.81356-5.322033-.59322-7.932203-7.30509-5.59322-14.72882 3.389831-20.33899 7.237288-9.05084 6.186441-18.15254 12.305085-27.44067 18.101695-7.79661 4.864407-15.98306 9.118644-24.05085 13.559322-1.56038.670275-3.18443 1.18134-4.84746 1.525424.64407-1.254237 1.32203-2.440678 2.0339-3.559322 4.20339-6.559322 10.0339-12.271187 15.13559-18.169492 3.23729-3.949152 7.50848-8.711864 9.11865-10.559322 3.2205-3.30931 6.19455-6.849837 8.8983-10.59322.39552-.597781.74131-1.227011 1.0339-1.881356 1.05419-2.193098 1.01652-4.754103-.1017-6.915254-.84745-1.559322-3.54237-5.084746-5.71186-4.288136-.57571.292647-1.08378.702568-1.49153 1.20339-17.81355 19.118644-38.42372 35.38983-59.10169 51.220339-6.22034 4.762712-12.50847 9.491525-19 13.898305-2.76596 2.042119-6.22233 2.918381-9.62712 2.440678-1.95291-.389457-3.40776-2.031361-3.55932-4.016949-.62712-6.779661.18644-9.864407 5.08475-19.864407 8.74576-18.016949 19.32203-34.440678 38.88135-42.779661 3.36007-1.635633 7.01403-2.580822 10.74576-2.779661 2.54238 0 3.77966 2.237288 4.69492 4.576271.19047.54363.70363.90758 1.27966.90758s1.08919-.36395 1.27966-.90758c2.40678-7.406779-.11864-12.18644-7.35593-13.20339-8.23729-1.1186437-16.61017-1.6949149-24.67797 2.237289-10.15149 4.593229-19.27144 11.188189-26.81356 19.38983-2.85949 3.260172-6.80352 5.37369-11.10169 5.949153-7.98305 1.38983-15.81356 3.627118-23.72882 5.627118-5.18644 1.305085-6.55932 1.81356-11.25423 3.101695-.29669-.303422-.54276-.652494-.72882-1.033898-1.32203-2.949153-2.71186-5.881356-3.8983-8.881356-7.47826-18.581221-11.31066-38.4280099-11.28814-58.4576272 0-6.779661 1.81356-14.2881356 7.40678-18.6440678 6.38525-4.9697323 14.0015-8.1099726 22.0339-9.0847458 23.45763-2.2711864 42.08475-.1864407 62.71187 13.3898305 4.8644 3.2033899 9.79661.3728814 10.42372-5.4915254.84746-7.8474576-1.22033-11.1355932-9.15254-13.8305085-8.20339-2.7627118-16.38983-5.5932203-24.74576-7.8474576-18.64407-4.9830508-37.38983-6.6271186-56.13559-1.2542373-16.94916 4.8644068-28.81356 15.2542373-34.1695 32.6949153-3.5884 11.4389971-4.1721 23.6090703-1.69491 35.338983 1.936 8.7871588 4.33483 17.4659168 7.18644 25.9999998 2.66102 8.084746 6.67797 16.20339 8.81356 24.322034-12.32203 6.271187-25.01695 11.864407-37.28814 18.220339-21.13559 11.050848-41.98305 22.644068-61.01695 37.084746-.62711.474576-1.22033.983051-1.79661 1.491525-1.27044 1.142131-2.00719 2.762226-2.03292 4.470394-.02574 1.708167.66187 3.349722 1.89733 4.529606 3 2.881356 4.59322 5.084746 9.1017 6.779661 10.30508 3.864407 22.03389 1.40678 32.54237 0 12.27119-1.694915 24.27119-4.305084 36.38983-6.779661 11.25424-2.305084 26.30508-7.322034 36.33898-13.084745 6.38983-3.694916 13.20339-8.288136 15.9661-15.457628 3.66102-9.508474-.30508-20.966101-2.8305-30.288135-.64407-2.372882-1.32204-4.779661-1.98305-7.254237-.22599-.81356-.44633-1.644068-.66102-2.491526 13.08474-5.254237 22.0339-7.40678 36.52542-10.474576-2.32203 4.288135-4.49152 7.20339-5.55932 10.474576-3.28814 10.169492-6.62712 19.61017-2.86441 30.237288 4.62712 13.118644 17.86441 13.067797 28.81356 8.288136 6.1017-2.644068 11.37288-7.254237 16.83051-11.254237 4.9322-3.61017 9.57627-7.576272 14.35593-11.40678-.84707 6.477437.90153 13.027048 4.86441 18.220339 7.25424 9.966102 19.88136.525424 28.01695-3.745763 4.61017-2.38983 8.98305-5.220339 13.45763-7.847457-.88136 2.305084-1.81356 4.508474-2.83051 6.59322-4.33899 8.915254-12.57627 14.881356-10.62712 25.898305.96541 5.35863 4.01207 10.117515 8.47458 13.237288 4.98305 3.389831 10.88135 1.186441 15.05084-2.559322 9.66102-8.677966 18.84746-17.881356 28.11865-26.983051 17.77966-17.440678 29.30508-29.18644 47.08474-46.644068 1.79661-1.694915 7.91526-6.779661 12.15254-10.457627-.01615.289948-.05011.578628-.10169.864407-1.10169 7.79661-7.77966 14.474576-11.86441 20.864407-5.32203 8.237288-10.64406 16.491525-15.77966 24.847457-3.21141 5.335258-5.91805 10.958496-8.08474 16.796611-3.79661 9.966101-2.84746 15.813559 4.44067 22.474576 2.60584 2.381566 6.53224 2.587472 9.37289.491525 1.15819-.823239 2.21122-1.7852 3.13559-2.864406 10.16949-12.338983 19.55932-25.237289 29.94915-37.288136 9.50848-11.050847 19.52543-21.728814 30.0678-31.79661 8.69652-8.495415 18.74259-15.488721 29.72881-20.694915zm-327.11864 61.949153c-3.64681 2.322911-7.47901 4.341053-11.45763 6.033898-8.27118 3.389831-16.67796 6.271186-25.05085 9.305085-8.98861 3.266639-18.14919 6.039142-27.44067 8.305085-4.74577 1.129943-9.51413 2.152542-14.30509 3.067796-3.74576.694915-9.20339 2.61017-12.9661 2.186441-4.72881-.542373-.42373-6.966102 1.0678-8.474576 26.28813-25.745763 56.69491-37.169492 90.8983-52.322034 1.9322 7.457627 3.74576 13.355932 4.94915 19.372881 1.1681 4.962516-1.1298 10.092868-5.61017 12.525424z"/><path d="m1599.08475 110.271186c11.37591-.234704 22.71339-1.402464 33.8983-3.491525 6.01695-1.186441 13.08475-3.525424 14.55932-9.8474576.1424-.5554602-.05013-1.1431004-.49361-1.506609s-1.05748-.4369559-1.57418-.1883063c-3.327 1.7333879-6.82629 3.1137894-10.44068 4.1186441-8.76452 1.9523818-17.63151 3.4122958-26.55932 4.3728818-29.23729 2.915254-58.47458 1.79661-87.69492-.457628-3.10169-.237288-6.23729-.152542-9.74576-.084745-.79022.008451-1.52888.393818-1.98789 1.037109-.45902.643291-.58318 1.467128-.33415 2.217128 2.42373 6.779661 1.08475 12.79661-1.69491 18.644068-6.63386 13.668117-15.63096 26.05635-26.57627 36.59322-10.16949 10.169492-21.38983 19.220339-34.84746 24.881356-3.40297 1.634713-7.12327 2.50259-10.8983 2.542373-1.62606-.067574-3.12973-.882467-4.0741-2.207904-.94438-1.325437-1.22355-3.012781-.75641-4.571757.90076-3.09239 2.03393-6.112288 3.38983-9.033898 6.80524-13.511806 15.91326-25.734217 26.91525-36.118644 5.45953-5.238351 11.27574-10.091801 17.40678-14.525424 5.69492-4.135593 11.77966-8.779661 19.20339-8.474576 1.47317.152125 2.92801-.423485 3.89831-1.542373.8026-1.087146 1.0434-2.489977.64929-3.782546-.39412-1.292569-1.37666-2.322391-2.64929-2.776776-3.45777-1.034124-7.14977-.980874-10.57628.152542-5.79445 1.358759-11.41746 3.365757-16.76271 5.983051-14.05084 7.20339-27.50847 15.559322-37.8644 27.644068-7 8.18644-14.98305 13.38983-25.59322 15.169491-4.84746.79661-9.47458 2.881356-15.11865 4.661017.71187-.220339.9661-11.728813 1.1356-13.152542.41223-4.630057 1.42056-9.187509 3-13.559322 2.91525-7.559322 9.79661-17.593221 19.13559-14.79661 5.66102 1.694915 10.77966-3.01695 11.25424-8.711865.52542-6.440678-2.52543-10.1694914-9.72882-9.8644067-5.65701.3373474-11.24619 1.4084647-16.62712 3.1864407-12.13559 3.711864-22.18644 12.322034-25.57627 24.186441-2.28813 8-2.54237 13.830508-3.94915 22.59322-10.44068 1.525424-22.32203 5-34.25424 6.779661 3.84746-10.559322 7.54238-21.169491 11.49153-31.677966 2.0339-5.40678 6.55932-16.949153 12.83051-18.644068 4.73939-1.179235 9.74487-.613713 14.10169 1.59322.72107.464999 1.53814.760537 2.38983.864407 1.26268-.075072 2.43099-.693225 3.20339-1.694915 2.9246-3.148708 4.4739-7.3330399 4.30509-11.6271186.02285-1.1484137-.30211-2.2768961-.93221-3.2372882-3.16949-4.2372881-15.37288-3.3898305-19.81356-2.5423728-10.3292 1.9933824-18.96133 9.0519752-22.9661 18.7796606l-2.57627 3.389831c-12.38983 9.898305-24.01695 20.881356-37.01695 29.932203-9.52542 6.644068-18.28813 14.016949-27.11864 21.491526-5.9661 5.084745-12.01695 10.067796-18.40678 14.559322-4.54238 3.18644-9.61017 5.288135-15.47458 3.830508-1.45526-.391498-2.47733-1.696711-2.50847-3.20339-.21777-4.700899.23305-9.408906 1.33898-13.98305.15254-.627119.30508-1.254238.47458-1.864407.32203-1.220339.69491-2.423729 1.11864-3.627119s.84746-2.322034 1.32203-3.491525c.69492-1.694916 1.47458-3.389831 2.28814-5.084746.54237-1.084746 1.10169-2.135593 1.69492-3.186441 7.61016-3 14.67796-4.644068 20.42372-8.355932 9.06593-5.91696 17.63646-12.560256 25.62712-19.864407 4.72619-4.46691 8.72884-9.641758 11.86441-15.338983.36651-.632153.70029-1.282729 1-1.949152.11592-.230936.2178-.468657.30508-.711865.27406-.665121.49509-1.3508746.66102-2.0508472.1017-.440678.16949-.8813559.23729-1.3050847.17198-1.2604756.07376-2.5431185-.28814-3.7627119-.42782-1.3459435-1.18523-2.5636275-2.20339-3.5423729-2.12904-1.8489798-4.7169-3.0902159-7.49152-3.5932203-1.32573-.2716869-2.66743-.4585071-4.01695-.5593221-10.37751-1.3235136-20.81008 2.0010157-28.50848 9.0847458-16.96095 14.8310723-31.21789 32.4945473-42.13559 52.2033903-2.26223 4.317908-3.79694 8.979312-4.54237 13.79661-2.1017 12.830508 6.52542 27.254237 18.9322 28.491525 11.52543 1.152542 20.79661-.135593 29.64407-7.457627 13.9661-11.59322 27.76271-23.372881 41.67797-35.016949 9.94915-8.305085 19.98305-16.508475 29.98305-24.745763-2.45763 10.847458-6.25424 20.881356-9.57627 31.084746-1.50848 4.644068-4.1695 6.559322-8.83051 8.135593-12.25424 4.135593-24.23729 9.20339-36.18644 14.237288-2.81356 1.169492-6.89831 3.050848-5.83051 6.779661 1.12691 3.247831 3.41482 5.964348 6.42373 7.627119 6.58388 3.299565 14.13906 4.106255 21.27118 2.271186 13.05085-3.084745 22.0339-11.271186 27.23729-23.474576 1.28814-2.949152 2.05085-6.050847 6-6.915254 10.44068-2.271187 22.0339-5.322034 32.64407-7.813559l-1.16949 15.254237c-17.94916 8.474576-35.0678 16.949152-49.64407 29.457627-1.44952 1.223591-2.19938 3.085362-2.00257 4.97204s1.31477 3.553604 2.98562 4.451689c1.0762.523235 2.21562.904938 3.38983 1.135593 17.59322 3.542373 30.62712.728814 47.81356-2.474576 8.01695-1.491526 15.08475-8.355933 16.25424-16.135594.9322-6.152542 1.57627-12.355932 2.76271-18.457627.29681-1.728184.82114-3.409461 1.55932-5 .25729-.551576.61345-1.051351 1.05085-1.474576.18506-.178359.3966-.32701.62712-.440678 7.40678-3.559322 15.25423-6.254237 23.72881-9.59322-2.94915 13.271186-10.66102 30.508474 1.69492 41.152542 10.5066 8.944071 25.56307 10.146403 37.35593 2.983051 7.02087-4.104079 13.81078-8.591077 20.33898-13.440678 6.24585-4.739088 12.13723-9.928033 17.62712-15.525424.91525-.932203 1.79661-1.864406 2.67797-2.813559 8.01656-8.596083 14.68536-18.35642 19.77966-28.949153 4.23729-8.881355 8.71186-17.966101 4.35593-28.644067 8.0678-.372882 15.57627-1.01695 23.08475-.966102 17.72881.118644 35.71186 1.135593 53.59322.610169zm-338.79661 12.220339c6.33898-8.474576 12.9661-16.627118 19.72881-24.711864 3.10169-3.6949152 7.25424-4.7457627 12.11864-4.9152542.78635-.0358203 1.53366.344234 1.96789 1.0007901s.49148 1.4930028.15076 2.2025997c-5.62712 11.7627114-27.44068 33.1694914-43.66102 42.0169494 3.84746-6.237288 6.38983-11.20339 9.69492-15.593221zm28.54237 59.01695c4.62712-5.237289 20.20339-12.305085 32.72881-14.644068-7.47457 12.898305-19.10169 17.881356-32.72881 14.644068zm80.10169 7.457627c-1.27557 1.801992-3.03984 3.201646-5.08474 4.033898-10.64407 5.728814-22.1356 8.169492-35.72882 9.101695 7.47458-8.576271 19.33899-15.661017 41.77967-26 .8644 6.135593.74576 9.627119-.96611 12.864407z"/><path d="m1238.13559 94.5084746c1.04671-.2094582 2.13207.0642583 2.95426.7450388.8222.6807804 1.29357 1.696027 1.28303 2.7634358 0 4.4576268 1.40678 6.7796608 5.08475 2.3050848 1.74605-1.7889784 2.39368-4.3794771 1.69491-6.7796611-1.47457-3.7457627-5.61017-5.4576271-9.27118-5.6779661-7.79661-.4745763-14.66102 2.6610169-21.55933 6.2881356-16.47347 8.8984876-31.67718 19.9692026-45.20339 32.9152546-1.59322 1.474576-3.38983 2.745762-5.08474 4.101695-.08326-1.789567.37766-3.562364 1.32203-5.084746 1.94915-3.627119 3.74576-7.338983 5.71187-10.949153 1.9661-3.610169 4.44067-6.491525 5.08474-10.406779.75397-3.5873-.52221-7.2989352-3.32282-9.6640517-2.80061-2.3651164-6.67352-3.0018914-10.08396-1.6579826-2.85261.8642173-5.59005 2.0707421-8.15254 3.5932203-9.84746 6.20339-19.54237 12.644068-29.32203 18.966102-1.57627 1.016949-3.27119 1.864406-5.77966 3.271186 3.38983-7.101695 6.59322-12.813559 8.88135-18.864407 1.41016-3.7892961 2.03301-7.8262987 1.83051-11.8644064-.50847-8.4745763-5.77966-11.7627119-14-9.3050848-10.91575 3.3676121-21.21735 8.4726279-30.50847 15.1186441l-12.86441 9.0000001c1.8983-5.0847459 4.94915-9.1355933 7.35593-13.5593221 1.90717-3.2635731 3.24277-6.8289866 3.94915-10.5423729 1.20339-7.8135593-6.01695-14.661017-12.54237-12.220339-1.97845.8411494-3.72328 2.149768-5.08475 3.8135593-10.16949 12.2881356-21.11864 24.0677966-29.94915 37.2881357-5.47457 8.186441-11.44068 13.559322-20.79661 15.966102-7.47457 1.98305-14.67796 4.98305-23.101693 7.915254-.677966-14.20339-.661017-27.118644 5.508473-38.983051 3.38983-6.3898305 8.81356-11 17.23729-10.0508475-.00881.7951333.11727 1.5860041.37288 2.3389831.9322 1.6949152 1.69492 4 3.22034 4.7457627.9322.4745763 3.81356-1.0508475 4.45763-2.338983 3.22034-6.440678-7.1017-13.1864407-12.79661-13.2542373-7.74577-.1016949-13.67797 2.5762712-18.118647 8.7966101-6.788545 9.2400183-10.430602 20.4157279-10.389831 31.8813559v20.61017c0 1.050847-12.084745 5.084745-13.559322 5.576271-4.694915 1.864407-9.406779 3.728813-14 5.830508-8.474576 3.864407-15.610169 7.644068-20.338983 15.966102-1.100417 1.533226-1.511946 3.455745-1.135593 5.305085.757022 1.571004 2.229418 2.67688 3.949153 2.966101 12.101695 3.050848 26.203389 4.627119 38.627118 2.728814 3.936446-.481534 7.641144-2.121512 10.644068-4.711864 1.023397-.923042 1.913296-1.984075 2.644068-3.152543.237288-.384181.474576-.79096.711864-1.220339.45919-.86434.844734-1.765834 1.152543-2.694915.327488-.998466.587954-2.017682.779661-3.050848.738431-4.80474 1.044741-9.665995.915254-14.525423-.085785-1.337561.226816-2.670539.898305-3.830509.15631-.229387.332102-.444874.525424-.644068.093043-.109993.195091-.212041.305084-.305084.519653-.418527 1.103425-.750475 1.728814-.983051 9.47458-4.288136 18.91525-8.661017 29.86441-13.694915-2.42373 4.559322-4.18644 7.79661-5.91526 11.067796-14.59322 27.79661-29.305082 55.525424-43.711862 83.40678-4.830508 9.372881-8.915254 19.135593-13.322034 28.813559-4.406779 9.677966-1.084746 18.440678 4 26.779661.423729.711865 1.830509.81356 3.186441 1.372882l25.338983-44.525424c8.406782-14.790961 16.802262-29.548023 25.186442-44.271187 21.88135 3.593221 40.27119-3.38983 55.9322-17.254237 12.75829-10.92549 24.14121-23.361327 33.89831-37.033898 1.46573-2.263656 3.26579-4.292303 5.33898-6.016949 5.77966-4.440678 11.66102-8.796611 17.77966-12.779661 8.15254-5.305085 16.52542-10.288136 24.83051-15.3728817.72948-.4400951 1.66281-.3402913 2.28274.2440995.61993.5843912.77459 1.5102152.37828 2.2643752-5.83051 11.033898-11.61017 22.033898-17.50848 33.050847-2.37288 4.389831-4.8644 8.694916-7.33898 13.016949-4.24814 7.116334-8.07944 14.47335-11.47458 22.033899-4.9661 11.610169-4.64407 14.20339 3.38983 21.423729 1.79002 1.64868 4.49726 1.797898 6.45763.355932 3.59322-2.711865 5.67797-6.949153 7.91525-10.728814 12.59259-20.935097 28.22021-39.887003 46.37289-56.237288 12.01695-11.033898 24.57627-21.338983 39.64406-28.0508474 1.77988-.9804445 3.66096-1.7647029 5.61017-2.338983zm-263.389827 67.9322034c-6.474577.508475-13.101695-.915254-19.593221-.847458 8.796611-7.661017 19.593221-11.457627 30.01695-16.322034 2.38983 9.389831-1.847458 16.508475-10.423729 17.169492zm96.610167-3.711864c-11.44068 9.457627-24.20339 17.847457-40.23729 19.932203 13.89831-41.372881 73.54238-93.9152543 93.62712-93.0338984-11.12496 28.5974264-29.52244 53.7953734-53.37288 73.1016954z"/></g><path d="m919.40678 174.949153c-4.000109-2.221657-8.58159-3.173423-13.135594-2.728814-1.457627.118644-2.915254.101695-4.372881 0s-2.508474 0-3.745763 0c-.810933.024969-1.619975.092861-2.423728.20339l-22.033899 3.254237-51.135593 7.61017c-7.38983 1.101695-14.779661 2.118644-22.966102 3.288135.372882-.915254.627119-1.610169.864407-2.18644.207605-.582131.456836-1.148566.745763-1.694916 9.355932-17.423729 18-35.474576 28.118644-52.440678 1.748771-3.245597 4.397124-5.917491 7.627119-7.694915 4.185843-2.117662 8.519146-3.930286 12.966101-5.423729 8.827404-2.630466 17.789401-4.786097 26.847458-6.457627 10.423729-2.067797 20.898305-3.864407 31.40678-5.542373 13-2.101695 26.033898-4.033898 38.98305-6.1694913l2.169492-.3728814c1.331954-.164875 2.60795-.6346734 3.728813-1.3728813 1.408-.7692663 2.679333-1.7657165 3.762712-2.9491526-24.728408-.385676-49.455133.8713272-74.016949 3.7627119-12.58757 1.4463277-25.254237 3.2994347-38 5.5593217 1.355932-2.38983 2.220339-4.0508471 3.050848-5.4915251 8.474576-14.5762712 18.542373-28.3050847 27.288135-42.779661v-.1186441c1.033899-1.6949152 2.050848-3.3898305 3.050848-5.0847457.825273-1.4371546 1.760254-2.8084598 2.79661-4.1016949 3.684408-4.5215954 8.998927-7.4132296 14.79661-8.0508475 8.59322-.7966102 15.898305-.8813559 24.508475-1.3728814 12.966101-.7627118 25.949152-1.5254237 38.98305-1.0169491 5.711442.1876349 11.408805.6798599 17.067797 1.4745763 1.648158.352375 3.34289.4325313 5.016949.2372881.930515-.1156929 1.696266-.787404 1.932204-1.6949153 0 0 0-.118644 0-.2033898.661017-3.3898305-1.288136-7.7288136-2.118644-10.9830508-.053112-.2471944-.150746-.4826657-.288136-.6949153-.677966-.7966102-4.067797-.7627119-5.084746-.8813559-2.440678-.3050848-4.864407-.5593221-7.305085-.779661-4.864406-.4576272-9.745762-.7796611-14.610169-1-12.830509-.5932204-25.677966-.5254238-38.542373-.440678-8.694915 0-17.38983.1186441-26.101695 0-.881443-1.358457-1.831839-2.6709084-2.847457-3.9322034-4.338984-4.9152542-7.440678-6.77966102-10.169492-6.5084746-2.728814.2711865-5.084746 2.6101695-7.847458 6.1186441-.895313 1.3619413-1.941483 2.6184816-3.118644 3.7457627-1.716909 1.629108-3.76278 2.8716565-6 3.6440678-2.067796.4576271-4.135593.8813559-6.20339 1.3050847-24.305084 4.8983051-49.38983 8.4745763-71.966101 19.2711865-8.474577 4.0677966-11.355932 6.5254237-8.966102 10.4576271 1.830316 2.4832691 4.017823 4.6821987 6.491525 6.5254237.440717.2997771.945914.4914034 1.474577.5593221.898305-.5084746 1.694915-1.0338983 2.610169-1.5593221 2.246277-1.5470988 4.635746-2.8752122 7.135593-3.9661017.508126-.2079788 1.028948-.3834734 1.559323-.5254237 9.525423-2.4576271 19.033898-5.0847458 28.610169-7.2881356 5.084746-1.2033898 10.169492-2.5932203 15.254237-3.559322 2.525424-.4745763 4.847458-.8983051 7.40678-1.1525424.847458 0 5.542373-.7118644 4.898305.2372881-.644068.9491526-.881356 1.5593221-1.254237 2.2542373-.862074 1.6565211-1.806766 3.2687196-2.830509 4.8305085-5.819209 8.2711865-11.429378 16.6723164-16.830508 25.2033898-14.101969 22.1084622-26.89786 45.0233506-38.322034 68.6271186-6.237288 12.898305-11.864407 26.135593-17.169492 39.423729-.817202 2.015766-1.336768 4.139708-1.542373 6.305085-.745762 7.813559 3.983051 20.576271 13.881356 18.542373 9.542373-1.949153 19.152543-3.627119 28.694916-5.542373 2.38983-.474577 4.762712-.949153 7.135593-1.474577 7.322034-1.576271 14.627119-3.18644 22.033898-4.711864 15.84657-3.475384 31.862324-6.128648 47.983051-7.949153 10.294113-1.10905 20.648366-1.561943 31-1.355932.987566.028174 1.974292-.080194 2.932203-.322034 1.741124-.475106 3.16651-1.725445 3.864407-3.38983.102017-.287749.136804-.595033.101695-.898305-.118644-3.237288-5.728813-7.254238-7.830508-8.576271z"/><path d="m2199.52542 132.661017c-1.39567-1.317643-2.95-2.456349-4.62711-3.389831-1.46284-.881068-2.98645-1.657035-4.55933-2.322033-5.28081-2.357934-10.85707-3.98862-16.57627-4.847458-24.20043-3.046691-48.68952-3.012521-72.88135.101695-5.45763.694915-11.42373.932203-16.35594 4.79661-1.11903.915541-1.5342 2.440087-1.03389 3.79661 0 .169492.11864.338983.16949.525424 1.00784 3.445263.4632 7.158739-1.49153 10.169491-.99315 1.717972-2.12697 3.350679-3.38983 4.881356-9.80181 12.251661-20.64444 23.633016-32.40678 34.01695-3.69491 3.203389-7.49152 6.305084-11.44068 9.254237-4.07202 3.060961-8.73551 5.242644-13.69491 6.406779-.66133.246862-1.38952.246862-2.05085 0-1.83051-1-.18644-6.932203.27119-8.474576 1.06952-3.27365 2.49022-6.421927 4.23729-9.38983 12.08474-21.677966 31.47457-41.271187 53.76271-52.322034 2.37778-1.091543 4.4287-2.786038 5.94915-4.915254.6889-.855845.88546-2.007409.51944-3.043309s-1.2424-1.808364-2.31605-2.041437c-3.66171-.652985-7.43337-.259369-10.88136 1.135593-25.42373 9.322034-49.03389 28.932203-61.66101 53.016949-4.29399 7.846609-5.73171 16.940245-4.0678 25.728814 4.16949 19.237288 30.0678 15.254237 42.27119 7.406779 7.36304-4.811586 14.31861-10.219583 20.79661-16.169491 4.76094-4.343554 9.28712-8.937633 13.55932-13.762712 1.9322-2.186441 3.84746-4.40678 5.69491-6.677966 2.81173-3.411742 5.29187-7.083713 7.40678-10.966102 2.84409-5.324217 4.57415-11.171842 5.08475-17.18644.01904-1.40322.26516-2.7941.72881-4.118645 1.35594-3.169491 5.18644-4.38983 8.61017-5.084745 8.79661-1.593221 18.01695-1.694916 26.94915-2.220339 9.21071-.5706 18.447-.598897 27.66102-.084746 11.99586.621414 23.83745 2.985163 35.15254 7.016949.30922.040235.60978-.120706.7477-.400372.13791-.279666.08263-.616089-.13753-.836916z"/></g></svg>