<svg width="733" height="208" viewBox="0 0 733 208" fill="none" xmlns="http://www.w3.org/2000/svg">
<path d="M177.029 95.4168C177.755 95.13 181.076 94.7714 187.094 94.3963C193.112 94.0212 196.536 94.0796 197.782 93.9118C199.027 93.7439 199.182 93.4402 197.263 93.1728C195.343 92.9054 183.981 92.3863 181.646 92.4152C179.311 92.444 178.637 92.5253 178.637 92.5253C178.637 92.5253 182.826 85.6758 183.664 83.6437C184.501 81.6115 182.759 81.4049 181.676 81.7434C180.169 82.2157 170.801 92.8223 170.801 92.8223C170.801 92.8223 165.156 92.9159 162.398 93.0732C159.639 93.2305 155.491 93.4797 155.293 94.1595C155.094 94.8394 158.309 94.7577 158.703 95.7004C159.097 96.6431 159.885 97.0622 161.264 96.812C162.643 96.5618 168.423 95.6547 167.98 96.1308C167.537 96.6069 157.125 107.899 148.595 115.577C144.278 119.482 139.721 123.115 134.951 126.457C134.951 126.457 138.645 115.838 142.388 108.456C146.132 101.074 148.84 97.1893 149.382 96.5692C149.923 95.9492 157.952 89.4885 165.045 82.9983C172.137 76.508 178.491 68.5708 180.165 66.1252C181.84 63.6796 180.017 62.0021 177.998 61.4961C175.979 60.9901 169.379 60.7793 160.907 69.1866C152.435 77.594 143.422 90.3478 139.531 96.9894C135.64 103.631 134.284 105.971 132.905 108.803C131.526 111.636 128.268 118.405 127.609 122.977C126.95 127.55 127.703 128.839 129.351 130.156C130.999 131.473 133.918 132.505 135.707 131.062C137.496 129.619 150.257 117.472 156.538 110.981C163.398 103.891 170.012 96.1484 170.012 96.1484C169.694 96.5034 164.368 104.72 160.841 112.251C157.313 119.782 156.638 121.103 157.727 122.326C158.817 123.549 161.256 125.486 161.878 124.834C162.501 124.183 164.213 121.346 165.821 117.575C167.43 113.805 171.943 103.464 173.759 100.269C175.575 97.0742 176.303 95.7032 177.029 95.4168ZM167.065 72.1777C173.862 65.2367 176.965 63.5212 177.606 64.18C178.246 64.8387 176.818 67.2435 173.37 70.8595C169.922 74.4755 157.855 86.5432 153.176 90.1202C153.176 90.1202 160.27 79.1191 167.065 72.1777ZM191.649 83.4973C191.315 82.1622 191.315 81.1044 192.831 79.629C194.347 78.1535 195.438 78.7186 196.772 78.8981C198.106 79.0775 199.289 80.37 198.409 81.678C197.53 82.986 195.196 83.9033 194.438 84.7324C193.665 85.579 191.982 84.8323 191.649 83.4973ZM261.816 86.589C262.295 85.5731 265.203 81.9704 266.491 80.8982C267.78 79.826 268.405 80.1694 269.215 80.6628C270.025 81.1561 272.529 82.3459 271.277 84.0409C270.025 85.736 267.821 87.3022 266.512 88.044C265.203 88.7858 263.568 89.0001 262.663 88.7686C260.977 88.3375 261.337 87.6049 261.816 86.589H261.816ZM429.487 118.267C432.138 119.049 434.327 117.38 437.244 114.867C440.162 112.355 445.201 107.776 445.201 107.776C445.201 107.776 443.344 111.893 441.687 114.896C440.029 117.899 439.167 119.529 440.029 121.329C440.891 123.129 442.084 124.871 443.543 123.846C445.002 122.821 445.201 121.109 445.864 119.737C446.527 118.365 452.295 105.749 454.085 102.949C455.875 100.149 456.87 97.86 455.875 97.5088C454.881 97.1576 453.289 97.2558 453.289 97.2558C453.289 97.2558 452.494 95.9847 449.578 95.3288C446.662 94.6729 445.202 95.104 442.351 97.0883C439.5 99.0726 434.793 103.462 433.732 104.429C432.671 105.397 424.117 112.079 418.482 115.92C412.848 119.76 410.062 121.55 407.741 121.5C407.741 121.5 405.487 114.917 413.708 106.182C421.93 97.4465 425.112 95.2697 425.112 96.3919C425.112 97.5141 425.908 98.7847 427.698 97.7009C429.488 96.6171 430.019 94.5821 427.897 93.3487C425.775 92.1154 423.919 91.9444 418.084 96.2423C412.25 100.54 407.078 106.834 404.956 109.956C404.956 109.956 394.481 117.389 388.712 119.445C382.944 121.5 381.554 120.863 381.554 120.863C381.312 119.464 381.351 118.031 381.669 116.647C381.987 115.263 382.577 113.955 383.405 112.799C383.405 112.799 390.142 111.365 395.579 107.256C401.015 103.147 403.385 97.3817 402.39 95.8426C401.396 94.3034 398.52 92.8072 392.947 96.027C390.724 97.311 382.019 104.453 379.169 111.191C376.318 117.929 376.948 121.788 379.401 123.556C381.854 125.324 385.726 124.267 390.5 121.53C395.275 118.793 402.634 113.67 402.634 113.67C402.634 113.67 400.379 118.506 403.164 122.326C405.949 126.146 409.662 125.699 414.038 123.217C418.414 120.736 428.425 112.369 428.425 112.369C428.425 112.369 426.836 117.484 429.487 118.267ZM438.498 104.633C444.165 98.9322 446.908 97.5141 448.662 97.7752C450.416 98.0363 451.496 98.5965 451.271 98.9051C451.046 99.2137 444.255 105.382 440.747 108.531C437.239 111.679 433.371 115.537 430.988 115.979C430.988 115.979 432.832 110.332 438.498 104.633ZM398.523 97.4117C399.319 97.5605 398.936 99.1553 395.275 103.151C389.929 108.985 384.269 111.299 384.269 111.299C389.99 101.446 397.728 97.2628 398.523 97.4117ZM522.188 92.9479C523.194 91.7413 525.207 88.9396 526.636 87.9033C528.065 86.8669 528.649 86.912 530.078 87.9765C531.507 89.0409 532.643 90.4552 531.376 91.2687C530.11 92.0823 524.934 94.687 523.649 94.4005C522.637 94.1764 521.182 94.1549 522.188 92.9479ZM629.079 86.4243C638.237 87.0682 645.331 89.53 647.007 90.2722C648.684 91.0143 649.329 91.5411 648.813 90.5671C648.297 89.593 646.298 86.7262 638.173 84.3066C630.048 81.887 621.47 81.7688 621.148 81.8261C620.825 81.8835 625.833 75.2595 626.156 74.6888C626.478 74.118 624.555 74.3967 623.265 74.883C621.975 75.3693 616.311 81.8504 616.311 81.8504C616.311 81.8504 610.894 81.6069 602.381 82.5172C593.869 83.4276 582.002 84.2028 577.488 84.0427C572.974 83.8826 574.135 80.3127 574.135 79.1564C574.135 78 573.812 77.6728 573.168 79.8418C572.523 82.0109 573.748 86.8518 577.488 88.1953C581.229 89.5388 590.902 88.5648 596.9 87.7291C602.897 86.8933 612.635 86.4588 612.635 86.4588C609.024 91.1326 594.774 105.513 589.8 110.832C584.825 116.151 580.255 121.175 580.255 121.175C581.882 116.695 585.841 109.333 587.973 105.638C590.105 101.943 591.119 101.863 591.357 101.431C591.596 100.998 591.425 99.5786 590.58 98.3815C589.734 97.1843 588.887 97.4694 588.887 97.4694C588.887 97.4694 587.94 96.3036 585.401 95.7099C582.862 95.1163 579.613 96.0249 574.299 99.2812C568.985 102.538 566.074 107.058 565.702 107.354C565.329 107.65 562.689 109.648 559.135 112.066C555.581 114.484 550.165 118.311 550.165 118.311C551.113 114.053 554.43 107.282 555.649 105.152C556.867 103.022 557.341 101.785 557.544 99.7683C557.747 97.7516 555.953 97.3423 554.363 96.8856C552.772 96.4288 551.08 97.6091 546.273 101.309C541.467 105.009 536.729 110.445 536.729 110.445C539.042 106.228 540.913 101.785 542.314 97.1868C542.856 95.3454 541.705 93.9392 540.013 92.7576C538.32 91.5759 536.763 91.6104 537.136 92.1242C537.508 92.6379 537.692 93.013 537.136 94.1458C536.526 95.3876 533.09 101.692 530.704 106.544C528.318 111.396 525.355 118.266 524.624 120.472C523.892 122.678 524.316 124.258 526.048 126.478C527.779 128.698 529.857 125.755 532.396 122.629C534.936 119.504 538.707 113.57 542.709 108.446C546.71 103.322 552.867 99.5082 552.867 99.5082C551.559 101.817 547.403 111.803 546.441 114.617C545.479 117.431 545.979 119.816 547.288 121.53C548.596 123.243 550.366 122.553 553.252 119.971C556.138 117.389 563.777 111.081 563.777 111.081C562.447 114.495 562.907 117.303 563.946 118.398C564.984 119.493 567.024 119.651 569.486 117.711C571.949 115.772 576.259 111.995 576.259 111.995C576.259 111.995 573.488 117.758 572.642 119.579C571.795 121.399 573.027 124.643 573.988 126.311C574.95 127.978 575.835 128.571 576.682 128.13C577.529 127.688 578.221 127.971 580.107 126.364C581.992 124.757 582.713 124.15 587.936 117.648C593.16 111.147 611.123 90.7222 611.123 90.7222C611.123 90.7222 605.22 100.49 602.897 104.806C600.575 109.122 595.804 119.163 596.513 121.682C597.223 124.202 599.157 125.077 599.609 124.445C600.06 123.812 600.834 118.179 606.509 107.258C612.184 96.3363 617.666 87.273 617.924 86.829C618.182 86.3849 619.922 85.7803 629.079 86.4243ZM572.386 109.864C569.446 112.334 567.439 113.981 566.93 114.192C566.93 114.192 567.439 112.909 567.779 111.988C568.118 111.066 568.401 110.34 572.245 105.912C574.756 103.007 577.748 100.551 581.092 98.6517C582.138 98.0535 583.664 97.5257 584.399 97.8776C585.134 98.2294 585.756 98.1316 585.672 98.4673C585.588 98.803 583.749 100.171 581.403 102.147C579.057 104.123 575.325 107.394 572.386 109.864ZM668.694 94.6623C667.084 95.4766 662.916 96.7554 654.296 97.6094C645.676 98.4635 638.004 98.4416 637.389 98.4286C636.774 98.4156 637.341 98.0503 637.389 97.2498C637.437 96.4492 635.021 95.6438 632.558 96.2515C630.096 96.8592 626.923 98.5831 626.923 98.5831C625.086 98.9824 623.367 99.8016 621.903 100.976C621.903 100.976 619.818 102.016 614.468 107.701C609.117 113.386 609.637 120.564 609.872 122.643C610.108 124.722 611.009 127.9 617.401 127.801C623.794 127.701 631.231 120.74 635.872 113.578C640.513 106.416 638.382 102.363 637.908 101.741C637.435 101.118 637.529 101.12 638.619 100.954C639.708 100.789 645.249 100.577 654.769 99.9773C664.288 99.378 668.409 96.0242 669.356 95.0544C670.303 94.0845 670.304 93.8463 668.693 94.6606L668.694 94.6623ZM629.479 114.384C624.46 120.265 619.864 123.468 617.308 123.932C614.751 124.397 614.04 123.862 614.04 123.862C613.982 119.811 615.319 115.864 617.828 112.674C621.996 107.53 624.769 104.72 628.016 102.524C629.365 101.612 630.948 100.46 631.847 100.997C632.747 101.535 634.026 102.882 634.263 103.689C634.499 104.496 634.499 108.502 629.479 114.383V114.384ZM132.934 96.1917C130.526 96.8132 128.082 97.2886 125.617 97.6154C125.617 97.6154 124.153 99.9797 120.721 107.757C117.29 115.534 113.909 124.619 112.749 127.093C111.588 129.568 110.175 132.085 109.267 132.407C108.359 132.729 106.39 131.31 105.684 130.132C104.977 128.954 104.876 127.896 108.358 119.468C111.84 111.039 117.966 99.681 117.966 99.681C115.479 100.156 110.119 101.692 106.175 103.059C102.231 104.426 100.558 102.325 99.743 100.25C98.9282 98.1745 99.6143 97.4285 100.258 98.0042C100.901 98.5799 100.944 99.093 105.917 97.5876C110.891 96.0822 120.821 94.4523 120.821 94.4523C120.821 94.4523 123.184 90.0537 127.373 83.7728C130.914 78.4642 137.505 70.0678 139.857 66.8244C140.75 65.5998 139.662 65.7758 137.758 66.5967H137.753C134.913 68.3562 120.324 76.0052 108.144 87.4349C95.3608 99.4304 80.3067 116.114 77.0433 119.394C73.7799 122.674 70.5848 123.722 66.9816 122.389C63.3785 121.055 62.2905 118.72 62.0862 116.819C61.8819 114.918 61.9504 113.634 63.3103 114.557C64.6702 115.48 65.5589 117.348 68.0011 116.331C71.191 115.004 73.4802 113.713 87.4076 99.377C101.335 85.041 108.005 80.123 120.721 71.6882C132.275 64.0251 138.358 62.9501 140.55 62.891C140.555 62.891 140.559 62.8889 140.565 62.8882C147.895 62.0855 140.121 73.5504 138.333 76.4711C135.254 81.4964 128.442 93.1858 128.442 93.1858C129.653 93.0236 137.273 92.6643 138.636 92.8086C139.998 92.9529 139.493 93.4388 138.383 94.207C137.273 94.9752 136.414 95.2479 132.932 96.1931L132.934 96.1917ZM320.396 92.3747C319.371 92.0123 315.548 90.6909 309.438 90.0459C305.699 89.6319 301.932 89.5315 298.177 89.7458C297.695 89.7901 296.852 90.0329 296.611 89.605C295.467 88.2196 294.022 87.5739 291.974 88.2277C289.927 88.8815 288.09 89.9319 286.705 90.0976C285.32 90.2634 282.52 91.1625 275.233 95.9949C267.947 100.827 264.093 105.38 259.757 110.277C255.454 115.137 252.758 117.414 252.719 117.448C253.931 114.333 258.481 105.743 261.151 101.319C263.885 96.7874 263.402 94.3759 261.151 93.5275C258.899 92.6791 257.291 93.392 257.631 94.1986L257.648 94.2232C257.658 94.3867 257.702 94.5463 257.777 94.6919C258.048 95.2701 257.927 95.5058 256.873 97.4504C255.819 99.3949 252.682 106.514 252.682 106.514C252.682 106.514 250.746 106.727 246.593 107.592C242.439 108.457 236.137 110.774 236.137 110.774C236.137 110.774 235.183 108.605 233.798 102.145C232.414 95.6853 237.57 91.6203 241.914 90.0959C246.258 88.5715 247.929 89.5276 247.929 89.5276C248.693 91.1681 248.407 91.9669 249.982 91.7322C251.558 91.4975 252.799 90.3489 252.369 88.8143C251.939 87.2797 250.507 86.331 248.693 85.9879C246.878 85.6448 242.439 83.9822 234.132 89.0392C225.825 94.0962 227.21 103.835 227.21 103.835C223.654 104.351 220.186 105.343 216.898 106.785C216.945 105.36 216.468 102.732 216.372 98.6887C216.276 94.6458 217.805 92.5563 218.855 91.7156C219.905 90.875 221.194 90.9538 221.91 90.1212C222.627 89.2887 222.006 88.4135 221.194 88.1024C220.383 87.7914 218.664 87.4036 217.471 87.9831C216.277 88.5627 211.789 91.6512 206.776 95.9584C201.764 100.265 193.697 109.322 187.776 115.596C181.854 121.87 178.753 124.052 178.753 124.052C179.23 122.309 181.379 117.767 184.625 111.836C187.872 105.904 188.492 103.928 188.969 102.66C189.447 101.392 188.015 99.4452 186.916 99.03C185.818 98.6148 184.434 98.7133 184.434 99.2355C184.434 99.7577 184.768 99.9115 184.434 100.851C184.434 100.851 184.151 102.239 181.706 106.522C179.26 110.805 175.849 117.673 174.65 120.022C173.451 122.371 173.543 123.568 173.774 124.355C174.004 125.143 174.327 127.265 176.172 127.874C178.016 128.483 179.308 128.066 185.857 121.62C192.407 115.173 196.048 109.781 202.09 103.271C208.131 96.7621 212.142 94.143 212.142 94.143C212.142 94.143 211.082 96.6273 209.606 100.574C208.13 104.52 208.269 110.447 208.269 110.447C205.519 111.916 202.87 113.564 200.337 115.38C196.325 118.282 194.204 121.106 194.204 122.254C194.204 123.401 197.755 124.754 201.675 125.155C205.594 125.555 207.531 124.149 209.883 122.663C212.235 121.178 215.094 118.745 215.74 116.148C216.385 113.552 216.662 109.017 216.662 109.017C220.397 106.428 227.408 104.861 227.408 104.861C227.686 107.166 230.589 113.639 230.589 113.639C230.589 113.639 223.949 117.421 219.522 120.86C215.095 124.299 213.343 127.411 215.417 127.614C217.492 127.818 221.505 127.579 226.9 126.788C232.296 125.997 236.538 124.985 238.014 122.415C239.49 119.846 237.23 113.852 236.999 113.477C236.768 113.103 237.23 112.75 242.118 110.841C245.39 109.596 248.731 108.538 252.125 107.674C252.125 107.674 250.557 111.25 249.358 114.242C248.159 117.233 247.651 120.66 249.358 122.092C251.065 123.524 252.724 123.118 255.307 120.492C257.889 117.866 260.656 113.501 267.85 105.331C275.044 97.1604 279.194 95.5484 279.194 95.5484C275.126 99.2482 271.699 103.59 269.049 108.399C264.529 116.517 269.756 121.688 272.887 123.407C276.018 125.126 277.765 125.781 285.262 121.225C292.759 116.669 298.63 107.266 300.437 101.778C302.244 96.2909 300.407 93.2949 300.136 92.8051C299.865 92.3152 299.805 92.1365 300.348 92.1228C303.375 91.9138 306.411 91.8903 309.441 92.0524C314.349 92.3293 319.889 93.1359 320.399 93.152C320.909 93.1682 321.418 92.7368 320.394 92.3744L320.396 92.3747ZM205.153 119.565C202.594 121.812 198.755 122.49 197.878 122.681C197.001 122.871 196.744 121.66 197.878 120.388C199.011 119.115 204.056 114.981 208.224 113.04C208.654 112.84 207.712 117.318 205.153 119.565ZM230.224 120.832C228.386 121.754 220.539 124.967 218.995 125.539C217.451 126.111 217.123 126.166 217.484 125.295C217.845 124.423 220.768 122.033 224.281 119.629C226.545 118.099 228.902 116.712 231.341 115.477C231.746 116.355 232.086 117.262 232.358 118.19C232.654 119.342 232.064 119.91 230.225 120.833L230.224 120.832ZM295.999 100.293C292.736 106.373 286.613 114.231 279.863 117.441C273.114 120.651 272.935 119.799 273.606 117.553C274.278 115.307 275.215 108.482 280.445 102.242C283.6 98.4798 287.289 95.1951 291.396 92.4919C291.396 92.4919 294.57 92.6379 296.581 92.1685C296.58 92.1685 299.262 94.2119 295.999 100.293ZM390.147 75.2842C385.413 67.0148 373.208 61.3082 354.165 61.0084C335.121 60.7086 321.924 68.5388 320.259 69.7088C318.594 70.8789 318.282 74.8383 320.192 76.0826C322.101 77.3269 325.348 76.3191 326.366 75.8972C327.385 75.4752 327.022 74.7285 326.048 75.0034C324.245 75.5115 321.02 74.0441 323.4 72.6432C325.779 71.2424 339.211 66.6376 352.489 66.6143C355.036 66.6098 357.716 66.7262 360.41 66.9687C358.525 67.7506 356.153 70.6283 352.188 75.2828L352.171 75.3028L352.156 75.3197C349.969 77.8849 347.927 80.5701 346.041 83.3625C345.712 83.8506 345.344 84.4252 344.961 85.0354C344.956 85.0431 344.951 85.0484 344.946 85.0558C342.758 88.3283 331.943 106.826 327.638 115.407C323.334 123.988 328.254 125.521 331.944 126.104L331.954 126.079C332.784 126.241 333.403 126.13 333.694 125.61C334.154 124.789 334.903 122.895 335.112 122.526C335.21 122.299 335.359 122.098 335.547 121.936C335.734 121.775 335.957 121.658 336.196 121.595C336.905 121.361 340.487 120.52 348.483 117.548C356.479 114.576 368.052 108.014 378.048 101.209C388.043 94.4044 394.88 83.5539 390.147 75.2842ZM336.831 119.001C340.515 110.598 348.037 97.8459 353.64 88.2615C359.243 78.6771 362.083 74.0005 363.618 72.1228C365.703 69.7271 366.003 68.3576 365.505 67.5834C375.04 69.0522 383.782 72.2636 386.26 77.7221C389.867 85.6688 376.819 97.1576 363.234 105.885C354.935 111.194 346.083 115.592 336.831 119.001ZM526.643 100.998C525.341 100.339 524.874 100.827 524.507 100.52C524.14 100.213 523.338 101.326 522.604 101.942C521.87 102.558 513.747 108.03 506.18 112.965C498.612 117.9 494.939 118.169 493.843 118.276C492.747 118.384 492.749 117.077 493.187 115.345C493.625 113.613 495.029 109.838 496.166 108.729C498.662 109.04 501.196 108.868 503.627 108.222C508.524 106.994 512.948 104.356 516.347 100.638C518.796 97.9898 517.552 94.6124 514.402 93.631C511.253 92.6495 505.697 93.4022 500.098 98.2055C499.552 98.4923 492.986 103.976 489.733 110.774C487.164 116.14 488.961 120.567 492.132 121.658C495.302 122.748 498.472 121.493 503.185 118.758C507.898 116.022 520.733 105.22 520.733 105.22C520.733 105.22 517.324 109.91 515.867 113.889C514.41 117.867 515.181 118.394 515.524 119.596C515.867 120.798 517.666 122.542 518.437 120.511C519.209 118.48 523.972 107.754 525.574 105.363C527.176 102.971 527.945 101.657 526.643 100.998ZM497.967 105.756C498.38 105.216 500.929 100.608 505.199 97.956C509.469 95.3042 513.086 95.724 513.603 96.8317C514.12 97.9395 511.571 100.491 508.574 102.382C505.578 104.272 502.306 105.951 498.587 106.318C497.715 106.404 497.554 106.296 497.967 105.756ZM490.281 92.7305C493.991 92.5053 504.445 91.4397 505.083 90.8655C505.777 90.2419 507.754 89.3801 505.083 89.4294C502.601 89.4755 494.049 89.5403 491.598 89.5121C491.93 88.3157 493.646 82.8121 498.615 76.7899C504.235 69.9791 508.809 69.383 509.555 70.092C510.301 70.8011 509.008 72.7041 510.202 73.2738C511.395 73.8435 513.583 73.5934 513.185 71.5552C512.788 69.5171 511.246 66.0686 507.964 65.9C504.682 65.7314 499.659 68.7925 497.521 70.7768C497.045 69.9778 496.459 69.2488 495.78 68.611C494.684 67.5979 491.554 66.7885 487.973 68.5937C484.393 70.3989 479.821 71.4317 470.988 88.2372C470.988 88.2372 453.876 87.7769 453.18 88.1088C452.484 88.4406 452.682 91.514 452.732 92.406C452.782 93.2981 453.333 93.4811 455.449 93.5261C457.564 93.5711 460.886 93.5641 463.784 93.5613C466.625 93.5574 468.086 93.4944 468.086 93.4944C468.086 93.4944 463.026 102.873 459.445 110.619C455.865 118.364 451.34 126.634 445.472 133.588C439.604 140.542 431.62 144.013 425.752 144.387C419.885 144.761 417.38 144.423 418.311 145.013C419.241 145.603 423.033 147.179 430.547 146.983C438.06 146.788 445.716 145.098 452.657 136.84C459.599 128.582 463.605 119.977 467.899 110.879C472.192 101.781 476.292 93.9565 476.462 93.6718C477.544 93.6095 481.602 93.2361 483.602 93.2787C483.602 93.2787 478.508 104.222 474.052 115.642C469.596 127.061 467.369 131.365 462.998 135.366C458.628 139.368 457.257 139.595 456.743 140.095C456.229 140.596 458.97 140.996 460.771 140.522C462.571 140.049 469.425 138.107 475.594 126.572C481.764 115.038 489.525 94.2879 489.825 93.6985C489.962 93.4307 490.119 93.0905 490.281 92.7305ZM479.576 88.7682C479.576 88.7682 481.054 85.0501 484.637 78.8449C488.22 72.6397 492.392 70.9172 493.89 70.7891C494.329 70.7596 494.769 70.8486 495.162 71.0467C495.555 71.2449 495.887 71.5449 496.123 71.9152C490.347 77.3828 485.134 89.0078 485.134 89.0078C483.41 88.9705 479.576 88.7682 479.576 88.7682Z" fill="black"/>
</svg>
