<svg width="733" height="208" viewBox="0 0 733 208" fill="none" xmlns="http://www.w3.org/2000/svg">
<path d="M143.066 103.173C144.12 102.92 147.013 99.9875 148.107 98.4546C148.502 97.9069 149.935 96.3974 149.962 95.2953C149.994 94.1064 147.989 93.0544 145.478 94.8144C142.967 96.5744 128.045 109.241 124.97 113.226C124.97 113.226 129.735 104.9 131.91 101.123C134.085 97.3458 134.989 94.4838 132.755 93.0544C130.52 91.6251 129.071 91.418 125.815 92.8474C122.558 94.2767 113.909 101.888 110.695 104.493C110.695 104.493 114.039 100.215 110.391 98.0071C110.547 97.6472 110.536 97.2509 110.36 96.8977C110.184 96.5445 109.857 96.2608 109.444 96.1035C107.932 95.4022 103.345 97.4059 97.7943 101.631C92.2439 105.855 86.9264 110.006 84.9368 114.602C82.9472 119.197 83.9696 121.191 85.1776 123.027C86.3856 124.864 89.22 125.786 92.9031 124.968C96.5863 124.149 99.4839 119.811 102.2 117.206C104.916 114.602 110.652 108.627 114.935 104.389C119.218 100.151 123.868 94.7877 127.311 94.2801C127.311 94.2801 123.083 100.101 117.955 108.169C112.827 116.238 110.529 119.965 109.744 122.416C108.958 124.868 109.625 126.347 110.166 127.522C110.707 128.698 112.037 130.381 114.213 130.281C116.388 130.181 118.981 127.573 119.826 125.378C120.671 123.184 125.258 116.492 130.268 111.232C135.277 105.972 140.721 100.769 141.084 101.176C141.447 101.584 141.029 103.654 143.066 103.173ZM107.766 103.878C105.772 106.329 97.9245 115.567 94.3046 118.278C90.6846 120.99 88.4463 121.702 88.4463 121.702C88.4463 121.702 87.9054 118.178 91.6044 113.99C95.3033 109.803 101.201 104.95 103.917 102.652C106.633 100.355 106.511 100.408 107.6 100.255C107.905 100.218 108.213 100.207 108.52 100.221C108.52 100.221 109.744 101.413 107.754 103.878H107.766ZM206.698 91.9891C205.581 91.5015 204.546 91.6752 203.512 92.657C203.512 92.657 202.19 91.221 200.204 90.9405C198.218 90.6599 193.335 91.9891 187.832 95.7695C182.329 99.55 174.552 105.815 168.883 110.681C163.215 115.547 151.601 125.392 147.408 127.396C147.408 127.396 147.156 123.077 152.824 112.965C160.325 99.57 169.132 87.9448 171.974 84.9125C176.754 83.8828 181.618 83.155 186.525 82.7351C195.258 81.9336 204.866 81.8768 210.416 82.6215C215.967 83.3662 216.373 84.1678 217.593 83.9373C218.813 83.7069 219.283 83.079 216.239 81.7065C213.196 80.3339 208.111 77.7557 196.754 77.926C190.464 78.0026 184.183 78.366 177.939 79.0147C177.6 79.0147 183.284 73.5178 186.265 71.4572C189.245 69.3967 189.514 68.9392 188.701 68.0208C187.887 67.1024 187.007 66.4178 185.045 67.3929C183.083 68.3681 174.951 74.8202 170.293 80.1035C170.293 80.1035 166.298 80.3873 160.747 80.905C155.197 81.4226 150.393 81.8768 146.603 81.3057C142.813 80.7346 142.671 79.706 142.718 77.8025C142.766 76.2663 143.042 75.6017 142.324 75.241C141.605 74.8803 141.218 74.6966 140.792 76.0826C140.366 77.4685 139.651 81.8734 142.217 84.1344C144.783 86.3953 148.139 86.7593 152.698 86.5188C157.258 86.2784 166.029 85.34 166.029 85.34C160.526 91.6163 155.611 98.2466 151.328 105.171C144.246 116.619 141.135 123.391 142.789 126.187C144.444 128.982 145.474 131.954 148.158 131.954C150.843 131.954 156.01 127.673 162.208 121.468C168.406 115.263 175.531 108.443 175.531 108.443C175.531 108.443 172.839 112.184 173.707 114.214C174.185 115.404 174.796 116.552 175.531 117.644C175.985 118.342 178.425 119.113 180.864 117.504C183.304 115.894 187.86 111.826 190.134 109.522C191.188 108.5 192.169 107.425 193.071 106.303C193.071 106.303 190.88 110.888 189.431 114.004C187.982 117.12 187.611 118.011 188.728 119.183C189.845 120.356 190.011 120.897 190.753 121.738C191.495 122.58 193.359 122.647 193.939 120.62C194.519 118.592 197.334 110.364 199.359 106.129C201.384 101.894 205.525 96.1536 206.682 94.751C207.839 93.3483 207.807 92.48 206.686 91.9891H206.698ZM185.535 108.427C180.568 112.975 177.41 114.645 177.41 114.645C177.41 114.645 177.931 111.382 181.693 107.164C185.456 102.946 190.773 98.8486 193.686 96.7814C196.6 94.7142 199 93.4786 200.397 93.6355C201.795 93.7925 202.276 93.6355 202.276 93.6355C198.092 96.3439 190.52 103.901 185.535 108.427ZM280.148 91.4447C278.296 91.3846 278.229 89.7749 271.297 91.4447C264.365 93.1146 256.406 97.0753 248.993 105.251C245.168 109.469 243.967 113.222 243.794 116.004C228.631 128.063 231.24 122.383 233.384 117.884C235.91 112.731 239.341 106.249 243.075 101.053C250.007 91.4314 258.586 80.04 259.545 77.6722C260.504 75.3044 260.575 73.7248 259.545 72.5626C258.515 71.4004 257.35 70.5322 255.427 72.7964C253.505 75.0607 243.008 87.5408 240.47 91.3145C240.47 91.3145 238.496 89.6447 233.127 90.3126C227.758 90.9805 219.883 93.2748 211.988 102.389C204.092 111.502 203.204 116.729 204.716 119.922C206.228 123.114 209.52 123.695 213.5 121.952C217.479 120.209 226.744 111.265 230.38 107.498C228.097 110.903 226.036 114.41 224.206 118.005C221.801 122.941 221.663 124.333 223.519 125.899C226.953 129.055 228.351 129.907 233.929 125.692C237.718 122.83 241.69 119.761 243.853 118.081C244.039 119.531 244.481 120.503 244.737 120.82C245.495 121.748 245.922 122.677 248.649 124.477C251.377 126.277 255.581 126.277 262.924 123.141C270.267 120.005 276.235 113.563 279.875 106.777C283.515 99.9908 280.491 95.2252 280.491 95.2252C280.037 94.2667 291.939 93.0177 294.628 93.0177C297.316 93.0177 297.509 92.3798 298.129 92.0893C298.749 91.7987 296.688 91.3345 290.992 91.0874C285.295 90.8403 282.023 91.5149 280.148 91.4581V91.4447ZM216.196 115.45C213.725 117.714 211.392 119.284 211.115 119.34C210.839 119.397 210.843 117.714 211.735 114.929C212.627 112.144 216.95 104.653 224.636 98.8486C232.322 93.0444 238.291 93.1713 238.291 93.1713C238.291 93.1713 237.264 94.9146 231.773 100.428C226.282 105.942 218.647 113.199 216.176 115.463L216.196 115.45ZM267.472 113.563C262.052 119.02 256.418 121.224 252.171 121.515C247.923 121.805 247.71 117.914 249.013 114.548C250.315 111.182 255.806 101.253 270.492 94.8111C270.492 94.8111 270.63 95.6827 272.414 95.145C274.198 94.6074 275.706 95.843 275.501 98.9188C275.296 101.995 272.876 108.119 267.452 113.576L267.472 113.563ZM386.383 97.613C396.406 88.1018 395.636 79.1851 389.47 72.8799C383.303 66.5747 375.313 62.6741 363.234 61.8058C351.154 60.9375 344.474 61.0443 329.438 64.1969C314.401 67.3495 304.102 71.4171 301.52 72.6461C298.938 73.8751 299.041 75.0139 298.757 76.5167C298.473 78.0195 296.874 79.8563 297.967 80.5242C299.061 81.1922 299.688 81.8901 304.157 81.0686C308.626 80.2471 311.48 78.9747 311.966 78.1531C312.451 77.3316 311.966 75.4046 314.279 74.7835C339.856 67.8705 352.176 68.869 352.176 68.869C347.68 71.6943 341.518 79.7394 334.57 90.0655C327.622 100.392 311.827 124.961 309.771 127.897C307.714 130.832 307.978 131.804 309.656 131.704C311.334 131.603 314.393 130.729 315.183 130.121C315.972 129.513 317.626 127.249 317.626 127.249C319.296 128.771 328.163 126.581 342.295 122.029C356.428 117.477 376.34 107.138 386.363 97.6264L386.383 97.613ZM374.934 101.036C362.985 110.604 341.656 117.016 332.272 120.603C322.889 124.19 320.579 124.844 320.579 124.844C320.579 124.844 324.562 119.952 330.089 112.451C335.616 104.95 343.582 90.5998 349.492 82.9922C355.401 75.3846 357.845 68.859 357.845 68.859C357.845 68.859 373.257 67.3495 384.567 75.1775C397.317 84.0041 386.88 91.4848 374.926 101.049L374.934 101.036ZM444.539 110.19C444.539 110.19 441.428 113.99 442.328 116.445C443.229 118.9 445.025 119.835 449.434 117.086C453.844 114.338 460.282 108.437 460.282 108.437C460.282 108.437 458.072 112.351 456.69 115.684C455.308 119.017 454.894 119.775 456.137 121.531C457.381 123.288 458.901 123.692 459.382 122.466C459.864 121.241 465.327 108.554 466.847 105.805C468.367 103.057 469.682 101.303 468.505 100.485C467.329 99.6669 466.5 99.8439 466.5 99.8439C466.5 99.8439 466.018 98.2375 464.222 98.4245C462.426 98.6115 457.511 100.368 454.961 102.355C447.772 105.625 441.013 109.53 434.796 114.004C424.568 121.368 420.561 124.524 416.76 124.056C416.76 124.056 419.732 113.887 428.164 105.174C436.596 96.4608 441.014 95.9966 441.428 96.9317C441.843 97.8668 442.328 98.862 443.434 99.1526C443.434 99.1526 445.23 96.7581 443.986 95.1784C442.743 93.5988 442.467 92.1394 440.185 92.3732C437.903 92.6069 427.947 93.3082 413.238 110.961C409.005 114.013 404.422 116.698 399.556 118.976C392.493 122.233 390.366 121.785 389.122 121.257C387.879 120.73 390.089 115.47 391.333 113.777C391.333 113.777 401.281 109.275 407.779 105.297C414.277 101.32 416.554 97.0319 412.547 96.2805C408.541 95.5291 402.801 96.5276 395.967 102.081C389.134 107.635 386.568 111.726 385.115 114.298C382.732 115.378 380.273 116.335 377.753 117.163C376.474 117.55 377.248 118.108 378.452 118.265C379.656 118.422 383.584 117.454 383.584 117.454C383.584 117.454 381.397 124.293 389.813 124.878C398.229 125.462 411.92 113.713 411.92 113.713C411.92 113.713 407.36 121.08 411.715 124.61C415.54 127.72 419.314 127.803 423.182 125.278C427.051 122.754 438.795 113.182 444.531 110.203L444.539 110.19ZM452.19 107.201C456.639 103.721 458.557 103.006 460.413 102.245C461.825 101.696 463.275 101.219 464.755 100.816C464.755 100.816 459.347 105.341 455.407 108.296C451.467 111.252 447.184 114.204 445.83 114.642C447.343 111.837 449.496 109.313 452.166 107.214L452.19 107.201ZM403.764 100.442C409.081 97.81 412.263 97.9837 410.475 99.737C408.687 101.49 399.56 107.515 393.409 109.909C393.397 109.909 398.443 103.083 403.764 100.442ZM555.989 96.4041C555.227 96.3106 552.491 96.0701 549.827 98.2676C547.162 100.465 541.335 107.138 531.541 113.122C521.747 119.107 517.397 118.693 514.728 118.278C512.06 117.864 512.336 116.896 512.391 115.193C512.446 113.489 512.825 112.478 513.315 112.341C513.804 112.204 517.614 110.728 523.109 107.922C528.604 105.117 533.018 101.784 535.177 99.3028C537.336 96.8215 536.361 95.2118 534.273 94.5038C532.393 93.9036 530.367 93.7062 528.375 93.9294C526.697 94.0931 522.927 95.8931 522.927 95.8931C521.237 95.0895 519.481 94.3887 517.673 93.7958C515.253 93.0578 510.441 92.126 510.441 92.126C516.666 78.6173 523.137 76.8106 525.221 76.6202C527.305 76.4299 527.7 77.906 528.774 78.8611C529.848 79.8162 531.814 77.9528 532.828 76.5234C533.843 75.094 528.944 72.7129 526.35 72.8498C523.756 72.9868 518.917 75.5215 518.917 75.5215C519.197 74.6165 516.548 72.6628 514.298 71.6142C512.048 70.5655 508.834 71.0899 501.401 75.0907C493.968 79.0916 487.32 88.8131 486.755 89.2907C486.191 89.7683 486.475 89.7683 480.956 89.7215C476.101 89.7397 471.277 90.3816 466.65 91.6251C463.61 92.4834 463.551 93.7224 463.835 94.6875C464.119 95.6526 464.51 96.5811 465.75 96.0567C468.556 94.754 471.644 93.9441 474.829 93.6756C477.764 93.3887 480.719 93.2771 483.672 93.3416C476.468 101.547 472.366 113.984 467.625 120.696C462.884 127.409 453.856 139.285 444.373 144.301C434.891 149.317 427.047 149.16 424.86 148.926C422.673 148.692 420.21 148.772 422.582 149.467C424.955 150.162 428.054 151.628 438.373 150.703C448.692 149.778 455.608 144.992 464.767 136.276C473.925 127.559 478.584 117.07 482.504 109.893C486.424 102.716 491.556 94.3636 491.777 94.1131C492.168 93.7288 492.722 93.4891 493.32 93.4452C494.019 93.4151 500.031 93.3517 500.896 93.3517C501.76 93.3517 502.368 93.6021 502.147 94.0196C499.961 97.5347 497.984 101.14 496.226 104.823C493.32 110.928 485.243 128.003 478.998 134.653C472.753 141.302 461.013 144.855 459.181 145.219C457.349 145.583 458.32 146.131 461.23 145.947C464.139 145.763 473.396 143.669 479.752 140.483C486.108 137.298 494.074 126.05 499.242 115.937C504.409 105.825 508.961 95.5157 509.111 95.1016C509.261 94.6875 510.145 94.3168 513.354 94.7343C516.564 95.1517 521.569 96.6712 521.569 96.6712C509.276 103.394 508.515 109.322 508.187 112.635C507.859 115.947 508.404 120.412 513.354 121.748C518.305 123.084 524.945 121.197 531.091 117.33C537.238 113.463 545.697 104.857 545.697 104.857C545.697 104.857 542.954 109.749 541.268 111.636C539.582 113.523 538.71 115.824 538.71 116.699C538.71 117.574 538.71 120.012 539.105 120.426C539.5 120.84 541.679 121.735 542.496 121.184C543.313 120.633 543.581 120.125 545.705 116.766C547.829 113.406 550.766 108.343 552.341 106.136C553.916 103.928 555.934 99.8739 556.857 98.311C557.781 96.748 556.778 96.5009 555.989 96.4041ZM503.88 90.9605C503.88 90.9605 501.511 90.4996 499.38 90.2725C497.248 90.0455 494.39 89.9052 494.39 89.9052C494.39 89.9052 497.86 83.0256 503.608 78.7142C509.355 74.4028 514.018 74.6766 514.72 74.7067C515.423 74.7367 515.861 75.2577 515.265 76.2195C515.176 76.3253 515.121 76.4485 515.105 76.5774C515.088 76.7063 515.111 76.8366 515.171 76.956C515.23 77.0754 515.325 77.1799 515.446 77.2597C515.567 77.3394 515.71 77.3918 515.861 77.4117C508.747 83.1625 503.88 90.9605 503.88 90.9605ZM523.35 100.208C529.046 96.3272 532.035 96.2805 533.369 96.3707C533.369 96.3707 526.618 105.294 514.175 109.308C514.164 109.308 517.642 104.085 523.338 100.208H523.35ZM549.317 90.3393C549.049 89.1738 549.76 87.8547 551.453 86.6658C553.719 85.1392 556.113 83.7551 558.618 82.5247C560.087 81.8868 562.933 83.5265 563.509 83.9941C564.086 84.4616 563.466 86.1014 562.889 86.442C562.313 86.7827 555.547 90.356 553.589 90.8837C551.374 91.4581 549.57 91.5049 549.306 90.3393H549.317ZM659.539 83.0456C671.809 81.0653 678.314 82.2909 682.128 83.2126C685.941 84.1344 687.035 84.5151 687.927 84.9759C688.819 85.4368 689.312 86.5255 689.613 86.1916C689.913 85.8576 689.463 84.3047 687.777 82.7518C686.091 81.1988 682.128 79.0782 677.225 77.8058C672.322 76.5334 665.631 76.677 665.631 76.677C665.631 76.677 670.585 71.7344 670.834 71.2301C671.082 70.7258 670.091 70.2683 668.753 70.1848C667.415 70.1013 666.471 70.4353 665.236 71.4004C664 72.3656 656.812 77.5821 656.812 77.5821C656.812 77.5821 655.13 77.7223 652.157 78.0162C649.185 78.3101 639.324 79.2318 630.655 80.2805C621.986 81.3291 618.267 81.9503 613.561 81.7465C608.856 81.5428 610.34 78.604 610.798 77.9761C611.236 77.3577 611.444 76.642 611.394 75.9223C611.343 75.2076 611.343 74.4128 610.948 74.7067C610.553 75.0005 607.877 77.5988 608.023 81.1187C608.169 84.6386 611.69 86.8194 616.313 87.1968C620.935 87.5741 627.611 86.8194 633.209 86.0212C638.806 85.2231 650.452 83.8238 650.452 83.8238C648.36 85.3667 634.578 98.1473 628.925 104.286C623.272 110.424 616.735 116.555 616.735 116.555C616.735 116.555 617.493 113.77 621.141 106.506C624.788 99.2427 627.548 95.3621 627.994 94.7242C628.44 94.0864 627.816 92.6904 627.279 92.3498C626.742 92.0091 625.59 92.1628 625.009 92.1628C624.429 92.1628 623.722 92.7639 623.722 92.7639C621.141 90.3193 617.58 90.7334 612.776 92.9543C607.971 95.1751 600.806 102.589 600.629 102.666C600.451 102.743 592.13 107.709 587.412 110.758C582.695 113.807 578.869 116.178 578.869 116.178C578.869 116.178 579.402 113.242 581.937 107.972C584.471 102.703 587.369 98.6015 587.633 96.1536C587.898 93.7057 585.497 94.1498 584.562 93.8159C583.626 93.4819 582.829 93.7391 578.423 96.7514C574.018 99.7637 567.165 106.727 567.165 106.727C567.165 106.727 571.925 99.2728 572.462 96.5644C572.999 93.8559 571.673 92.0459 569.79 91.2878C567.907 90.5297 567.477 90.8035 567.698 91.2878C567.919 91.772 567.816 92.4533 567.165 93.5153C565.258 96.6245 556.707 110.768 554.781 114.087C552.854 117.407 552.412 119.35 553.301 121.668C554.189 123.986 555.152 124.3 556.186 123.922C557.221 123.545 557.967 122.42 566.703 112.334C575.439 102.248 583.37 96.364 583.37 96.364C582.406 97.8768 578.85 104.877 576.777 109.322C574.705 113.767 574.926 115.333 575.147 117.093C575.368 118.853 576.26 120.099 577.219 120.038C578.179 119.978 581.167 118.91 584.554 116.592C587.941 114.274 596.152 108.427 596.152 108.427C594.376 111.81 596.152 115.757 598.225 116.512C600.297 117.267 603.187 115.51 607.04 111.072C610.893 106.633 617.335 100.909 617.335 100.909C617.335 100.909 613.557 106.61 611.335 109.993C609.112 113.376 608.078 116.886 608.224 118.202C608.37 119.517 609.408 121.147 610.226 122.336C611.043 123.525 614.149 122.9 615.851 121.772C617.552 120.643 622.594 114.882 633.331 103.354C644.069 91.8255 650.661 85.8108 650.661 85.8108C645.478 91.949 637.764 106.216 634.807 112.357C631.851 118.499 632.96 121.665 633.746 122.289C634.531 122.914 634.898 124.089 635.779 124.557C636.659 125.024 638.321 124.791 639.154 124.323C639.987 123.856 639.549 123.031 641.558 116.776C643.636 109.996 646.419 103.386 649.876 97.0219C652.548 92.1065 655.785 87.4253 659.539 83.0456ZM603.625 109.569C602.337 110.843 600.88 111.989 599.283 112.982C599.283 112.982 599.429 111.683 600.822 109.205C602.216 106.727 607.533 101.08 610.376 98.6015C613.218 96.1235 617.087 93.4819 619.309 93.1179C621.532 92.7539 621.855 94.0496 621.855 94.0496C615.776 98.0739 605.978 107.278 603.625 109.552V109.569ZM705.04 93.375C700.82 94.2834 697.33 95.0448 691.5 94.9613C686.964 94.9113 681.236 93.866 681.236 93.866C680.647 93.9361 680.565 93.7591 680.024 93.512C679.483 93.2648 676.427 93.2314 672.373 94.4671C668.319 95.7027 660.53 98.3277 660.925 99.4598C660.925 99.4598 655.659 103.173 651.897 108.089C648.135 113.005 649.169 116.482 650.393 118.612C651.617 120.743 655.331 123.391 661.241 122.286C667.15 121.181 678.093 116.802 683.281 111.563C688.468 106.323 689.549 101.627 687.749 99.6168C685.949 97.6063 684.939 96.9451 684.591 96.5076C684.244 96.0701 686.431 96.4508 687.805 96.6011C692.143 97.0271 696.527 96.9811 700.851 96.4642C705.016 95.9532 707.464 92.8374 705.04 93.3583V93.375ZM681.919 103.835C679.25 108.103 675.35 112.852 666.7 115.994C658.051 119.137 656.105 118.719 655.596 118.332C655.086 117.945 653.136 113.202 657.175 108.503C661.213 103.805 668.832 97.102 680.703 96.5978C680.679 96.5911 684.575 99.57 681.919 103.835ZM94.8454 100.124C92.84 100.295 83.3657 100.011 76.2481 101.013C72.5215 106.383 68.637 111.846 65.1473 116.515C59.0364 124.694 50.1463 130.425 41.8207 132.305C33.4951 134.185 30.1633 134.279 28.154 134.185C26.1446 134.091 26.8197 133.621 29.7093 132.398C37.7949 129.116 44.9262 124.367 50.5963 118.489C59.2614 109.562 64.038 102.325 64.038 102.325C64.038 102.325 60.3707 102.703 55.1479 103.734C49.9252 104.766 49.7081 105.334 46.5973 105.992C43.4866 106.65 42.7089 106.086 42.5984 105.237C42.4878 104.389 41.7062 103.083 44.1498 102.415C46.5934 101.747 56.4822 98.7418 67.0461 98.0004C67.0461 98.0004 80.9379 78.447 91.1662 67.3161C86.7054 66.7951 82.0116 66.3677 77.0415 66.1406C60.5917 65.3925 49.3725 68.2111 43.0405 70.6557C36.7085 73.1003 34.711 75.8221 35.8203 77.1379C36.9296 78.4537 38.106 80.3205 36.3769 79.863C35.5874 79.6526 32.9306 79.1116 32.1529 75.6351C31.3752 72.1585 29.3738 70.1848 36.3769 66.1439C43.38 62.103 54.8163 57.4042 70.5911 58.0621C86.3659 58.72 98.5878 62.1965 111.485 64.0767C124.382 65.9569 132.261 65.3925 135.703 64.2637C139.146 63.1349 138.925 63.5123 136.923 65.486C134.922 67.4597 130.137 72.4391 118.59 71.1233C112.732 70.4553 106.305 69.3867 99.2983 68.3881C97.9009 70.1481 95.1967 73.3307 94.2217 74.7334C91.7386 78.3234 87.9449 83.7937 84.1512 89.4443C82.5445 91.8388 80.776 94.4537 78.9443 97.1254C82.4159 97.1387 85.8842 97.3082 89.3345 97.633C94.4664 98.1507 96.6337 98.6683 96.9692 99.236C97.3048 99.8038 97.0719 99.934 94.8454 100.124Z" fill="black"/>
</svg>
