<svg width="733" height="208" viewBox="0 0 733 208" fill="none" xmlns="http://www.w3.org/2000/svg">
<path d="M233.342 104.827C234.846 102.133 237.429 96.8433 235.852 94.6899C235.129 93.702 233.024 94.5835 233.024 94.5835C233.488 94.1386 233.977 93.7171 234.489 93.3208C234.964 92.9972 234.37 91.7776 233.697 91.6943C233.024 91.6109 231.639 92.1413 228.393 94.8462C225.147 97.551 222.218 101.875 222.218 101.875C222.218 101.875 218.696 104.687 214.777 108.188C210.857 111.689 202.11 120.993 202.11 120.993C202.11 120.993 205.159 111.526 209.852 103.143C214.544 94.7605 215.752 93.598 215.752 93.598C215.752 93.598 223.191 86.4981 227.415 82.1477C231.639 77.7974 238.074 70.8693 233.449 70.4917C228.825 70.1142 225.941 71.4382 223.996 73.2741C222.052 75.1101 216.555 80.7459 211.661 89.3744C206.767 98.0029 205.628 100.535 205.628 100.535C201.818 103.701 197.787 106.632 193.561 109.307C187.192 113.253 185.785 113.358 183.371 113.383C183.371 113.383 183.505 109.967 185.382 106.95C187.259 103.932 187.662 103.565 188.6 103.392C189.538 103.22 195.974 101.512 198.521 98.9387C201.069 96.3658 202.007 95.4475 200.801 94.4353C199.594 93.4231 199.259 91.9893 195.036 93.6052C190.813 95.2211 183.438 100.458 180.824 107.628C180.824 107.628 170.769 116.492 164.467 121.372C164.467 121.372 168.173 107.49 176.043 94.0417C183.914 80.5931 185.933 76.5071 183.814 75.6348C181.695 74.7625 179.273 75.1937 173.725 79.8831C168.177 84.5724 154.149 98.7727 149.508 104.691C149.508 104.691 159.901 86.4156 162.02 82.7977C164.139 79.1797 164.745 77.6928 162.826 77.0099C160.907 76.3269 159.092 77.7035 155.762 80.0882C152.432 82.473 141.837 91.5773 138.508 94.8025C138.508 94.8025 147.153 82.1937 150.414 75.6135C153.038 70.3199 151.121 66.4566 148.699 64.9252C146.277 63.3938 141.737 63.888 136.59 65.4964C131.444 67.1048 124.266 69.0609 102.73 82.0265C101.211 82.9408 100.411 82.7264 99.6185 82.1906C98.8263 81.6547 98.6004 83.2249 100.128 84.6101C101.655 85.9953 103.974 85.7677 108.16 82.8925C112.346 80.0173 121.51 72.9673 131.069 69.0695C140.629 65.1717 146.116 65.0947 147.304 65.7941C148.492 66.4934 148.548 67.0183 147.304 69.3597C146.059 71.7011 136.273 86.7138 131.409 93.3015C126.544 99.8892 119.19 110.742 117.776 113.343C116.362 115.944 116.419 116.627 117.267 118.108C118.115 119.588 120.209 121.192 122.188 119.019C124.168 116.845 129.317 109.946 135.312 102.588C141.306 95.2292 149.228 87.427 153.583 83.8725C157.937 80.3181 159.918 79.1401 159.918 79.1401C159.918 79.1401 154.94 86.6679 151.093 93.0366C147.247 99.4054 142.778 106.105 141.873 109.395C140.968 112.685 141.195 113.056 141.93 113.958C142.665 114.86 143.627 116.605 145.946 114.017C148.265 111.429 152.621 104.571 158.9 97.3211C165.179 90.0715 173.267 82.5342 176.718 79.8578C180.168 77.1814 180.904 77.0875 180.904 77.0875C180.904 77.0875 174.625 86.2242 169.93 93.5509C165.235 100.878 160.635 110.465 159.106 115.759C157.576 121.053 157.576 122.046 158.876 123.554C160.176 125.062 162.088 126.507 164.306 124.555C166.523 122.603 177.622 112.644 180.341 109.563C180.341 109.563 179.273 112.759 181.539 114.653C183.805 116.547 185.909 116.548 189.471 115.069C193.033 113.591 201.222 105.778 203.518 104.306C203.518 104.306 199.892 112.412 198.824 115.222C197.756 118.031 197.557 119.937 198.626 121.824C199.695 123.712 200.882 125.6 202.862 124.235C204.842 122.869 206.939 119.377 210.7 114.992C214.46 110.607 220.081 105.699 220.081 105.699C220.081 105.699 218.617 109.493 219.21 111.301C219.804 113.109 220.398 114.364 222.1 114.903C223.802 115.442 224.871 114.65 226.613 113.171C228.354 111.692 231.838 107.521 233.342 104.827ZM225.892 76.6022C228.612 73.1204 230.665 71.5801 231.795 71.6445C232.926 71.7088 233.336 72.2381 232.103 73.9807C230.871 75.7233 226.817 80.3756 218.294 88.5786C218.294 88.5786 223.171 80.0839 225.892 76.6022ZM193.917 96.6735C196.759 94.8151 198.247 94.8677 198.677 94.966C199.106 95.0642 199.338 95.282 198.677 95.8854C198.015 96.4888 197.09 97.7317 194.545 99.1652C192.793 100.113 190.943 100.896 189.024 101.505C189.024 101.505 191.074 98.5319 193.917 96.6735ZM221.718 111.933C222.319 108.297 223.82 104.839 226.104 101.831C229.833 97.0571 231.423 95.8909 231.423 95.8909C231.423 95.8909 234.332 95.4553 233.89 96.9643C233.524 98.2167 231.094 104.141 227.585 107.546C224.076 110.95 221.718 111.933 221.718 111.933H221.718ZM262.401 116.645C262.51 116.9 262.236 117.099 260.372 116.869C258.507 116.639 253.134 115.136 242.278 117.671C231.422 120.206 227.969 121.376 226.817 121.817C225.665 122.258 223.472 123.75 224.624 122.039C225.775 120.328 229.504 116.469 236.138 111.585C242.772 106.7 255.931 97.3375 258.124 94.6758C258.124 94.6758 254.122 94.3629 249.406 94.1922C244.691 94.0215 242.661 93.5239 241.95 92.9139C240.555 91.7175 239.537 89.7781 240.25 87.7554C240.963 85.7326 241.292 84.3144 241.95 84.9847C242.608 85.6551 241.785 86.5075 243.759 86.7903C245.733 87.073 253.08 87.8416 258.729 88.4834C264.378 89.1253 265.363 90.1562 266.35 91.2888C267.337 92.4215 267.94 94.1077 266.734 94.9033C265.527 95.6989 264.815 95.6564 264.486 95.8963C264.157 96.1362 250.393 105.389 244.142 109.72C237.891 114.05 235.315 116.249 235.315 116.249C235.315 116.249 241.127 114.148 245.512 113.348C249.897 112.549 254.779 112.569 258.012 113.785C261.246 115.002 262.291 116.389 262.401 116.645L262.401 116.645ZM270.539 88.4392C271.552 87.4319 272.803 86.0694 273.607 85.5011C274.411 84.9327 275.126 84.6948 275.633 84.9784C276.14 85.262 277.421 85.9711 277.57 86.4705C277.718 86.9698 277.331 88.0137 276.676 88.1424C275.739 88.3831 274.845 88.7515 274.025 89.2357C273.339 89.6666 272.535 89.7109 271.105 89.7729C270.025 89.8206 269.526 89.4468 270.54 88.4401L270.539 88.4392ZM508.252 93.0142C507.142 93.9701 506.216 97.6165 504.428 100.449C504.428 100.449 496.532 106.225 490.486 110.538C484.441 114.852 481.419 115.038 481.48 113.38C481.542 111.723 482.159 108.072 483.146 106.887C483.146 106.887 489.376 104.233 493.694 101.151C498.013 98.069 499.246 94.9421 496.593 93.8167C493.94 92.6913 489.376 94.1687 486.539 97.3866C486.539 97.3866 477.695 99.476 472.043 101.234C472.043 101.234 475.559 94.1951 477.039 92.6148C477.039 92.6148 485.86 86.9684 489.56 82.2762C493.261 77.584 491.164 76.181 488.08 76.1359C484.995 76.0907 479.814 81.1614 477.285 84.7267C474.756 88.2921 471.363 94.1899 471.363 94.1899C468.045 96.4558 464.561 98.5066 460.938 100.328C455.139 103.216 454.336 103.433 454.336 103.433C454.336 103.433 458.346 96.4583 458.901 95.6087C459.457 94.7591 464.453 90.6004 467.475 87.7855C470.498 84.9707 475.618 79.8989 475.556 77.0972C475.495 74.2956 472.596 74.1953 470.622 75.1949C468.648 76.1945 462.91 81.4872 458.1 88.736C453.29 95.9848 451.148 101.044 451.148 101.044C451.148 101.044 445.355 105.744 444.484 106.532C443.614 107.32 436.388 112.893 435.279 114.135C435.279 114.135 438.98 104.868 440.769 102.207C442.558 99.545 443.175 98.2391 442.496 97.7716C441.818 97.3042 439.844 97.5613 439.844 97.5613C439.844 97.5613 438.733 94.9717 436.266 94.9355C433.798 94.8993 429.912 97.9877 427.322 100.066C424.731 102.144 416.712 107.916 411.53 111.672C406.348 115.427 403.943 116.536 403.388 116.7C402.833 116.864 403.554 110.05 407.334 105.297C411.948 99.4959 417.637 96.4934 418.069 96.7856C418.5 97.0778 419.179 98.6316 419.981 97.7857C420.451 97.3372 420.743 96.7546 420.81 96.1326C420.877 95.5107 420.716 94.886 420.351 94.36C419.488 92.9748 418.809 93.251 416.773 93.9644C409.99 96.3629 404.261 100.786 400.488 106.535C400.488 106.535 394.073 110.387 387.967 112.757C381.861 115.126 379.269 115.146 379.824 113.038C380.108 111.86 380.619 110.739 381.332 109.729C381.332 109.729 386.875 107.915 390.028 106.014C393.181 104.112 398.548 99.7004 398.315 97.8578C398.082 96.0153 392.829 94.2069 390.203 96.1161C387.577 98.0254 380.632 103.388 377.772 108.27C374.913 113.152 377.481 116.002 379.698 116.683C381.916 117.365 383.316 117.44 388.102 115.563C392.887 113.686 399.194 109.09 399.194 109.09C399.194 109.09 396.542 113.969 399.482 117.028C400.287 117.866 401.291 119.218 403.976 119.258C406.661 119.297 407.594 118.012 409.52 116.85C411.446 115.688 422.849 105.537 422.849 105.537C422.849 105.537 419.24 110.523 422.358 112.494C424.058 113.568 425.043 113.777 427.086 111.968C429.129 110.159 435.197 104.08 435.197 104.08C435.197 104.08 433.038 108.593 431.579 112.034C430.12 115.475 430.47 115.913 431.113 117.112C431.755 118.312 433.272 118.983 433.739 118.071C434.205 117.158 437.357 114.335 438.115 113.59C438.874 112.845 448.715 105.268 448.715 105.268C448.135 106.149 447.608 107.058 447.135 107.992C446.435 109.4 440.993 121.124 439.045 128.918C437.098 136.712 437.497 140.097 439.644 142.628C441.792 145.159 444.438 143.578 445.287 142.711C446.136 141.843 449.285 132.583 450.209 125.162C451.133 117.742 449.469 112.571 449.469 112.571C449.469 112.571 452.06 107.52 452.553 106.554C452.553 106.554 459.093 103.677 463.41 101.281C467.727 98.8853 469.02 98.1032 469.02 98.1032C469.02 98.1032 466.923 102.018 465.936 103.834C465.936 103.834 462.05 105.264 459.151 106.994C456.252 108.725 455.881 109.462 456.56 110.559C457.239 111.655 458.658 112.305 459.275 111.628C459.892 110.951 459.891 110.264 461.002 109.48C461.912 108.892 462.883 108.39 463.901 107.978C463.901 107.978 459.336 117.405 456.684 125.2C454.031 132.995 453.106 137.957 455.758 140.626C458.411 143.296 460.261 142.408 461.804 141.23C463.346 140.052 466.615 135.41 467.909 129.253C469.204 123.096 468.588 116.968 467.599 114.895C466.611 112.822 466.798 112.482 467.106 111.972C467.415 111.461 470.005 105.438 470.499 105.102C470.993 104.766 477.222 101.484 484.316 99.4703C481.867 101.531 479.936 104.066 478.66 106.896C476.686 111.441 476.946 113.801 478.387 115.725C479.164 116.763 482.396 118.3 485.974 116.293C489.552 114.287 502.02 103.904 502.02 103.904C502.02 103.904 500.601 107.6 499.799 109.704C498.998 111.808 498.813 112.434 499.121 113.641C499.429 114.847 500.108 115.828 500.724 115.837C501.341 115.846 502.205 115.859 503.069 114.442C503.933 113.025 508.805 101.888 510.039 99.5617C511.273 97.2352 511.705 96.1549 511.335 95.0056C510.965 93.8563 509.363 92.0591 508.253 93.0151L508.252 93.0142ZM484.707 81.4582C487.736 78.25 488.918 77.5138 489.066 77.8928C489.214 78.2718 488.549 81.4803 480.202 87.7608C481.388 85.48 482.904 83.3599 484.708 81.459L484.707 81.4582ZM467.607 80.7629C469.823 77.9534 472.889 76.2519 473.258 76.5657C473.627 76.8794 473.48 78.281 471.153 81.1571C468.826 84.0331 463.656 89.3331 461.772 90.5723C461.772 90.5731 465.392 83.5731 467.608 80.7637L467.607 80.7629ZM389.151 100.753C392.069 98.1992 394.053 96.9298 394.403 97.2053C394.753 97.4809 391.893 102.633 383.198 107.158C383.198 107.158 386.233 103.307 389.151 100.753ZM430.675 105.418C428.416 107.478 426.006 109.392 423.463 111.145C423.802 109.086 426.464 105.222 429.174 102.525C431.885 99.8286 435.127 96.6899 436.434 96.754C437.74 96.818 438.321 98.4865 438.321 98.4865C438.321 98.4865 434.692 101.798 430.675 105.418ZM447.473 127.685C445.628 136.802 442.382 141.002 442.382 141.002C442.382 141.002 439.773 136.422 443.146 127.504C446.519 118.585 448.555 114.072 448.555 114.072C448.555 114.072 449.318 118.568 447.474 127.686L447.473 127.685ZM465.114 131.572C462.511 139.818 459.062 140.608 459.062 140.608C459.062 140.608 458.326 137.503 460.928 129.151C463.531 120.799 465.906 115.432 465.906 115.432C466.812 118.173 467.717 123.326 465.115 131.573L465.114 131.572ZM490.852 97.5484C493.963 94.92 495.999 94.6353 495.547 95.8871C495.094 97.139 494.101 99.3269 484.642 104.327C484.643 104.328 487.741 100.178 490.852 97.5493L490.852 97.5484ZM507.936 87.6252C509.147 86.7308 510.167 85.518 512.287 84.7423C514.407 83.9665 514.671 84.6018 515.655 85.5985C516.639 86.5952 517.019 87.9335 515.655 88.0189C514.291 88.1042 512.136 88.9845 510.471 89.3118C508.681 89.6629 507.633 89.2354 506.914 89.2598C506.195 89.2842 506.725 88.5202 507.936 87.6261L507.936 87.6252ZM562.881 96.1621C561.81 95.6274 561.055 95.6616 560.424 94.8349C559.794 94.0083 557.59 93.8006 555.323 94.8769C553.056 95.9532 545.178 101.855 545.178 101.855C540.706 104.884 529.449 115.266 529.449 115.266C530.198 112.049 533.695 105.471 535.55 101.394C537.404 97.3165 538.199 95.8897 537.025 94.329C535.852 92.7683 534.453 93.0987 531.577 94.7401C528.7 96.3816 521.322 103.36 521.322 103.36C521.322 103.36 524.689 99.1649 526.051 97.3953C527.414 95.6257 527.641 94.928 527.036 93.5164C526.431 92.1048 525.143 90.9981 524.046 90.9119C522.949 90.8257 521.965 91.548 521.322 93.4328C521.322 93.4328 519.421 96.7014 516.937 101.109C514.454 105.516 512.144 111.158 511.97 112.28C511.797 113.401 513.126 114.064 514.071 113.81C515.017 113.556 516.071 112.34 520.98 106.95C525.89 101.561 531.896 97.4194 531.896 97.4194C531.318 99.3918 524.965 109.739 523.579 113.253C522.193 116.766 523.463 117.963 525.253 119.327C527.043 120.692 527.621 120.754 528.256 120.175C528.892 119.595 530.682 118.604 534.783 114.166C538.883 109.729 544.179 104.325 544.179 104.325C541.637 108.304 541.526 111.402 544.196 112.752C544.99 113.154 546.969 112.632 549.337 110.649C551.705 108.667 555.574 104.887 555.574 104.887C554.765 106.588 552.165 112.226 551.184 114.192C550.204 116.159 551.669 118.178 553.055 119.016C554.442 119.854 554.755 118.107 556.519 113.053C558.283 107.999 560.424 102.601 561.935 100.229C563.447 97.857 563.952 96.6974 562.882 96.1629L562.881 96.1621ZM559.676 97.3441C559.098 97.9782 550.031 108.661 544.486 110.881C544.486 110.881 546.16 106.248 549.453 103.245C552.747 100.241 557.308 96.7741 558.463 96.4695C559.618 96.165 560.254 96.7109 559.676 97.345L559.676 97.3441ZM331.219 95.0091C331.357 94.2445 331.219 91.8773 326.877 90.1677C322.535 88.4582 316.333 87.9554 309.578 88.8782C302.824 89.8011 295.932 91.171 295.932 91.171C297.31 89.9772 300.55 89.1943 301.032 88.3705C301.514 87.5468 300.756 87.2164 299.378 86.7492C297.999 86.282 297.173 86.6529 294.622 87.9559C292.072 89.2589 286.284 92.5631 279.598 98.0877C272.913 103.612 265.445 112.034 265.445 112.034C265.445 112.034 266.398 109.314 268.93 104.354C271.463 99.3941 273.102 97.3981 273.34 96.6284C273.578 95.8587 272.863 95.2679 271.91 95.0884C270.957 94.9088 270.55 95.1257 269.988 96.0546C268.442 98.6118 264.505 106.109 263.815 107.568C263.126 109.027 262.851 110.301 263.333 111.267C263.816 112.232 264.505 113.712 265.445 113.598C266.385 113.484 267.193 112.921 271.535 108.384C275.876 103.848 282.355 97.7446 282.355 97.7446C275.05 106.391 276.91 111.466 278.013 112.757C279.116 114.048 278.978 115.585 281.804 116.521C284.63 117.457 288.351 115.467 294.554 109.679C296.397 107.972 298.019 106.07 299.385 104.013C299.406 103.983 299.424 103.964 299.445 103.933C302.914 98.6586 305.238 92.8421 301.349 91.5457C305.083 90.8274 311.46 90.1051 318.331 90.043C325.844 89.9752 329.014 92.358 329.91 93.3932C330.806 94.4284 331.082 95.7759 331.22 95.0099L331.219 95.0091ZM298 97.2772C297.845 97.5852 297.675 97.9093 297.478 98.2604C297.462 98.2874 297.447 98.3158 297.433 98.3431C295.648 101.406 293.427 104.233 290.831 106.749C285.18 112.289 281.458 113.127 281.458 113.127C281.458 113.127 280.838 107.049 286.007 100.48C291.175 93.9112 293.726 92.7978 294.346 92.6154C296.503 92.2649 299.303 94.2592 298.001 97.278L298 97.2772ZM383.833 93.0952C389.876 82.4147 377.682 75.2969 367.904 72.9325C358.126 70.5682 348.154 69.7622 341.096 70.2604C334.038 70.7587 326.139 73.2213 323.743 74.5079C321.348 75.7945 320.959 78.429 321.606 79.8808C322.254 81.3326 323.355 81.767 324.002 80.8761C324.65 79.9851 324.552 79.5642 325.88 78.9826C339.335 73.0949 354.069 75.3679 354.069 75.3679C354.069 75.3679 353.714 76.4309 353.278 77.5779C352.842 78.7249 346.081 87.1822 341.642 94.1937C337.204 101.205 331.88 112.318 331.251 115.107C330.959 116.405 330.908 118.226 331.603 119.422C332.598 120.916 336.194 121.188 340.858 119.688C348.437 117.251 363.642 109.558 370.862 104.601L370.888 104.582C377.765 100.296 381.385 97.4246 383.833 93.0961L383.833 93.0952ZM375.991 97.4096C372.856 100.016 369.543 102.432 366.074 104.645C356.305 110.244 335.164 119.674 336.896 116.182C337.876 114.287 339.047 111.503 343.149 104.417C348.297 95.5234 355.841 85.6775 357.883 81.84C359.924 78.0026 356.019 75.6411 356.019 75.6411C356.019 75.6411 360.191 75.1262 367.913 77.3788C376.703 79.8943 391.081 84.7951 375.993 97.4105L375.991 97.4096ZM631.462 87.0127C630.723 88.1272 627.959 89.812 624.528 90.4956C621.097 91.1791 610.215 91.5678 609.424 91.654C608.632 91.7402 608.027 91.1369 607.484 90.8234C605.748 89.827 602.387 89.2368 598.953 89.7477C593.998 90.4846 593.273 92.932 594.962 93.1036C594.962 93.1036 587.392 98.6971 585.334 100.966C585.334 100.966 584.067 101.388 576.625 108.276C569.182 115.163 564.38 119.251 564.38 119.251C564.38 119.251 566.913 112.442 572.455 103.935C577.996 95.428 581.48 89.7051 582.061 89.2242C588.879 88.6561 594.258 87.9499 595.068 87.1221C595.878 86.2944 598.833 85.3657 595.068 85.312C591.421 85.2475 587.773 85.4215 584.152 85.8326C584.579 85.206 585.74 83.4938 586.343 82.5503C587.087 81.3846 587.174 79.357 586.693 78.0919C586.212 76.8269 585.03 76.039 583.804 77.0355C582.579 78.0319 580.857 80.1385 577.099 86.1685C577.099 86.1685 571.405 87.3684 565.541 87.1244C562.698 87.0063 560.314 86.6679 560.417 87.0991C560.553 87.6695 563.299 88.5277 565.491 89.036C569.85 90.0468 574.882 89.7077 574.882 89.7077C574.882 89.7077 567.968 100.712 564.695 107.368C561.423 114.024 560.263 116.599 560.948 117.979C561.633 119.359 561.951 121.81 563.798 121.935C565.645 122.06 568.39 118.675 570.501 116.553C572.612 114.431 582.429 104.985 582.429 104.985C582.429 104.985 579.79 111.063 581.532 114.464C583.273 117.865 585.859 119.518 593.67 116.941C601.481 114.365 608.671 107.698 610.573 102.876C612.474 98.0532 611.361 95.4814 611.255 94.9415C611.148 94.4017 612.207 94.4336 612.999 94.2982C613.79 94.1629 621.456 93.6908 625.739 92.0459C629.881 90.4548 631.3 89.4083 631.776 88.0941C632.251 86.7799 632.2 85.8981 631.462 87.0127ZM599.172 91.7017C602.342 91.4785 604.34 92.5266 604.34 92.5266C598.975 93.1015 596.003 91.9258 599.172 91.7017ZM598.124 110.837C592.489 115.259 587.475 115.808 585.459 115.252C583.444 114.696 583.391 109.567 587.94 103.548C592.489 97.5289 596.867 94.951 599.745 94.6427C602.624 94.3344 605.794 94.1922 605.794 94.1922C608.967 98.3268 603.758 106.415 598.124 110.837Z" fill="black"/>
</svg>
