<?xml version="1.0" encoding="UTF-8" standalone="no"?>
<!-- Created with Inkscape (http://www.inkscape.org/) -->

<svg
   xmlns:dc="http://purl.org/dc/elements/1.1/"
   xmlns:cc="http://creativecommons.org/ns#"
   xmlns:rdf="http://www.w3.org/1999/02/22-rdf-syntax-ns#"
   xmlns:svg="http://www.w3.org/2000/svg"
   xmlns="http://www.w3.org/2000/svg"
   xmlns:sodipodi="http://sodipodi.sourceforge.net/DTD/sodipodi-0.dtd"
   xmlns:inkscape="http://www.inkscape.org/namespaces/inkscape"
   version="1.0"
   width="771.42859"
   height="440"
   id="svg45873"
   inkscape:version="0.48.1 r9760"
   sodipodi:docname="Nespresso-logo.svg">
  <metadata
     id="metadata23">
    <rdf:RDF>
      <cc:Work
         rdf:about="">
        <dc:format>image/svg+xml</dc:format>
        <dc:type
           rdf:resource="http://purl.org/dc/dcmitype/StillImage" />
      </cc:Work>
    </rdf:RDF>
  </metadata>
  <sodipodi:namedview
     pagecolor="#ffffff"
     bordercolor="#666666"
     borderopacity="1"
     objecttolerance="10"
     gridtolerance="10"
     guidetolerance="10"
     inkscape:pageopacity="0"
     inkscape:pageshadow="2"
     inkscape:window-width="858"
     inkscape:window-height="523"
     id="namedview21"
     showgrid="false"
     inkscape:zoom="0.59545455"
     inkscape:cx="385.71429"
     inkscape:cy="220"
     inkscape:window-x="0"
     inkscape:window-y="0"
     inkscape:window-maximized="0"
     inkscape:current-layer="svg45873" />
  <defs
     id="defs45875">
    <clipPath
       id="clipPath31427">
      <path
         d="M 521.205,685.804 L 564.35,685.804 L 564.35,659.117 L 521.205,659.117 L 521.205,685.804 z"
         id="path31429" />
    </clipPath>
  </defs>
  <g
     transform="translate(367.14285,-126.6479)"
     id="layer1"
     style="fill:#000000">
    <path
       d="m 308.21076,506.56822 c 2.08199,0 17.17261,0.63828 17.05103,-29.45178 -0.10638,-27.93209 -14.78668,-27.09626 -17.1878,-27.09626 l 0.0456,0 c -2.40113,0 -17.08143,-0.83583 -17.20301,27.09626 -0.13677,30.09006 14.95385,29.45178 17.02064,29.45178 l 0.27355,0 z m 0.0608,10.24278 c -4.99982,0.076 -37.67337,-1.04859 -37.67337,-38.28124 0.13677,-37.11108 32.47599,-37.61258 37.47581,-37.58219 5.0302,-0.0304 37.35422,0.47111 37.41501,37.58219 0.0912,37.23265 -32.61276,38.35723 -37.61258,38.28124"
       id="path31407"
       style="fill:#000000;fill-opacity:1;fill-rule:nonzero;stroke:none"
       inkscape:connector-curvature="0" />
    <path
       d="m 261.25202,445.14194 0,9.23978 c -3.79925,-1.62608 -5.97242,-2.81144 -10.01482,-3.90563 -3.17617,-0.69906 -16.77749,-3.92082 -23.3122,2.91783 -2.73546,2.76585 -3.5561,7.84165 1.91482,11.79287 7.70488,4.98462 18.72271,7.29456 27.76492,14.6803 5.94203,4.68068 7.85685,10.19719 6.35235,18.63153 -1.55009,8.57111 -10.91145,15.48574 -19.31539,17.24859 -12.23358,2.46192 -25.98687,1.30695 -36.89832,-3.29775 l 0.076,-9.103 c 10.01482,4.19437 25.59175,9.52852 35.25704,1.04859 2.67467,-2.44671 4.28555,-5.89643 2.88743,-9.48293 -2.17317,-6.5803 -20.13603,-10.50112 -31.09306,-18.66191 -10.88106,-6.67149 -9.89325,-18.13003 -6.094,-24.43678 10.24278,-15.34897 36.21445,-11.10901 52.47524,-6.67149"
       id="path31409"
       style="fill:#000000;fill-opacity:1;fill-rule:nonzero;stroke:none"
       inkscape:connector-curvature="0" />
    <path
       d="m 198.50361,445.14194 0,9.23978 c -3.82965,-1.62608 -5.98762,-2.81144 -10.01483,-3.90563 -3.14578,-0.69906 -16.80788,-3.92082 -23.297,2.91783 -2.76586,2.76585 -3.60169,7.84165 1.82364,11.79287 7.76567,4.98462 18.7683,7.29456 27.8409,14.6803 5.92684,4.68068 7.82646,10.19719 6.30676,18.63153 -1.5197,8.57111 -10.92664,15.48574 -19.28499,17.24859 -12.23359,2.46192 -25.98688,1.30695 -36.86793,-3.29775 l 0.0456,-9.103 c 10.03002,4.19437 25.59175,9.52852 35.30264,1.04859 2.58349,-2.44671 4.22476,-5.89643 2.85703,-9.48293 -2.23396,-6.5803 -20.16642,-10.50112 -31.10826,-18.66191 -10.86586,-6.67149 -9.89325,-18.13003 -6.10919,-24.43678 10.24277,-15.34897 36.22965,-11.10901 52.50564,-6.67149"
       id="path31411"
       style="fill:#000000;fill-opacity:1;fill-rule:nonzero;stroke:none"
       inkscape:connector-curvature="0" />
    <path
       d="m -58.599264,445.14194 0,9.23978 c -3.860039,-1.62608 -5.987619,-2.81144 -10.060415,-3.90563 -3.160977,-0.69906 -16.762293,-3.92082 -23.251412,2.91783 -2.781052,2.76585 -3.60169,7.84165 1.869231,11.79287 7.689683,4.98462 18.737903,7.29456 27.780118,14.6803 5.942028,4.68068 7.841653,10.19719 6.33715,18.63153 -1.5197,8.57111 -10.941841,15.48574 -19.300192,17.24859 -12.218389,2.46192 -26.002066,1.30695 -36.898316,-3.29775 l 0.0456,-9.103 c 10.06041,4.19437 25.622142,9.52852 35.317829,1.04859 2.629081,-2.44671 4.239963,-5.89643 2.826642,-9.48293 -2.173171,-6.5803 -20.105633,-10.50112 -31.077871,-18.66191 -10.86585,-6.67149 -9.86285,-18.13003 -6.12439,-24.43678 10.27317,-15.34897 36.275244,-11.10901 52.536036,-6.67149"
       id="path31413"
       style="fill:#000000;fill-opacity:1;fill-rule:nonzero;stroke:none"
       inkscape:connector-curvature="0" />
    <path
       d="m -151.19459,508.14871 c 9.90844,0.98781 22.02045,-0.53189 31.68574,-0.79024 l 0.0456,8.22158 -52.46005,0 c 0,0 1.64127,-1.70207 1.64127,-4.5591 l 0,-64.3745 c 0,-2.84184 -1.64127,-4.60469 -1.64127,-4.60469 l 52.46005,0 -0.0456,8.22157 c -9.66529,-0.16716 -21.7773,-1.74765 -31.68574,-0.72945 0,0 -0.0152,22.73471 -0.0152,24.28481 8.13039,0.5015 17.68931,0.57748 25.28781,-0.37993 l 0,8.72308 c -7.46173,-0.69906 -17.2334,-0.83583 -25.28781,-0.41032 l 0.0152,2.79625"
       id="path31415"
       style="fill:#000000;fill-opacity:1;fill-rule:nonzero;stroke:none"
       inkscape:connector-curvature="0" />
    <path
       d="m 106.21222,508.14871 c 9.90844,0.98781 21.99006,-0.53189 31.70094,-0.79024 l 0.0152,8.22158 -52.384066,0 c 0,0 1.610882,-1.70207 1.610882,-4.5591 l 0,-64.3745 c 0,-2.84184 -1.610882,-4.60469 -1.610882,-4.60469 l 52.384066,0 -0.0152,8.22157 c -9.71088,-0.16716 -21.7925,-1.74765 -31.70094,-0.72945 0,0 -0.0304,22.73471 -0.0304,24.28481 8.14559,0.5015 17.70451,0.57748 25.3486,-0.37993 l 0,8.72308 c -7.47692,-0.69906 -17.27899,-0.83583 -25.3182,-0.41032 l 0,2.79625"
       id="path31417"
       style="fill:#000000;fill-opacity:1;fill-rule:nonzero;stroke:none"
       inkscape:connector-curvature="0" />
    <path
       d="m 34.862294,451.31193 0,24.8167 c 6.321953,0 13.981242,0.83584 18.373175,-4.23996 3.738462,-4.96942 3.100188,-11.36736 0.623077,-15.91126 -4.391933,-7.40094 -18.996252,-4.66548 -18.996252,-4.66548 m 0.121576,33.90451 0,25.80451 c 0.0152,2.84184 1.641276,4.60469 1.641276,4.60469 l -22.40038,-0.0456 c 0,0 1.610883,-1.70207 1.62608,-4.5591 l -0.0152,-64.3745 c 0,-2.84184 -1.610883,-4.60469 -1.610883,-4.60469 l 38.205262,0 c 10.379552,0.44071 21.366984,6.16998 21.686121,18.64672 0.121576,10.18199 -4.391934,16.06323 -11.184993,19.31539 -1.291745,0.60788 -1.200563,0.45591 -1.641276,0.75985 4.817449,11.20019 9.178989,19.45216 14.984243,30.25723 1.185366,2.84184 3.525704,4.5591 3.525704,4.5591 l -23.145033,0 c 0,0 1.398124,-1.71726 -0.03039,-4.5591 0,0 -8.221577,-19.37618 -12.081616,-25.80451"
       id="path31419"
       style="fill:#000000;fill-opacity:1;fill-rule:nonzero;stroke:none"
       inkscape:connector-curvature="0" />
    <path
       d="m -27.946912,451.40311 -0.07598,27.62815 c 6.397937,0.42551 13.996438,1.13977 18.3731742,-3.96642 3.7384623,-4.95422 3.1305823,-14.54353 0.6230771,-19.01145 -4.3919333,-7.44653 -18.9202663,-4.65028 -18.9202663,-4.65028 m 0.07599,59.61784 c 0,2.84184 1.626079,4.58949 1.626079,4.58949 l -22.385183,-0.0304 c 0,0 1.656473,-1.70207 1.656473,-4.5591 l 0,-64.3745 c 0,-2.84184 -1.656473,-4.60469 -1.656473,-4.60469 l 37.004698,0 c 9.2853679,0.33433 16.5039435,4.60469 19.5585408,13.60131 2.3099442,7.88725 2.0060042,18.11483 -3.6168863,24.52796 -7.4921217,9.93884 -32.2328395,8.47993 -32.2328395,8.47993"
       id="path31421"
       style="fill:#000000;fill-opacity:1;fill-rule:nonzero;stroke:none"
       inkscape:connector-curvature="0" />
    <g
       transform="matrix(15.197001,0,0,-15.197001,-8230.8476,10570.859)"
       id="g31423"
       style="fill:#000000">
      <g
         clip-path="url(#clipPath31427)"
         id="g31425"
         style="fill:#000000">
        <path
           d="m 528.682,666.501 c 0,0 0.11,-0.123 0.11,-0.3 l 0,-2.143 c -0.64,0.758 -1.207,1.614 -1.867,2.385 -0.245,0.296 -0.711,0.792 -0.889,0.943 -1.157,1.133 -3.06,1.653 -4.831,1.028 l 0,-0.072 c 0.607,0.132 1.394,0.085 2.167,-0.227 0.58,-0.213 1.406,-0.858 1.884,-1.449 0.618,-0.704 1.934,-2.515 1.934,-2.515 0.756,-0.982 1.423,-1.875 2.195,-2.805 l 0,4.855 c 0.002,0.177 0.11,0.3 0.11,0.3"
           id="path31431"
           style="fill:#000000;fill-opacity:1;fill-rule:nonzero;stroke:none"
           inkscape:connector-curvature="0" />
        <path
           d="m 525.242,661.656 c 0,0 -0.11,0.122 -0.11,0.3 l 0,2.144 c 0.639,-0.758 1.208,-1.615 1.868,-2.386 0.245,-0.295 0.708,-0.792 0.888,-0.944 1.158,-1.133 3.058,-1.653 4.831,-1.026 l 0,0.071 c -0.607,-0.13 -1.395,-0.086 -2.167,0.229 -0.579,0.213 -1.406,0.856 -1.883,1.447 -0.619,0.705 -1.935,2.515 -1.935,2.515 -0.757,0.982 -1.424,1.877 -2.197,2.804 l 0,-4.854 c 0,-0.178 -0.11,-0.3 -0.11,-0.3"
           id="path31433"
           style="fill:#000000;fill-opacity:1;fill-rule:nonzero;stroke:none"
           inkscape:connector-curvature="0" />
      </g>
    </g>
    <path
       d="M 130.46663,323.33798 C 103.52235,332.8513 74.632847,324.94886 57.049916,307.73066 54.314456,305.43591 47.263047,297.8678 43.539782,293.38469 33.524958,281.6678 24.877864,268.64397 15.16698,257.12464 l 0,32.58237 c 0,2.72027 1.671671,4.5743 1.671671,4.5743 l -12.3855565,0 c 0,0 1.6564731,-1.85403 1.6716701,-4.5743 l 0,-73.76624 C 17.872047,230.04359 27.99325,243.6449 39.49738,258.55316 c 0,0 19.999254,27.50657 29.406197,38.23566 7.264167,8.96623 19.81689,18.7379 28.631151,21.97486 11.732082,4.78706 23.707322,5.45572 32.931902,3.48011 l 0,1.09419 z m -174.978274,-130.67902 0,-1.09418 c 26.913889,-9.49813 55.818586,-1.59569 73.401517,15.63771 2.720263,2.27955 9.786869,9.81727 13.510134,14.31558 10.030021,11.73208 18.646721,24.72552 28.387999,36.26004 l 0,-32.58237 c 0,-2.68987 -1.686868,-4.5591 -1.686868,-4.5591 l 12.355163,0 c 0,0 -1.62608,1.86923 -1.671671,4.5591 l 0,73.78145 c -11.732085,-14.11802 -21.853288,-27.70414 -33.342221,-42.6124 0,0 -20.01445,-27.53696 -29.406197,-38.23565 -7.24897,-8.98143 -19.8168902,-18.7683 -28.615954,-22.00526 -11.762479,-4.75666 -23.707322,-5.45572 -32.931902,-3.46492 m -21.838091,174.67434 218.654455,0 0,-218.65446 -218.654455,0 0,218.65446 z"
       id="path31435"
       style="fill:#000000;fill-opacity:1;fill-rule:nonzero;stroke:none"
       inkscape:connector-curvature="0" />
  </g>
</svg>
