<?xml version="1.0" encoding="utf-8"?>
<!-- Generator: Adobe Illustrator 25.4.1, SVG Export Plug-In . SVG Version: 6.00 Build 0)  -->
<svg version="1.1" id="Layer_1" xmlns="http://www.w3.org/2000/svg" xmlns:xlink="http://www.w3.org/1999/xlink" x="0px" y="0px"
	 viewBox="0 0 537.2 601.3" style="enable-background:new 0 0 537.2 601.3;" xml:space="preserve">
<image style="overflow:visible;" width="59" height="59" id="Layer_1_xA0_Image_00000008148984622069641730000010781231512178418349_" xlink:href="C52F715B.png"  transform="matrix(1 0 0 1 53.6087 271.1739)">
</image>
<image style="overflow:visible;" width="59" height="59" id="Layer_1_xA0_Image_00000014632537732325111560000012521417175867861663_" xlink:href="C52F7159.png"  transform="matrix(0.866 -0.5 0.5 0.866 65.9551 378.121)">
</image>
<image style="overflow:visible;" width="59" height="59" id="Layer_1_xA0_Image_00000109014877817916821300000016529342092995874987_" xlink:href="C52F715F.png"  transform="matrix(0.5 -0.866 0.866 0.5 130.121 464.5666)">
</image>
<image style="overflow:visible;" width="59" height="59" id="Layer_1_xA0_Image_00000026877994892467316900000013662899128092489635_" xlink:href="C52F7158.png"  transform="matrix(4.489653e-11 -1 1 4.489653e-11 228.913 507.3478)">
</image>
<image style="overflow:visible;" width="59" height="59" id="Layer_1_xA0_Image_00000060749794508795824770000013173657462341561277_" xlink:href="C52F7156.png"  transform="matrix(-0.5 -0.866 0.866 -0.5 335.8601 495.0014)">
</image>
<image style="overflow:visible;" width="59" height="59" id="Layer_1_xA0_Image_00000065763013155879739170000014310550161850470573_" xlink:href="C52F7157.png"  transform="matrix(-0.866 -0.5 0.5 -0.866 422.3058 430.8355)">
</image>
<image style="overflow:visible;" width="59" height="59" id="Layer_1_xA0_Image_00000011740078767871410390000009733968867838980025_" xlink:href="C52F7167.png"  transform="matrix(-1 0 0 -1 465.0869 332.0435)">
</image>
<image style="overflow:visible;" width="59" height="59" id="Layer_1_xA0_Image_00000026862129943574780730000000157236275223834002_" xlink:href="C52F7169.png"  transform="matrix(-0.866 0.5 -0.5 -0.866 452.7405 225.0964)">
</image>
<image style="overflow:visible;" width="59" height="59" id="Layer_1_xA0_Image_00000153702184718037694770000006869719104528757656_" xlink:href="C52F716B.png"  transform="matrix(-0.5 0.866 -0.866 -0.5 388.5747 138.6508)">
</image>
<image style="overflow:visible;" width="59" height="59" id="Layer_1_xA0_Image_00000071535522585880519970000012843621474467986329_" xlink:href="7FDB6238.png"  transform="matrix(-4.489653e-11 1 -1 -4.489653e-11 289.7826 95.8696)">
</image>
<image style="overflow:visible;" width="59" height="59" id="Layer_1_xA0_Image_00000001627849475899998260000000167885096030282369_" xlink:href="7FDB623F.png"  transform="matrix(0.5 0.866 -0.866 0.5 182.8356 108.216)">
</image>
<image style="overflow:visible;" width="59" height="59" id="Layer_1_xA0_Image_00000083047741775875306190000005157018823602631568_" xlink:href="7FDB6239.png"  transform="matrix(0.866 0.5 -0.5 0.866 96.3899 172.3818)">
</image>
</svg>
