<svg height="400" viewBox="0 0 2400 400" width="2400" xmlns="http://www.w3.org/2000/svg" xmlns:xlink="http://www.w3.org/1999/xlink"><mask id="a" fill="#fff"><path d="m.00002595 0h1145.51560405v268h-1145.51560405z" fill="#fff" fill-rule="evenodd"/></mask><g fill="#ffa1a5" fill-rule="evenodd" transform="translate(704 37)"><path d="m.00039654 201.291685c-.02131401-6.258443.87684862-12.531225 2.67019983-18.565181 2.23351038-7.514878 5.63631747-14.609461 9.08323963-21.629874 3.4008244-6.92696 6.776865-13.841063 10.6852604-20.502989 7.8321565-13.350059 17.1721557-25.781403 27.5213486-37.288591 10.4527889-11.6223983 21.9395553-22.2158153 33.8659853-32.3088338 12.4528365-10.5390258 25.3770597-20.5558966 39.0428127-29.4893948 13.744069-8.9849225 28.31988-17.1193653 43.670431-23.0425609 8.191521-3.1611144 16.627409-5.557786 25.173833-7.5470184 8.153354-1.89775649 16.504482-4.19059044 24.955241-3.68129155 8.160293.49199262 16.108437 4.01159405 23.074155 8.07955715 3.476662 2.0307676 7.031641 4.2484429 10.11573 6.8478451 2.218144 1.8700664 3.484593 4.6855498 4.306918 7.4060959.892214 2.9504723 1.345261 6.1387823 1.046865 9.2178155-.333094 3.435048-2.274156 6.2970111-4.459586 8.8657565-2.265729 2.6621992-4.711388 5.5266347-7.336482 7.8397417-1.761628 1.5531144-3.992164 2.2700885-5.959002.6615941-1.861258-1.5219631-2.850625-4.0743912-3.545561-6.2965166-.970531-3.104251-1.282311-5.9197344-.343007-9.0961772.914024-3.0889225 4.912632-11.5912472.367791-13.759476-2.120993-1.0116753-4.979053-.2422878-7.11095.2853063-4.251898 1.0522214-8.487934 2.1860295-12.711579 3.3465387-36.977831 10.1602657-71.109994 29.7549225-100.045998 54.6917786-29.174424 25.1425537-53.6647216 56.1870407-70.0120745 91.0928047-6.2554153 13.357476-12.8662293 28.330863-13.8888063 43.211786-.2701427 3.92704-.7549126 8.297616-.2141314 12.209328.3905917 2.824384 2.1482543 5.274952 4.2281055 7.140568 5.647718 5.06431 12.915301 5.904901 20.1927976 5.557786 16.1773365-.771859 31.5268962-6.70445 45.5188027-14.547158 15.8338344-8.875152 31.4366834-18.184938 46.9825304-27.551093 15.746099-9.487298 31.393064-19.137771 46.983026-28.87873 15.132454-9.455159 29.735032-19.594163 44.33067-29.846893 6.542411-4.595557 13.028315-9.668768 20.030712-13.550812 2.867479-1.589705 5.946114-2.956406 9.166018-3.643218 2.039205-.434634 6.294077-1.126885 7.53029 1.140731.997793 1.82952.16853 4.945144-1.170784 6.398376-2.682096 2.908938-6.543402 5.144414-9.736538 7.455048-6.782318 4.908554-13.09424 10.312067-18.994752 16.250591-5.768663 5.806502-11.109062 12.041705-15.846226 18.715003-4.530467 6.382554-8.222748 13.205676-12.000285 20.039181-1.542045 2.789771-3.150509 5.749639-3.722518 8.91817-.143745.798066-.59134 3.077055.376713 3.500812.683536.298657 2.124958-.409912 2.700932-.699668 4.627619-2.32893 7.987302-7.348244 11.131367-11.285174 4.542859-5.688819 9.911512-10.726922 14.785482-16.134391 5.815256-6.450295 11.163587-13.232376 16.159988-20.331904 2.3837-3.38659 4.704945-6.816693 7.017763-10.251741 1.201516-1.785513 2.400553-3.57251 3.605042-5.35555.980941-1.452738 1.85432-3.408347 3.374554-4.360687 1.257527-.787682 2.750499-1.084856 3.998608-1.901217 1.826066-1.194628 3.497481-2.68989 5.223916-4.023956 3.58125-2.767026 7.171918-5.522679 10.757134-8.285255 14.192654-10.933609 28.079974-22.18862 41.646096-33.8886491 12.910344-11.1348561 25.931719-22.6583616 36.373603-36.2002731 10.33581-13.4044502 18.939236-27.9966051 29.746929-41.0682804 2.720758-3.2906642 5.552548-6.49380813 8.555346-9.53180075 2.34008-2.36749816 4.351528-4.12087085 7.626947-4.98569004 2.074399-.54786716 5.127755-1.18424354 7.013797.19679705 2.419884 1.7716679 4.384739 4.82845019 5.735948 7.45109225 1.349723 2.62066419 1.902896 4.80471589.742026 7.55047969-1.706609 4.0373063-3.512847 8.0320886-5.41029 11.9833579-3.796869 7.9050111-7.968467 15.6305314-12.470681 23.1577713-9.254743 15.4742804-19.513228 30.3502583-29.516935 45.3449077-20.313247 30.4501405-39.257935 61.7972395-58.378588 92.9989665-4.574087 7.463949-9.144704 14.92938-13.718295 22.393329-2.329671 3.802435-4.660333 7.604376-6.992979 11.404834-1.209446 1.970937-2.419388 3.94138-3.629826 5.911328-.942773 1.534325-2.750995 3.569048-2.932412 5.393129.968053-.099387 2.079356-1.235173 2.734638-1.844848 1.082554-1.005742 2.156681-2.021373 3.234773-3.03206 2.502166-2.345247 4.99888-4.695933 7.493115-7.049092 4.513119-4.259321 9.018307-8.526553 13.532912-12.784885 9.262674-8.738185 18.56401-17.438296 28.046268-25.940126 18.920401-16.963609 38.336972-33.375395 57.716367-49.811904 4.878926-4.137683 9.758349-8.274871 14.632318-12.418487 3.686333-3.133424 7.017763-6.51062 11.697924-8.075107 2.499688-.83614 7.076253-1.687609 7.912456 1.832982.572504 2.409033-1.245631 5.065793-2.566604 6.901741-3.377032 4.692967-7.824721 8.500842-12.11776 12.326517-8.931563 7.958413-17.368939 16.441454-24.581997 26.00045-6.73622 8.92707-12.394843 18.69572-16.968434 28.894059-2.12347 4.735491-3.998112 9.71772-4.654386 14.892295-.168033 1.326155-.751443 4.234598-.107561 5.493506.700884 1.370657 3.504916.809933 4.764426.399033 4.041236-1.319727 7.129785-4.891247 10.320939-7.520317 4.086343-3.366318 8.066115-6.673299 11.66174-10.580561 7.298314-7.931712 13.181974-17.043712 18.429682-26.418768 4.689083-8.378214 8.96626-16.978937 13.415933-25.48324 3.924257-7.500044 9.770244-15.913859 7.674036-24.815217-.495675-2.104443-1.373515-4.098126-2.463503-5.96127-.729634-1.248029-1.557906-2.443151-2.444668-3.584376-.805472-1.035904-1.919253-2.054996-2.379239-3.306982-.615132-1.674258.425289-2.6532985 2.068451-2.7828483 2.108104-.1661402 4.134918.9696453 5.940661 1.8962733 3.820166 1.960553 7.395468 4.482819 10.114739 7.833808 1.358645 1.674258 2.472921 3.537402 3.316064 5.519712.427272 1.003764.782671 2.032745 1.074127 3.083978.347468 1.250996.171008 1.657941 1.506852 1.74645 2.38023.15724 4.855629-1.90369 6.873521-2.99448 2.898706-1.566465 5.793942-3.139852 8.687691-4.714723 5.49852-2.992502 10.994066-5.991926 16.503491-8.964155 2.899201-1.564487 5.802864-3.121557 8.71297-4.6662655 2.464-1.3078598 5.023664-3.096834 7.723109-3.8548487 3.908395-1.0972177 8.233653.4138671 11.580448 2.4174391 8.408627 5.0336531 11.467931 15.2206201 9.39502 24.5220001-2.106618 9.451697-8.521145 17.738435-13.250378 26.021712-1.452822 2.544517-2.938359 5.069749-4.412496 7.60141-1.316512 2.262177-3.881629 5.313025-3.855854 8.048406 1.675381-1.008214 3.170831-2.918333 4.617706-4.247454 1.911817-1.755845 3.820661-3.514657 5.729009-5.274458 3.578276-3.29907 7.152586-6.60259 10.73334-9.898694 7.162005-6.593195 14.351271-13.156723 21.629759-19.621852 4.6757-4.153011 12.132631-8.851417 18.080232-4.083786 5.56841 4.463535 5.043986 13.786672 3.57778 19.995173-1.111798 4.707307-3.32449 9.071949-5.628387 13.294185-1.119729 2.052029-2.276634 4.083786-3.380997 6.143727-.982427 1.831993-2.728689 4.370081-2.719272 6.523476 1.532627-.888554 2.870453-2.664177 4.090804-3.93248 1.629283-1.693048 3.245678-3.397468 4.853647-5.110789 3.107881-3.311927 6.182055-6.653521 9.262674-9.990665 6.264833-6.787026 12.553954-13.561195 19.174682-20.006546 6.126539-5.96473 12.225817-11.979402 18.543192-17.743874 3.144065-2.868886 6.360002-5.662118 9.701841-8.301078 3.212964-2.5370995 6.594953-5.2754463 10.224283-7.2013873 6.917637-3.6704133 13.484832 4.2069078 16.839063 9.2084203 1.641674 2.447602 3.852879 5.765462 3.218416 8.870207-.868423 4.245971-2.865 8.535454-4.537903 12.516886-3.55597 8.463756-7.778128 16.635284-11.91602 24.824612-4.297996 8.506775-8.63168 16.99476-12.983209 25.473845-4.951295 9.648989-9.925887 19.286111-14.896513 28.925705-2.40997 4.673188-4.81895 9.347365-7.224459 14.02352-2.409971 4.68555-5.243743 9.393845-7.149117 14.310805.970531-.402989 1.979229-1.723705 2.734142-2.479248 1.207464-1.209461 2.382213-2.451062 3.548535-3.700081 2.189396-2.344752 4.336163-4.729062 6.504244-7.094088 7.086662-7.731454 14.217439-15.422856 21.371512-23.092502 13.762905-14.755823 27.612553-29.430554 41.363562-44.197255 13.800576-14.819609 27.494582-29.73811 40.926872-44.891978 6.606353-7.4535641 13.085317-14.9501472 18.994752-22.9733354 5.85491-7.9490184 11.325672-16.1694981 16.841045-24.3563542 8.807148-13.0716753 17.792244-28.0969816 30.852778-37.2663395 5.831118-4.0941697 7.911465-4.774059 15.065042-2.8975646 5.550566 1.4557048 9.207159.2645388 5.007307 6.4324945-1.172271 1.7217269-2.314801 3.4647159-3.474185 5.1953432-2.438224 3.638273-14.522774 19.2856162-16.966946 22.9199335-4.796644 7.1326569-9.577923 14.2766864-14.232804 21.5027971-9.36974 14.5446863-18.213569 29.4226424-27.09953 44.2640074-2.434754 4.06648-4.8705 8.132465-7.319133 12.191033-1.19408 1.979343-2.1889 4.02-3.172814 6.109115-.52145 1.108096-1.040917 2.216686-1.557906 3.32676-.456516.979535-1.199533 2.06093-1.391359 3.126007.912537-.317446 1.801778-1.299454 2.54876-1.888362.896675-.70659 1.789881-1.417631 2.709358-2.095542 1.857789-1.369173 3.853375-2.449579 5.862345-3.57597 4.113605-2.306185 8.140962-4.761203 12.223339-7.122273 7.311698-4.229654 15.3679-8.925093 23.831546-10.302178 5.615499-.914265 11.741048.216082 16.265071 3.78513 4.993427 3.938907 6.776369 10.185977 5.853423 16.328221-.766313 5.102878-3.11135 9.981764-4.980044 14.752856-.987384 2.520782-1.984682 5.037609-2.980492 7.554435-.52839 1.334561-1.057275 2.668133-1.582194 4.003189-.389105.992391-1.398299 2.572701-1.449849 3.616516 1.060248.39755 2.294974-.444524 3.186693-.929594 1.156905-.628465 2.31034-1.263852 3.466749-1.893801 2.592379-1.412191 5.183271-2.826856 7.773667-4.242014 5.037047-2.751698 10.073102-5.505373 15.115601-8.247181 4.897763-2.663188 9.801473-5.315498 14.718566-7.943579 2.649382-1.416148 9.570488-5.96572 13.026332-4.700384 4.732703 1.732605-.16952 9.804251-1.988151 12.670169-.876849 1.381041-1.755184 2.761093-2.635503 4.140155-3.959945 6.206524-7.950127 12.393764-11.953196 18.572598-3.914839 6.041373-7.842566 12.074834-11.767318 18.109779-1.962872 3.017719-3.924753 6.034944-5.884155 9.054642-.983419 1.516029-1.973777 3.028103-2.953726 4.546605-.623559.966185-1.732383 2.697801-1.511312 3.906273 2.435745.095926 5.112885-2.731424 6.910697-4.068457 2.406501-1.789964 4.812506-3.58141 7.218511-5.372857 4.811515-3.583881 9.620551-7.170236 14.429588-10.75659 9.48424-7.073815 18.966994-14.150103 28.460156-21.212052 8.807645-6.552155 17.471048-13.393077 26.843761-19.137771 8.617801-5.282369 17.763992-9.713764 27.314157-13.049424 4.832333-1.687609 9.76281-3.09634 14.759211-4.21383 4.78227-1.069034 9.678545-2.15389 14.587708-2.371949 5.201115-.23042 9.978428.893498 14.461806 3.535425 3.833548 2.25921 6.764969-.164657 9.746452-2.671594 2.725716-2.290857 5.309668-3.799964 8.965765-2.715107 2.912585.864324 5.811291 3.258029 5.782542 6.52842-.01834 2.087137-1.350714 4.016539-2.253338 5.810952-1.32593 2.637476-2.647399 5.27693-3.965398 7.917867-2.226571 4.459085-4.442732 8.923115-6.655424 13.388133-4.69751 9.479882-9.381636 18.966192-14.148045 28.411461-2.57156 5.095956-5.166417 10.180539-7.786058 15.252761-1.448858 2.804605-2.874418 5.625033-4.364417 8.408376-.592331 1.106613-1.274875 1.990716-1.69025 3.178421-.41835 1.194627-1.406725 3.108206-1.34774 4.384915 1.596568-.374805 3.359683-1.830509 4.714858-2.741314 1.485537-.998819 2.951743-2.027801 4.42935-3.037498 2.951247-2.015934 5.90993-4.021483 8.87803-6.012199 5.929261-3.976982 11.897185-7.897594 17.920624-11.730687 11.758892-7.483727 23.734394-14.640118 36.023654-21.225402 12.53562-6.717306 25.40185-12.837793 38.62695-18.08555 13.21667-5.2438 26.73322-9.805734 40.77073-12.256302 8.28372-1.445816 16.89904-3.684753 25.24323-4.705329 4.01942-.491498 15.69802-.892014 17.67725-.194819 1.55344.546878 4.20827 1.546686 5.30124 2.785321-1.03795.744664-2.8883 1.071011-4.15921 1.361262-1.48851.340192-3.03403.34217-4.55129.446996-3.06327.211631-6.12257.491993-9.17394.836141-6.05616.683845-12.08356 1.626295-18.0609 2.817955-11.90115 2.372443-23.5966 5.736783-34.96986 9.958524-11.41539 4.237565-22.42531 9.459115-33.37526 14.759779-11.07933 5.362967-22.0263 11.040413-32.48207 17.544605-21.37696 13.299624-40.526363 29.883978-60.027198 45.700428-4.583505 3.717388-9.074813 7.341816-13.251369 11.514111-1.690251 1.688598-3.449896 3.385107-5.486128 4.660332-1.832509 1.147653-3.914839 1.013653-5.955532.474192-4.145823-1.096229-4.115587-1.958081-6.578099-5.195838-2.106122-2.769003-5.348826-5.254184-6.301513-8.638797-1.02456-3.637778-.465439-7.357638.724181-10.885646 1.858284-5.508339 4.838281-10.657697 7.735004-15.672066 3.497481-6.054229 20.836183-38.132148 21.19406-39.72383-1.074127.063786-2.385682 1.159026-3.192641 1.767712-1.063718.802022-2.121487 1.61245-3.183223 2.416945-2.641946 2.001594-5.282901 4.004671-7.922865 6.008243-5.016724 3.806886-10.03097 7.617233-15.046207 11.425602-10.030969 7.616243-20.065904 15.227542-30.13058 22.800273-5.301737 3.988848-14.701713 12.509963-21.07609 5.396096-2.778753-3.10079-3.540605-7.721565-3.699716-11.729203-.194305-4.904104.856526-9.735521 2.759917-14.243063 2.074894-4.914982 5.040516-9.389889 8.067602-13.762443 1.609951-2.326457 3.23626-4.641048 4.825889-6.982339 1.878607-2.767026 4.441246-5.296709 6.070033-8.198229-2.484322 1.349889-4.863561 3.587343-7.072783 5.348133-2.794614 2.22707-5.512894 4.554516-8.258932 6.841911-5.316608 4.427934-10.627763 8.86279-15.940404 13.296163-10.277816 8.576-20.450549 17.315173-30.882519 25.702782-4.033802 3.243195-8.353111 6.411232-13.659309 6.88493-1.830031.163668-3.980268.212125-5.675476-.609676-1.861259-.901409-3.396859-3.33121-4.623654-4.942671-3.084088-4.049174-4.817463-8.788126-2.427319-13.641299 1.394333-2.830812 3.618921-5.35555 5.467788-7.906 2.121488-2.927233 4.241984-5.854959 6.361489-8.783675 4.431828-6.123454 8.858699-12.249875 13.282101-18.379262 2.307861-3.197705 4.614732-6.396399 6.921106-9.595587 1.147487-1.591683 2.323228-3.166059 3.442461-4.77752.791593-1.138753 2.046641-2.713129 2.281095-4.079831-1.327417-.076642-3.20305.776805-4.338145 1.428015-1.571289.90141-3.083593 1.922974-4.630593 2.866908-3.379015 2.059941-6.783309 4.077852-10.180664 6.107136-6.255415 3.735683-12.494473 7.510923-18.488668 11.655528-5.81129 4.017528-11.345003 8.381675-16.334961 13.387638-5.071744 5.088045-9.68251 10.602812-14.438509 15.97913-8.773443 9.917978-18.447031 18.837631-30.023019 25.422915-11.18044 6.360797-23.63625 10.292782-36.48067 11.270339-3.489054.265528-7.835626.915749-11.202249-.214103-2.968596-.995852-5.477702-3.162598-8.800705-2.567262-9.471849 1.696509-13.073917 11.378627-21.780444.839107-1.760141-2.129661-3.689803-4.817078-4.153258-7.609321-.63149-3.803919 1.789385-7.414996 3.779519-10.42876 2.443181-3.700576 4.589453-7.57817 6.840808-11.396428 10.010151-16.981904 20.495654-33.677513 30.948939-50.389439 2.851617-4.558967 5.700755-9.119417 8.537502-13.687285 1.448857-2.332391 2.892758-4.667254 4.334675-7.004095 1.408212-2.280967 3.13316-4.564901 4.276682-6.98679-2.21864 1.768701-4.24595 4.150539-6.122079 6.276243-2.139828 2.424362-4.188451 4.934266-6.267807 7.410052-4.191425 4.990635-8.361041 9.99907-12.536605 15.00355-8.348154 10.005498-16.718614 19.995173-25.319066 29.786568-15.410528 17.543616-32.346247 33.575653-48.600413 50.312303-6.014517 6.193173-13.506641 13.249682-22.735609 13.276878-3.874193.011867-7.843061-1.194627-9.843109-4.734502-1.719-3.041948-1.812187-6.759336-2.022353-10.155321-.308309-4.978767-.430741-9.731564.549704-14.662863 1.077597-5.42082 3.064261-10.547432 5.821699-15.331875 6.478469-11.240177 13.158182-22.364155 19.926125-33.433247 7.445035-12.176199 14.998622-24.286635 22.517016-36.417838 3.753745-6.056206 7.504516-12.114885 11.214641-18.198288 1.842919-3.02118 3.673942-6.049778 5.49059-9.086287 1.626308-2.719063 3.832061-5.411425 4.085846-8.652148-1.286276 1.537291-3.590667 2.640937-5.225403 3.776229-2.466477 1.712826-4.689083 3.561631-6.974639 5.519712-7.374153 6.317284-14.736906 12.559904-21.389356 19.649048-6.272764 6.68566-12.140562 13.747609-18.127321 20.685941-6.135958 7.111395-12.226809 14.262347-18.167471 21.536915-5.984777 7.329454-11.78318 14.798347-17.25642 22.517439-2.772309 3.909734-5.624917 7.802162-8.171198 11.863698-2.167586 3.456804-4.157224 7.1109-6.957787 10.115763-1.629778 1.749417-4.204809 4.184163-6.51267 2.078731-1.862746-1.699476-2.547273-4.72214-3.062774-7.076288-.764826-3.490428-1.069171-7.038214-.465935-10.582539.820838-4.824 3.11829-8.976516 5.427639-13.220509 5.587741-10.269048 10.956394-20.654789 16.267549-31.068716 2.582466-5.063815 5.151548-10.134059 7.726082-15.20183 1.323452-2.606325 2.649382-5.21166 3.978286-7.815018 1.122703-2.197897 3.426599-5.348133 3.175292-7.941107-1.034969-.575063-3.328951.912287-4.197374 1.454715-1.65704 1.034916-3.12969 2.344753-4.51857 3.708982-2.712828 2.664177-5.061335 5.653712-7.641322 8.439033-3.271949 3.532458-6.828416 6.808783-10.144975 10.303166-3.665019 3.860783-7.132264 7.877321-10.531106 11.971491-14.35821 17.293417-28.270809 34.948288-42.256767 52.541351-6.539933 8.226413-12.764616 17.048656-20.368266 24.34597-1.710574 1.641624-3.89303 3.545808-5.926288 1.278192-1.277849-1.424554-2.024831-3.395491-2.696966-5.153808-.91105-2.382332-1.58715-4.876908-1.802273-7.423897-.390096-4.623247.864952-9.058103 2.955708-13.151778 2.518028-4.928827 5.48712-9.663329 8.231671-14.470517 5.684893-9.955063 11.338559-19.927432 16.973885-29.910185 5.635822-9.983247 11.252808-19.976878 16.863846-29.973476 5.525287-9.843808 11.402006-19.571417 16.313647-29.739099 1.166819-2.415461 2.354951-4.839329 3.418669-7.302258.495675-1.147654 1.356166-3.509713.323676-4.579735-1.271406-1.317254-4.313857-.464302-5.742888-.039557-2.378247.707579-4.732207 1.498229-7.053947 2.371948-8.74172 3.288687-17.03188 7.772-24.505168 13.371321-7.443052 5.576576-14.374567 12.116369-18.966994 20.269602-4.700483 8.345579-7.863384 17.515926-11.98145 26.152251-8.167232 17.12876-17.868578 33.516812-30.845343 47.483468-8.780878 9.450709-24.048156 23.35803-37.415512 13.831174-6.320349-4.50507-10.515244-11.876059-12.519753-19.247543-1.02109-3.754966-1.509329-7.708214-1.117746-11.591741.465934-4.618797 2.305383-9.09865 4.04074-13.365388.942278-2.317557 1.93908-4.612863 2.917046-6.915586.550695-1.295993 1.100894-2.59248 1.625318-3.898857.409923-1.022059 1.189123-2.494575 1.013159-3.621461-1.170784.044502-2.241441 1.330111-2.997345 2.085159-1.058762 1.058155-2.108105 2.126694-3.163892 3.18831-2.224589 2.235476-4.448185 4.471941-6.672278 6.707911-4.330215 4.355248-8.659933 8.711484-12.988661 13.06772-8.424488 8.477107-16.847984 16.955203-25.277429 25.427365-8.546424 8.589845-17.099787 17.173262-25.665542 25.744317-4.064533 4.066975-8.175164 8.081536-12.574277 11.791506-2.948769 2.487159-5.86185 5.388679-9.977933 5.289786-7.461392-.178996-13.216175-7.510923-14.989204-14.137247-2.59337-9.692997 1.177228-19.654487 5.797412-28.082148 5.401368-9.85073 11.307332-19.456206 16.94018-29.178376 6.028892-10.405521 12.06621-20.805602 18.194237-31.153764 6.808092-11.496804 13.776288-22.890266 20.94424-34.167528 3.832062-6.029011 7.684446-12.044671 11.531873-18.063299 1.495451-2.340302 2.983466-4.685549 4.4809-7.0243686 1.217873-1.9031956 2.832285-6.7370849 4.413983-8.0192325-1.680337 1.3365387-3.014198 3.3460443-4.538397 4.8754244-9.90259 9.9382507-20.572485 19.4596677-31.560107 28.1914247-9.803455 7.792767-19.877053 15.320501-29.220026 23.669048-1.578724 1.411203-3.183223 2.842184-4.579043 4.438317-2.711837 3.10079-4.005548 7.274074-5.944132 10.860922-4.664795 8.631875-10.290703 16.703026-16.232356 24.500244-6.078955 7.977697-12.345275 15.792716-19.421032 22.920428-3.557458 3.584376-7.257174 7.026347-11.047599 10.363985-3.028077 2.665661-6.314896 5.612177-10.530114 6.00231-8.58806.7951-14.196124-9.92045-16.204103-16.772745-1.493468-5.097934-1.258022-10.444583.141763-15.532627.746486-2.714613 1.787899-5.3422 2.973057-7.893639 1.040917-2.240915 3.001807-4.961956 2.726707-7.563336-1.514782.533034-3.255592 2.441174-4.55079 3.418237-1.815656 1.369173-3.626356 2.74428-5.43656 4.121365-3.618426 2.752192-7.230408 5.513284-10.849329 8.263992-7.236851 5.499934-14.507904 10.955366-21.915267 16.224879-14.573333 10.368435-29.108004 20.822413-44.270198 30.328502-14.518314 9.101616-29.6562201 18.073682-46.1473187 23.110797-12.8994395 3.939896-26.9547924 3.714915-38.55259-3.772768-6.3089481-4.073402-10.9583772-9.818096-15.4600951-15.718052-4.4526462-5.83518-8.61185299-11.949239-11.76533569-18.591387-3.87964619-8.171528-5.80038581-17.117882-5.83062197-26.093904m784.91433446-75.961188c-.336067-.204709-.806462-.054886-1.636222.222509-23.765125 7.964841-47.782549 22.312236-63.03 42.946753-15.29801 20.702258-29.432175 42.261918-43.924217 63.549623-.275595.405956 7.332516.121639 12.890021-.488037 11.900655-3.86721 13.313824-3.33566 24.46948-8.779225 22.22209-10.843616 36.981301-30.31614 50.706039-49.789158 5.117841-7.260229 9.134789-15.208753 12.900926-23.227986 3.002798-6.393926 10.305078-16.449365 8.247036-23.281882-.1948-.64676-.370764-.999313-.623063-1.152597m178.461247 18.062804c-1.503877-.624509-17.598932.653683-24.331186 2.598413-16.105959 4.653904-29.086194 16.333661-40.489687 28.095004-2.82832 2.916849-5.596663 5.890067-8.358067 8.870207-6.126045 6.61149-11.22852 12.936686-15.898768 20.639955-.626037 1.032938-8.276777 13.556251-6.002125 14.469528 2.364864.948878 13.216175-7.684974 18.087667-11.175897 6.803136-4.874929 13.565626-9.810679 20.095645-15.046568 17.504258-14.033409 34.556956-28.628531 51.754391-43.041195 1.716026-1.438399 3.113333-3.255063 5.14213-5.409447" mask="url(#a)"/><path d="m864.847531 93c7.26352.3360929 7.284956 6.1620248 7.109475 10.733756-.210378 5.492733-12.583786 16.174411-18.299384 17.117111-7.841311 1.292776-8.961997-6.152381-9.445566-9.477145-1.654607-11.3799034 6.481332-17.9508332 20.635475-18.373722"/></g></svg>