<svg width="733" height="208" viewBox="0 0 733 208" fill="none" xmlns="http://www.w3.org/2000/svg">
<path d="M313.177 65.5612C311.396 59.3108 307.566 57.0644 304.076 56.4188C302.597 54.7396 299.499 54.4672 297.824 55.0568C282.824 60.1467 273.911 65.2851 253.066 71.6027C247.419 73.376 241.624 74.7621 235.732 75.7485C233.39 76.1216 231.104 76.3828 229.14 74.7745C228.2 73.3976 226.845 74.3305 227.015 75.6365C227.191 76.5811 227.751 77.4375 228.592 78.0471C230.16 79.3009 233.305 80.7824 235.392 80.5734C241.466 79.9353 246.992 77.5023 252.836 75.3492C259.174 73.0431 265.333 70.7631 271.449 68.3636C257.754 78.0658 248.497 91.0219 244.701 99.3993C238.874 112.236 247.753 118.386 255.387 121.789C263.021 125.192 276.078 124.099 294.492 107.362C312.905 90.6263 315.549 73.8789 313.177 65.5612ZM303.456 84.6296C295.18 102.131 274.62 114.572 265.061 117.43C255.502 120.289 254.362 112.781 255.387 108.695C256.411 104.609 264.78 89.2531 277.736 78.7636C290.692 68.2741 292.358 67.8823 296.999 65.2478C298.987 64.0679 301.081 63.0321 303.26 62.1506C303.525 62.0514 303.819 62.0321 304.098 62.0955C304.376 62.159 304.623 62.3017 304.799 62.5013C306.461 64.3597 310.138 70.5093 303.456 84.6296ZM324.798 100.19C315.748 111.113 311.672 115.206 310.865 116.609C310.057 118.012 308.068 117.266 307.23 115.777C306.393 114.288 305.887 113.146 307.315 109.878C308.744 106.609 315.668 93.9661 319.642 85.8051C320.241 84.5662 320.641 82.1034 322.09 82.1743C323.54 82.2452 327.293 83.1818 328.041 85.4655C328.789 87.7492 326.732 90.4397 324.687 93.5481C322.643 96.6566 321.04 99.6866 321.04 99.6866C321.04 99.6866 327.697 92.8765 332.449 89.212C337.201 85.5476 340.601 83.943 342.896 83.693C345.192 83.443 344.898 85.5588 343.946 86.7604C342.994 87.9619 339.998 88.3202 338.846 87.3462C338.858 87.335 333.847 89.2717 324.798 100.19ZM422.585 85.1036C419.58 84.5476 402.081 84.2602 402.081 84.2602C402.081 84.2602 416.056 71.946 421.446 66.3486C426.836 60.7512 428.421 55.9785 424.06 54.4821C419.699 52.9858 410.654 54.5568 403.02 65.1657C395.386 75.7746 392.1 84.5923 392.1 84.5923C392.1 84.5923 385.3 84.6595 383.017 84.6296C380.735 84.5998 380.943 85.1782 381.1 86.3872C381.257 87.5963 381.525 89.3725 382.52 89.3016C383.514 89.2307 389.724 89.115 391.259 89.4509C391.259 89.4509 390.128 91.2868 386.434 94.4736C382.741 97.6604 370.329 109.027 370.329 109.027C370.563 105.725 371.047 102.44 371.779 99.194C372.969 94.0407 377.041 87.656 376.352 86.6484C375.664 85.6409 374.58 84.1445 372.663 84.346C370.746 84.5475 367.426 87.9508 367.426 87.9508C367.426 87.9508 365.008 85.4655 358.126 87.2828C351.244 89.1001 339.16 99.3955 335.335 104.993C331.509 110.59 330.302 117.871 335.237 117.803C340.172 117.736 348.388 109.516 354.08 104.038C359.771 98.5597 363.881 95.0408 363.881 95.0408C363.881 95.0408 360.23 102.183 358.088 107.045C355.946 111.908 357.62 112.508 358.938 115.277C360.256 118.046 363.647 121.173 369.02 115.12C374.393 109.068 388.743 96.3692 388.743 96.3692C388.743 96.3692 383.799 107.564 381.13 118.322C378.46 129.08 376.969 140.167 377.198 146.376C377.428 152.586 380.428 154 384.233 154C388.037 154 391.807 154.119 394.97 146.537C398.132 138.954 398.51 126.491 396.542 117.374C394.97 110.105 392.555 107.049 392.555 107.049C392.555 107.049 396.954 93.0929 398.54 89.7307C398.54 89.7307 404.818 88.2381 411.394 87.2418C417.969 86.2454 425.59 85.6558 422.585 85.1036ZM409.494 63.5686C414.416 56.2323 418.908 56.0307 421.029 56.9263C423.15 57.8219 424.005 59.0272 416.851 66.4605C409.698 73.8939 402.081 80.4876 402.081 80.4876C402.081 80.4876 404.571 70.9198 409.494 63.5686ZM364.884 90.0031C363.766 90.9062 348.235 104.086 342.552 109.034C336.869 113.982 337.026 112.393 337.694 110.116C338.361 107.84 343.445 100.187 351.984 94.1974C360.523 88.2082 364.442 88.3165 365.526 88.6001C365.841 88.7157 366.006 89.1001 364.884 90.0031ZM394.97 130.256C394.855 142.197 389.729 149.716 388.479 150.731C387.229 151.746 386.843 148.895 386.681 146.716C386.52 144.537 384.845 132.73 391.62 110.34C391.62 110.34 395.084 118.33 394.97 130.256ZM422.708 91.4473C423.792 92.772 422.904 93.5481 422.53 94.3915C422.53 94.3915 420.966 96.8282 418.704 103.325C416.443 109.822 411.904 113.087 410.964 113.438C410.025 113.788 409.944 112.979 411.929 107.665C413.914 102.351 417.327 94.5631 418.632 92.1637C419.937 89.7643 421.624 90.1151 422.708 91.4398V91.4473ZM438.129 77.4053C435.94 78.0882 431.469 79.5808 428.23 80.7115C426.177 81.4279 425.68 80.2861 425.773 79.2188C425.867 78.1516 425.731 76.8791 429.105 74.7782C432.48 72.6774 435.141 71.9908 437.05 72.9125C438.958 73.8342 440.318 76.7149 438.129 77.3978V77.4053ZM504.998 78.3606C505.117 78.5322 498.601 77.0769 493.28 76.2597C487.958 75.4425 476.418 73.67 462.03 74.2521C462.03 74.2521 476.129 81.2675 472.439 91.8092C468.75 102.351 455.641 113.889 443.748 115.229C431.855 116.568 429.445 108.586 428.532 105.284C427.618 101.982 431.112 85.7342 453.911 78.7449C456.16 78.0546 458.723 78.7449 459.148 80.4689C459.573 82.1929 457.448 83.2639 455.48 83.2527C453.512 83.2415 444.811 89.1262 440.327 97.6529C435.842 106.18 435.851 109.87 438.027 109.993C440.204 110.116 446.001 110.74 455.769 102.53C465.537 94.3206 468.261 88.2381 464.725 82.3534C461.188 76.4687 459.059 74.1737 454.494 74.67C449.929 75.1663 448.467 75.4163 447.999 74.7969C447.531 74.1775 448.326 73.7222 449.453 73.461C450.579 73.1998 458.991 70.1511 477.506 71.9012C496.021 73.6513 504.862 78.1889 504.998 78.3606Z" fill="black"/>
</svg>
