<?xml version="1.0" encoding="utf-8"?>
<!-- Generator: Adobe Illustrator 25.4.1, SVG Export Plug-In . SVG Version: 6.00 Build 0)  -->
<svg version="1.1" id="Layer_1" xmlns="http://www.w3.org/2000/svg" xmlns:xlink="http://www.w3.org/1999/xlink" x="0px" y="0px"
	 viewBox="0 0 2400 410" style="enable-background:new 0 0 2400 410;" xml:space="preserve">
<style type="text/css">
	.st0{font-family:'RoshidaValentines';}
	.st1{font-size:383.8215px;}
</style>
<text transform="matrix(1 0 0 1 795.4514 -3072.0178)" class="st0 st1">Altissio</text>
<text transform="matrix(1 0 0 1 758.8095 -2600.8877)" class="st0 st1">Arondio</text>
<text transform="matrix(1 0 0 1 320.2021 -2145.9099)"><tspan x="0" y="0" class="st0 st1">Espresso</tspan><tspan x="978.3" y="0" class="st1" style="font-family:'AdobeMyungjoStd-Medium-KSCpc-EUC-H';"> </tspan><tspan x="1106.2" y="0" class="st0 st1">Dolce</tspan></text>
<text transform="matrix(1 0 0 1 709.6755 307.2865)" class="st0 st1">Melozio</text>
<text transform="matrix(1 0 0 1 742.5954 -212.3656)" class="st0 st1">Ethiopia</text>
<text transform="matrix(1 0 0 1 611.3329 -688.192)" class="st0 st1">Elsalvador</text>
<text transform="matrix(1 0 0 1 346.8793 -1205.2146)"><tspan x="0" y="0" class="st0 st1">Espresso</tspan><tspan x="978.3" y="0" class="st1" style="font-family:'AdobeMyungjoStd-Medium-KSCpc-EUC-H';"> </tspan><tspan x="1106.2" y="0" class="st0 st1">Scuro</tspan></text>
<text transform="matrix(1 0 0 1 689.0773 -1686.8007)" class="st0 st1">Colombia</text>
<text transform="matrix(1 0 0 1 -1965.5316 -3072.0181)" class="st0 st1">Colombia</text>
<text transform="matrix(1 0 0 1 -1692.4508 -2600.8875)" class="st0 st1">Cosi</text>
<text transform="matrix(1 0 0 1 -1963.1595 -2151.6699)" class="st0 st1">Indonesia</text>
<text transform="matrix(1 0 0 1 -1824.9838 307.2863)" class="st0 st1">Volluto</text>
<text transform="matrix(1 0 0 1 -1872.1996 -212.3658)" class="st0 st1">Ristretto</text>
<text transform="matrix(1 0 0 1 -2170.0371 -688.192)" class="st0 st1">Tokyo Lungo</text>
<text transform="matrix(1 0 0 1 -1956.2513 -1210.9747)" class="st0 st1">Arpeggio</text>
<text transform="matrix(1 0 0 1 -2213.0161 -1686.8007)" class="st0 st1">Vienna Lungo</text>
</svg>
